<svg width="68" height="68" viewBox="0 0 68 68" fill="none" xmlns="http://www.w3.org/2000/svg">
<path d="M22.7036 7.63208L17.2129 10.806L22.7042 13.9777L28.1948 10.8038L22.7036 7.63208Z" fill="#91C9DB"/>
<path d="M17.2092 46.6724L22.7031 49.8443V13.9755L17.2092 10.8036V46.6724Z" fill="#30A6CA"/>
<path d="M22.7019 49.8443L28.1958 46.6724V10.8036L22.7019 13.9755V49.8443Z" fill="#247F9B"/>
<path d="M31.7178 19.2592L26.2271 22.4331L31.7183 25.6047L37.209 22.4308L31.7178 19.2592Z" fill="#91C9DB"/>
<path d="M26.2224 51.653L31.7163 54.8249V25.6027L26.2224 22.4308V51.653Z" fill="#30A6CA"/>
<path d="M31.7151 54.8249L37.209 51.653V22.4308L31.7151 25.6027V54.8249Z" fill="#247F9B"/>
<path d="M40.5771 32.5934L35.0864 35.7673L40.5777 38.939L46.0684 35.7651L40.5771 32.5934Z" fill="#91C9DB"/>
<path d="M35.0827 56.7263L40.5767 59.8982V38.9371L35.0827 35.7653V56.7263Z" fill="#30A6CA"/>
<path d="M40.5754 59.8982L46.0693 56.7263V35.7653L40.5754 38.9371V59.8982Z" fill="#247F9B"/>
<path d="M49.6338 46.7501L44.1431 49.924L49.6343 53.0957L55.125 49.9218L49.6338 46.7501Z" fill="#91C9DB"/>
<path d="M44.1389 61.7993L49.6328 64.9712V53.0938L44.1389 49.9219V61.7993Z" fill="#30A6CA"/>
<path d="M49.6316 64.9712L55.1255 61.7993V49.9219L49.6316 53.0938V64.9712Z" fill="#247F9B"/>
</svg>
