<svg width="68" height="68" viewBox="0 0 68 68" fill="none" xmlns="http://www.w3.org/2000/svg">
<path d="M11.6602 39.3823L22.4225 33.1279L24.9004 31.7158L14.138 37.9702L11.6602 39.3823Z" fill="#0050F0"/>
<path d="M32.4992 57.3326L43.2614 51.0782L43.25 55.0926L32.4878 61.3469L32.4992 57.3326Z" fill="#247F9B"/>
<path d="M9.02734 20.7127L19.7897 14.4584L23.2832 16.4754L12.5209 22.7297L9.02734 20.7127Z" fill="#247F9B"/>
<path d="M21.5472 25.0518L32.3094 18.7975C31.628 19.1858 31.0581 19.7445 30.6118 20.4468L19.8496 26.7011C20.2958 25.9989 20.8658 25.4401 21.5472 25.0518Z" fill="#247F9B"/>
<path d="M19.8499 26.7011L30.6121 20.4468C30.4812 20.6528 30.3609 20.8712 30.2515 21.1014L19.4893 27.3557C19.5986 27.1256 19.7189 26.9072 19.8499 26.7011Z" fill="#247F9B"/>
<path d="M19.4894 27.3558L30.2516 21.1014C30.1663 21.2812 30.0876 21.4681 30.0157 21.6617L19.2534 27.9161C19.3253 27.7224 19.4041 27.5355 19.4894 27.3558Z" fill="#247F9B"/>
<path d="M19.2531 27.916L30.0153 21.6616C29.953 21.8297 29.8958 22.0028 29.8438 22.1809L19.0815 28.4351C19.1335 28.2571 19.1907 28.084 19.2531 27.916Z" fill="#247F9B"/>
<path d="M19.082 28.4352L29.8443 22.1809C29.7979 22.3395 29.7558 22.5021 29.7179 22.6685L18.9556 28.9228C18.9935 28.7564 19.0357 28.5939 19.082 28.4352Z" fill="#247F9B"/>
<path d="M18.9555 28.9228L29.7178 22.6685C29.6825 22.8228 29.651 22.9805 29.6231 23.1412L18.8608 29.3955C18.8887 29.2348 18.9203 29.0772 18.9555 28.9228Z" fill="#247F9B"/>
<path d="M18.8609 29.3956L29.6231 23.1412C29.5969 23.2928 29.5738 23.4471 29.5542 23.6041L18.792 29.8584C18.8116 29.7014 18.8346 29.5471 18.8609 29.3956Z" fill="#247F9B"/>
<path d="M18.7917 29.8583L29.554 23.604C29.5352 23.7537 29.5195 23.906 29.5069 24.0605L18.7446 30.3148C18.7572 30.1602 18.773 30.0081 18.7917 29.8583Z" fill="#247F9B"/>
<path d="M18.7448 30.3149L29.507 24.0605C29.4948 24.2094 29.4855 24.3605 29.479 24.5137L18.7168 30.768C18.7233 30.6149 18.7326 30.4638 18.7448 30.3149Z" fill="#247F9B"/>
<path d="M18.717 30.7682L29.4793 24.5139C29.473 24.6628 29.4695 24.8137 29.4688 24.9665L18.7065 31.2208C18.7073 31.068 18.7108 30.9171 18.717 30.7682Z" fill="#247F9B"/>
<path d="M18.7063 31.2207L29.4685 24.9663C29.4684 24.9752 29.4684 24.9842 29.4684 24.9931C29.468 25.1346 29.4699 25.2772 29.4743 25.4209L18.712 31.6752C18.7077 31.5316 18.7057 31.3889 18.7061 31.2474C18.7062 31.2385 18.7062 31.2296 18.7063 31.2207Z" fill="#247F9B"/>
<path d="M18.7124 31.6752L29.4746 25.4209C29.4792 25.5727 29.4863 25.7256 29.4961 25.8795L18.7338 32.1338C18.7241 31.9799 18.717 31.827 18.7124 31.6752Z" fill="#247F9B"/>
<path d="M18.7329 32.1337L29.4951 25.8794C29.5049 26.0335 29.5173 26.1885 29.5322 26.3445L18.7699 32.5989C18.755 32.4428 18.7427 32.2878 18.7329 32.1337Z" fill="#247F9B"/>
<path d="M18.7705 32.5989L29.5327 26.3446C29.5477 26.5011 29.5652 26.6585 29.5853 26.8167L18.823 33.0711C18.803 32.9128 18.7855 32.7554 18.7705 32.5989Z" fill="#247F9B"/>
<path d="M18.8228 33.0711L29.585 26.8168C29.6053 26.9768 29.6282 27.1377 29.6537 27.2994L18.8915 33.5537C18.866 33.3921 18.843 33.2312 18.8228 33.0711Z" fill="#247F9B"/>
<path d="M18.8921 33.5538L29.6543 27.2994C29.6801 27.4631 29.7085 27.6277 29.7395 27.7928L18.9773 34.0472C18.9463 33.882 18.9179 33.7175 18.8921 33.5538Z" fill="#247F9B"/>
<path d="M18.9766 34.0471L29.7388 27.7927C29.7703 27.96 29.8044 28.128 29.8411 28.2965L19.0789 34.5509C19.0421 34.3823 19.008 34.2143 18.9766 34.0471Z" fill="#247F9B"/>
<path d="M19.0791 34.5509L29.8413 28.2965C29.8784 28.4667 29.9182 28.6375 29.9607 28.8086L19.1984 35.0629C19.1559 34.8918 19.1162 34.721 19.0791 34.5509Z" fill="#247F9B"/>
<path d="M19.1982 35.0629L29.9605 28.8086C30.003 28.9802 30.0482 29.1523 30.0961 29.3246L19.3338 35.579C19.286 35.4066 19.2407 35.2346 19.1982 35.0629Z" fill="#247F9B"/>
<path d="M19.3345 35.579L30.0967 29.3247C30.1441 29.4956 30.1941 29.6669 30.2467 29.8385L19.4845 36.0928C19.4319 35.9213 19.3819 35.75 19.3345 35.579Z" fill="#247F9B"/>
<path d="M19.4844 36.0928L30.2466 29.8385C30.2981 30.0064 30.352 30.1746 30.4083 30.3428L19.6461 36.5971C19.5898 36.4289 19.5358 36.2607 19.4844 36.0928Z" fill="#247F9B"/>
<path d="M19.646 36.5971L30.4082 30.3428C30.463 30.5062 30.52 30.6696 30.5792 30.833L19.8169 37.0873C19.7576 36.9239 19.7007 36.7604 19.646 36.5971Z" fill="#247F9B"/>
<path d="M19.8164 37.0872L30.5786 30.8329C30.6361 30.9914 30.6957 31.15 30.7573 31.3084L19.9951 37.5627C19.9334 37.4043 19.8739 37.2458 19.8164 37.0872Z" fill="#247F9B"/>
<path d="M19.9951 37.5627L30.7574 31.3085C30.8175 31.4628 30.8795 31.6171 30.9436 31.7712L20.1813 38.0256C20.1173 37.8715 20.0552 37.7172 19.9951 37.5627Z" fill="#247F9B"/>
<path d="M20.1821 38.0256L30.9444 31.7712C31.0078 31.924 31.0732 32.0766 31.1405 32.2289L20.3783 38.4833C20.311 38.331 20.2456 38.1783 20.1821 38.0256Z" fill="#247F9B"/>
<path d="M20.3784 38.4832L31.1407 32.2289C31.2091 32.3839 31.2795 32.5386 31.3519 32.6929L20.5896 38.9473C20.5173 38.7929 20.4468 38.6382 20.3784 38.4832Z" fill="#247F9B"/>
<path d="M20.5894 38.9475L31.3516 32.6931C31.428 32.8561 31.5066 33.0187 31.5873 33.1808L20.825 39.4352C20.7443 39.2731 20.6657 39.1104 20.5894 38.9475Z" fill="#247F9B"/>
<path d="M20.8252 39.435L31.5874 33.1807C31.6812 33.3689 31.7778 33.5566 31.8772 33.7433L21.115 39.9977C21.0156 39.8109 20.9189 39.6233 20.8252 39.435Z" fill="#247F9B"/>
<path d="M21.1143 39.9978L31.8765 33.7434C32.0016 33.9784 32.1312 34.212 32.2651 34.444C32.2851 34.4787 32.3051 34.5132 32.3251 34.5477L21.5629 40.802C21.5428 40.7676 21.5228 40.733 21.5029 40.6983C21.3689 40.4664 21.2394 40.2327 21.1143 39.9978Z" fill="#247F9B"/>
<path d="M21.563 40.8021L32.3252 34.5477C32.5933 35.008 32.8756 35.4563 33.1701 35.8908L22.4078 42.1451C22.1132 41.7106 21.8311 41.2623 21.563 40.8021Z" fill="#247F9B"/>
<path d="M22.4077 42.145L33.17 35.8906C33.3502 36.1565 33.5351 36.4172 33.7243 36.6724L22.962 42.9267C22.7729 42.6716 22.588 42.4108 22.4077 42.145Z" fill="#247F9B"/>
<path d="M22.9619 42.9267L33.7242 36.6724C33.8546 36.8482 33.9869 37.0214 34.1212 37.1918L23.3589 43.4462C23.2247 43.2758 23.0923 43.1026 22.9619 42.9267Z" fill="#247F9B"/>
<path d="M23.3594 43.4464L34.1217 37.192C34.2431 37.3462 34.3661 37.4981 34.4905 37.6477L23.7282 43.902C23.6039 43.7524 23.4808 43.6006 23.3594 43.4464Z" fill="#247F9B"/>
<path d="M23.7285 43.9019L34.4908 37.6476C34.6119 37.793 34.7343 37.9363 34.8581 38.0772L24.0958 44.3316C23.9721 44.1907 23.8497 44.0474 23.7285 43.9019Z" fill="#247F9B"/>
<path d="M24.0957 44.3316L34.8579 38.0773C34.9824 38.2191 35.1083 38.3585 35.2353 38.4954L24.4731 44.7498C24.3461 44.6128 24.2202 44.4734 24.0957 44.3316Z" fill="#247F9B"/>
<path d="M24.4727 44.7497L35.2349 38.4954C35.3648 38.6354 35.4959 38.7728 35.6281 38.9075L24.8658 45.1619C24.7336 45.0272 24.6025 44.8898 24.4727 44.7497Z" fill="#247F9B"/>
<path d="M24.8662 45.1619L35.6285 38.9076C35.7645 39.0462 35.9017 39.1819 36.0401 39.3147L25.2778 45.569C25.1395 45.4362 25.0023 45.3006 24.8662 45.1619Z" fill="#247F9B"/>
<path d="M25.2773 45.5688L36.0396 39.3145C36.1806 39.4498 36.3228 39.5821 36.4661 39.7111L25.7039 45.9655C25.5606 45.8364 25.4184 45.7041 25.2773 45.5688Z" fill="#247F9B"/>
<path d="M25.7036 45.9655L36.4659 39.7112C36.6089 39.8401 36.753 39.9658 36.898 40.0881L26.1358 46.3425C25.9907 46.2201 25.8466 46.0944 25.7036 45.9655Z" fill="#247F9B"/>
<path d="M26.1367 46.3425L36.899 40.0881C37.0417 40.2085 37.1852 40.3257 37.3295 40.4396L26.5673 46.6939C26.4229 46.5801 26.2794 46.4629 26.1367 46.3425Z" fill="#247F9B"/>
<path d="M26.5669 46.694L37.3291 40.4397C37.4698 40.5507 37.6112 40.6584 37.7532 40.763L26.9909 47.0174C26.8489 46.9128 26.7075 46.805 26.5669 46.694Z" fill="#247F9B"/>
<path d="M26.9907 47.0173L37.753 40.7629C37.8908 40.8644 38.0293 40.9627 38.1682 41.058L27.406 47.3123C27.267 47.2171 27.1286 47.1187 26.9907 47.0173Z" fill="#247F9B"/>
<path d="M27.4058 47.3124L38.168 41.0581C38.3027 41.1504 38.4379 41.2398 38.5734 41.3259L27.8112 47.5803C27.6756 47.494 27.5404 47.4047 27.4058 47.3124Z" fill="#247F9B"/>
<path d="M27.8115 47.5801L38.5738 41.3258C38.7064 41.4102 38.8394 41.4916 38.9727 41.5701L28.2105 47.8244C28.0771 47.746 27.9441 47.6646 27.8115 47.5801Z" fill="#247F9B"/>
<path d="M28.2104 47.8243L38.9727 41.5699C39.0033 41.588 39.0339 41.6058 39.0646 41.6235C39.1658 41.6819 39.2668 41.7384 39.3676 41.793L28.6054 48.0474C28.5046 47.9928 28.4035 47.9362 28.3023 47.8779C28.2717 47.8602 28.2411 47.8423 28.2104 47.8243Z" fill="#247F9B"/>
<path d="M28.605 48.0474L39.3672 41.7931C39.4976 41.8636 39.6276 41.931 39.7571 41.995L28.9949 48.2494C28.8653 48.1853 28.7353 48.118 28.605 48.0474Z" fill="#247F9B"/>
<path d="M28.9951 48.2493L39.7573 41.995C39.8867 42.059 40.0157 42.1197 40.1441 42.1772L29.3819 48.4316C29.2534 48.3741 29.1245 48.3133 28.9951 48.2493Z" fill="#247F9B"/>
<path d="M29.3818 48.4317L40.1441 42.1774C40.2731 42.2351 40.4016 42.2896 40.5297 42.3409L29.7674 48.5953C29.6394 48.544 29.5109 48.4895 29.3818 48.4317Z" fill="#247F9B"/>
<path d="M29.7676 48.595L40.5299 42.3407C40.6593 42.3925 40.7881 42.441 40.9164 42.4862L30.1541 48.7405C30.0259 48.6954 29.897 48.6469 29.7676 48.595Z" fill="#247F9B"/>
<path d="M30.1538 48.7407L40.916 42.4863C41.0466 42.5323 41.1764 42.5748 41.3056 42.6139L30.5433 48.8682C30.4142 48.8291 30.2844 48.7866 30.1538 48.7407Z" fill="#247F9B"/>
<path d="M30.5435 48.8682L41.3057 42.6139C41.4382 42.6539 41.57 42.6903 41.7008 42.7231L30.9386 48.9774C30.8077 48.9447 30.676 48.9083 30.5435 48.8682Z" fill="#247F9B"/>
<path d="M30.9385 48.9774L41.7007 42.723C41.8365 42.7569 41.9712 42.7869 42.105 42.813L31.3427 49.0674C31.209 49.0413 31.0742 49.0113 30.9385 48.9774Z" fill="#247F9B"/>
<path d="M31.3428 49.0675L42.105 42.8131C42.2449 42.8404 42.3837 42.8634 42.5214 42.8819L31.759 49.1362C31.6215 49.1176 31.4827 49.0947 31.3428 49.0675Z" fill="#247F9B"/>
<path d="M31.7588 49.1361L42.5211 42.8817C42.6667 42.9015 42.8111 42.9163 42.9539 42.9263L32.1915 49.1807C32.0488 49.1706 31.9045 49.1558 31.7588 49.1361Z" fill="#247F9B"/>
<path d="M32.1919 49.1807L42.9542 42.9264C43.1075 42.9371 43.2591 42.9422 43.4089 42.9417L32.6466 49.196C32.4969 49.1965 32.3453 49.1914 32.1919 49.1807Z" fill="#247F9B"/>
<path d="M32.647 49.1961L43.4092 42.9419C43.5765 42.9413 43.7415 42.9337 43.9038 42.9191L33.1416 49.1734C32.9792 49.188 32.8142 49.1956 32.647 49.1961Z" fill="#247F9B"/>
<path d="M33.1416 49.1734L43.9038 42.919C44.0903 42.9023 44.2734 42.8762 44.4529 42.8408L33.6906 49.0952C33.5112 49.1306 33.3281 49.1566 33.1416 49.1734Z" fill="#247F9B"/>
<path d="M33.6904 49.0951L44.4527 42.8407C44.683 42.7954 44.9071 42.7346 45.1244 42.6586L34.3622 48.9129C34.1448 48.989 33.9207 49.0497 33.6904 49.0951Z" fill="#247F9B"/>
<path d="M34.3623 48.9129L45.1245 42.6586C45.3904 42.5656 45.6461 42.4494 45.8903 42.3102L35.1281 48.5645C34.8838 48.7038 34.6282 48.8198 34.3623 48.9129Z" fill="#247F9B"/>
<path d="M42.4766 54.331L53.2388 48.0767L55.7087 52.3454L44.9465 58.5997L42.4766 54.331Z" fill="#247F9B"/>
<path d="M17.7041 11.4154L28.4663 5.16101L30.928 9.43437L20.1658 15.6887L17.7041 11.4154Z" fill="#247F9B"/>
<path d="M11.73 14.8295L22.4922 8.57517L28.467 5.16101L17.7047 11.4154L11.73 14.8295Z" fill="#2B97B8"/>
<path d="M44.1473 50.6856L54.9096 44.4313C54.8848 44.5229 54.8593 44.6136 54.833 44.7036L44.0708 50.9579C44.097 50.8679 44.1226 50.7771 44.1473 50.6856Z" fill="#2B97B8"/>
<path d="M44.0708 50.9578L54.833 44.7035C54.7445 45.0066 54.6473 45.301 54.5415 45.5866L43.7793 51.8409C43.8851 51.5554 43.9823 51.2609 44.0708 50.9578Z" fill="#2B97B8"/>
<path d="M43.779 51.841L54.5413 45.5867C54.42 45.9141 54.2873 46.2298 54.1431 46.5336L43.3809 52.7878C43.525 52.4841 43.6577 52.1684 43.779 51.841Z" fill="#2B97B8"/>
<path d="M43.3807 52.7878L54.1429 46.5336C53.9606 46.9179 53.7599 47.2831 53.541 47.6285L42.7788 53.8829C42.9977 53.5374 43.1983 53.1722 43.3807 52.7878Z" fill="#2B97B8"/>
<path d="M42.779 53.8828L53.5412 47.6284C53.444 47.7818 53.3432 47.9313 53.2388 48.0767L42.4766 54.3311C42.5809 54.1856 42.6818 54.0361 42.779 53.8828Z" fill="#2B97B8"/>
<path d="M20.166 15.6886L30.9283 9.43427L30.9317 9.43396L20.1694 15.6883L20.166 15.6886Z" fill="#2B97B8"/>
<path d="M20.1685 15.6884L30.9307 9.43408C31.2032 9.40977 31.4794 9.39715 31.7592 9.39624L20.9969 15.6506C20.7171 15.6515 20.4409 15.6641 20.1685 15.6884Z" fill="#2B97B8"/>
<path d="M20.9976 15.6506L31.7598 9.39629C32.0128 9.39552 32.2689 9.40419 32.5276 9.42243L21.7654 15.6768C21.5065 15.6585 21.2506 15.6499 20.9976 15.6506Z" fill="#2B97B8"/>
<path d="M21.7656 15.6768L32.5279 9.42249C32.7689 9.43944 33.0123 9.46459 33.2581 9.49788L22.4958 15.7522C22.2501 15.7189 22.0066 15.6938 21.7656 15.6768Z" fill="#2B97B8"/>
<path d="M22.4956 15.7523L33.2578 9.49792C33.4915 9.52961 33.7272 9.5686 33.965 9.61497L23.2027 15.8693C22.9649 15.8229 22.7292 15.784 22.4956 15.7523Z" fill="#2B97B8"/>
<path d="M23.2031 15.8692L33.9654 9.61487C34.195 9.65963 34.4266 9.71124 34.6599 9.7696L23.8977 16.024C23.6643 15.9656 23.4328 15.914 23.2031 15.8692Z" fill="#2B97B8"/>
<path d="M23.8979 16.0239L34.6602 9.76953C34.753 9.79279 34.846 9.81703 34.9394 9.84242L24.1772 16.0968C24.0838 16.0714 23.9907 16.0471 23.8979 16.0239Z" fill="#2B97B8"/>
<path d="M42.5298 35.4547L53.292 29.2003C53.2983 29.2164 53.3046 29.2326 53.3109 29.2487L42.5487 35.5031C42.5424 35.4869 42.5361 35.4708 42.5298 35.4547Z" fill="#2B97B8"/>
<path d="M42.5483 35.5029L53.3106 29.2485C53.41 29.5039 53.506 29.7595 53.5987 30.0151L42.8364 36.2694C42.7437 36.0138 42.6478 35.7583 42.5483 35.5029Z" fill="#2B97B8"/>
<path d="M42.8369 36.2696L53.5992 30.0153C53.6966 30.2839 53.7903 30.5526 53.8803 30.8211L43.118 37.0755C43.0281 36.8069 42.9343 36.5383 42.8369 36.2696Z" fill="#2B97B8"/>
<path d="M43.1177 37.0756L53.8799 30.8213C53.9737 31.1014 54.0635 31.3812 54.1491 31.6606L43.3869 37.915C43.3012 37.6355 43.2115 37.3557 43.1177 37.0756Z" fill="#2B97B8"/>
<path d="M43.3867 37.9149L54.149 31.6605C54.2377 31.9499 54.3221 32.2391 54.4021 32.5275L43.6399 38.7818C43.5599 38.4934 43.4755 38.2043 43.3867 37.9149Z" fill="#2B97B8"/>
<path d="M43.6401 38.7818L54.4024 32.5275C54.4843 32.8226 54.5616 33.117 54.6344 33.4107L43.8722 39.665C43.7994 39.3713 43.7221 39.0769 43.6401 38.7818Z" fill="#2B97B8"/>
<path d="M43.8721 39.665L54.6343 33.4106C54.708 33.7078 54.777 34.0041 54.8413 34.2992L44.079 40.5536C44.0147 40.2584 43.9457 39.9621 43.8721 39.665Z" fill="#2B97B8"/>
<path d="M44.0796 40.5537L54.8419 34.2993C54.8747 34.45 54.9064 34.6003 54.9368 34.7504L44.1745 41.0047C44.1441 40.8546 44.1125 40.7043 44.0796 40.5537Z" fill="#2B97B8"/>
<path d="M32.6021 20.961L43.3643 14.7067C43.4326 14.7672 43.5009 14.8281 43.569 14.8894L32.8067 21.1438C32.7386 21.0825 32.6704 21.0215 32.6021 20.961Z" fill="#2B97B8"/>
<path d="M32.8062 21.144L43.5684 14.8896C43.8179 15.1145 44.0657 15.345 44.3117 15.581L33.5494 21.8353C33.3035 21.5993 33.0557 21.3688 32.8062 21.144Z" fill="#2B97B8"/>
<path d="M33.5498 21.8353L44.312 15.5809C44.5498 15.809 44.7856 16.0422 45.0194 16.2804L34.2572 22.5347C34.0234 22.2965 33.7875 22.0634 33.5498 21.8353Z" fill="#2B97B8"/>
<path d="M34.2573 22.5347L45.0196 16.2804C45.2435 16.5086 45.4656 16.7413 45.6856 16.9785L34.9232 23.2329C34.7034 22.9957 34.4813 22.7629 34.2573 22.5347Z" fill="#2B97B8"/>
<path d="M34.9229 23.2329L45.6852 16.9785C45.8962 17.2061 46.1053 17.4378 46.3123 17.6736L35.55 23.9279C35.3431 23.6921 35.1339 23.4605 34.9229 23.2329Z" fill="#2B97B8"/>
<path d="M35.5498 23.9278L46.312 17.6735C46.5139 17.9034 46.7137 18.1371 46.9113 18.3744L36.1491 24.6288C35.9515 24.3913 35.7517 24.1577 35.5498 23.9278Z" fill="#2B97B8"/>
<path d="M36.1494 24.6289L46.9117 18.3745C47.061 18.5539 47.2091 18.7355 47.3558 18.9191L36.5936 25.1735C36.4469 24.9899 36.2988 24.8083 36.1494 24.6289Z" fill="#2B97B8"/>
<path d="M47.6754 43.0262L58.4376 36.7719L58.4102 46.453L47.6479 52.7073L47.6754 43.0262Z" fill="#91C9DB"/>
<path d="M44.1738 41.0045L54.9361 34.7501L58.4377 36.7718L47.6755 43.0261L44.1738 41.0045Z" fill="#247F9B"/>
<path d="M24.188 12.0731L34.9502 5.81873L43.3753 10.6829L32.613 16.9373L24.188 12.0731Z" fill="#91C9DB"/>
<path d="M32.6135 16.9373L43.3758 10.683L43.3643 14.7067L32.6021 20.961L32.6135 16.9373Z" fill="#247F9B"/>
<path d="M39.0718 23.7518L49.834 17.4974L55.778 27.7928L45.0157 34.0471L39.0718 23.7518Z" fill="#91C9DB"/>
<path d="M36.5942 25.1732L47.3565 18.9189L49.8344 17.4974L39.0722 23.7518L36.5942 25.1732Z" fill="#0050F0"/>
<path d="M47.6482 52.7073L44.1466 50.6856C43.7682 52.0849 43.2114 53.3063 42.4761 54.3312L44.946 58.5999L38.9633 62L36.5015 57.736C35.248 57.8445 33.8974 57.71 32.4989 57.3326L32.4875 61.347L24.0623 56.4827L24.0737 52.4684C22.6694 51.2275 21.3307 49.8094 20.0738 48.2514L17.5959 49.6635L11.66 39.3822L14.1379 37.9701C13.419 36.1056 12.8627 34.2416 12.4936 32.4107L9 30.3938L9.02743 20.7127L12.521 22.7297C12.8993 21.3397 13.4643 20.1136 14.1915 19.0934L11.7296 14.8294L17.7043 11.4153L20.166 15.6886C21.4277 15.5755 22.7701 15.7146 24.1769 16.0967L24.1883 12.073L32.6133 16.9372L32.6019 20.9609C33.9981 22.1971 35.345 23.6106 36.5938 25.1732L39.0717 23.7518L45.0157 34.0471L42.5297 35.4545C43.2568 37.3144 43.8048 39.183 44.174 41.0046L47.6756 43.0262L47.6482 52.7073ZM35.1278 48.5644C36.9373 47.5333 37.9608 45.3003 37.9692 42.3688C37.9774 39.4374 36.9699 36.0317 35.1721 32.9179C33.3663 29.79 30.9241 27.2111 28.3649 25.7336C25.8138 24.2607 23.3569 24.0111 21.5474 25.0516C19.7378 26.0828 18.7143 28.3158 18.706 31.2472C18.6977 34.1786 19.7052 37.5843 21.503 40.6981C23.3007 43.8213 25.751 46.4049 28.3021 47.8778C30.8613 49.3553 33.3101 49.6003 35.1278 48.5644Z" fill="#30A6CA"/>
</svg>
