<svg width="68" height="68" viewBox="0 0 68 68" fill="none" xmlns="http://www.w3.org/2000/svg">
<path d="M54.2409 44.0361H53.4529C52.5688 42.2995 50.9412 40.6623 48.5682 39.2923C41.0047 34.9254 28.742 34.9254 21.1787 39.292C18.8056 40.6621 17.178 42.2994 16.2941 44.0361H15.5063V47.1988C15.5065 50.0604 17.3974 52.922 21.1791 55.1053C28.7426 59.4721 41.0053 59.4723 48.5686 55.1057C52.3503 52.9222 54.2411 50.0604 54.2409 47.1988V44.0361Z" fill="#247F9B"/>
<path d="M30.6732 36.285C27.194 36.7293 23.885 37.7295 21.1787 39.2919C18.8056 40.662 17.178 42.2994 16.2941 44.036H15.5063V47.1987C15.5065 50.0604 17.3974 52.922 21.1791 55.1052C23.8854 56.6676 27.1942 57.668 30.6732 58.1124V36.285Z" fill="#5AA3B9"/>
<path d="M48.6211 55.0737C52.3668 52.8941 54.2411 50.0466 54.2409 47.1987V44.036H53.4528C52.6992 42.5556 51.4002 41.1492 49.5648 39.9172H48.6211V55.0737Z" fill="#247F9B"/>
<g opacity="0.4">
<path opacity="0.4" d="M53.2439 43.668C53.0067 43.2554 52.7265 42.8497 52.4038 42.4521V51.9564C52.7276 51.5585 53.0058 51.1518 53.2439 50.7389V43.668Z" fill="white"/>
<path opacity="0.4" d="M21.1788 39.292C20.1281 39.8986 19.2322 40.5598 18.4736 41.2566V53.1446C18.7372 53.3862 19.015 53.6245 19.3137 53.8565V40.9715H20.8973V54.9341C20.9918 54.991 21.0822 55.0493 21.1792 55.1053C21.3618 55.2107 21.5494 55.3112 21.7373 55.4116V40.9715H23.3209V56.1727C23.597 56.2917 23.8767 56.4061 24.1609 56.5154V40.9715H25.7445V57.0615C26.0218 57.1472 26.3018 57.2284 26.5846 57.3059V40.9715H28.1681V57.6885C28.4463 57.7476 28.7264 57.803 29.0081 57.8543V40.9715H30.5917V58.1021C30.8707 58.1384 31.1507 58.1717 31.4318 58.2008V40.9715H33.0153V58.3292C33.2949 58.3446 33.575 58.3554 33.8554 58.3639V40.9715H35.4389V58.3728C35.7192 58.3682 35.9992 58.3597 36.279 58.3481V40.9715H37.8625V58.2452C38.1434 58.2199 38.4235 58.1919 38.7026 58.1595V40.9715H40.2861V57.9359C40.5679 57.8889 40.8477 57.8373 41.1262 57.7825V40.9715H42.7097V57.4244C42.9923 57.3524 43.2723 57.276 43.5498 57.1956V40.9715H45.1333V56.6818C45.4172 56.5793 45.6972 56.4722 45.9735 56.3602V40.9715H47.557V55.6455C47.8425 55.5024 48.123 55.3543 48.397 55.1999V40.9715H49.9805V54.1949C50.277 53.9822 50.5552 53.7638 50.8207 53.5419V40.9715H50.9609C50.2716 40.3792 49.4753 39.816 48.5683 39.2923C46.8039 38.2736 44.7819 37.4957 42.6254 36.9523H27.1211C24.9648 37.4957 22.943 38.2734 21.1788 39.292Z" fill="white"/>
<path opacity="0.4" d="M16.8899 43.0555C16.6671 43.3785 16.4626 43.7047 16.294 44.0361H16.0498V49.8332C16.2653 50.3487 16.546 50.8565 16.8899 51.3534V43.0555Z" fill="white"/>
</g>
<path d="M48.5691 51.9429C41.0058 56.3096 28.7431 56.3094 21.1796 51.9426C13.6161 47.5758 13.6159 40.496 21.1792 36.1293C28.7425 31.7626 41.0052 31.7627 48.5687 36.1296C56.1322 40.4963 56.1324 47.5762 48.5691 51.9429Z" fill="#FDD762"/>
<path opacity="0.2" d="M39.212 45.9467C44.7798 42.7322 46.2432 38.0481 43.6132 34.0576C36.3471 31.9354 27.2496 32.6241 21.1785 36.1292C15.6106 39.3438 14.1472 44.028 16.7773 48.0184C24.0433 50.1407 33.1408 49.4521 39.212 45.9467Z" fill="white"/>
<path opacity="0.7" d="M48.5685 51.943C41.0052 56.3096 28.7425 56.3094 21.179 51.9426C17.5242 49.8325 15.6409 47.0888 15.5181 44.324C15.3869 47.2811 17.2702 50.2624 21.179 52.5191C28.7425 56.886 41.0052 56.886 48.5685 52.5193C52.477 50.2628 54.3602 47.2817 54.229 44.3248C54.1061 47.0895 52.223 49.8329 48.5685 51.943Z" fill="white"/>
<path d="M44.5946 49.6485C39.2259 52.7481 30.5215 52.748 25.1526 49.6483C19.7839 46.5487 19.7837 41.5231 25.1524 38.4235C30.521 35.3239 39.2255 35.324 44.5943 38.4237C49.9631 41.5234 49.9632 46.5489 44.5946 49.6485Z" fill="#E8A200"/>
<path d="M25.1526 39.1484C30.5213 36.0488 39.2257 36.0489 44.5945 39.1486C47.1194 40.6063 48.4561 42.49 48.6062 44.3989C48.7755 42.2485 47.4387 40.0659 44.5945 38.4238C39.2257 35.3241 30.5213 35.324 25.1526 38.4236C22.3087 40.0656 20.9721 42.2479 21.1412 44.3981C21.2915 42.4894 22.6281 40.6059 25.1526 39.1484Z" fill="#F9BF30"/>
<path d="M41.6344 40.288L40.5688 40.5926L40.8715 40.7128L39.831 41.3136C38.9801 40.8979 38.1002 40.6924 37.193 40.6971C36.2846 40.7018 35.4379 40.9307 34.6526 41.3843C34.3376 41.5661 34.082 41.7514 33.8859 41.9406C33.6894 42.129 33.5523 42.3252 33.4747 42.5283C33.3971 42.7313 33.3519 42.9193 33.34 43.0915C33.3272 43.2641 33.3354 43.4672 33.3639 43.7012L33.487 44.6713C33.5238 44.9478 33.5315 45.1744 33.5118 45.3516C33.4913 45.5288 33.4141 45.7126 33.2813 45.9025C33.1488 46.0925 32.9454 46.2666 32.6713 46.4249C32.1802 46.7083 31.7447 46.7403 31.3645 46.5203C31.0741 46.3527 31 46.1438 31.1432 45.8937C31.2869 45.6431 31.6729 45.3315 32.303 44.9582V44.2302L31.3923 44.5719L30.0823 44.0162C29.2799 44.5086 28.7644 44.9733 28.5292 45.4113L28.3795 45.2431V45.957L28.3826 45.9572C28.3871 46.4473 28.761 46.9303 29.5117 47.4059L28.9938 47.7049L28.2905 47.3828V48.1109L28.9221 48.4757L30.1553 47.7638C30.9286 48.1252 31.7601 48.2912 32.6497 48.2614C33.5392 48.2321 34.3237 48.0213 35.0024 47.6291C35.3422 47.4333 35.6201 47.2268 35.8371 47.0094C36.0541 46.792 36.2081 46.5673 36.3 46.3346C36.3919 46.1017 36.4494 45.8801 36.4718 45.6686C36.4942 45.4574 36.4934 45.2215 36.4691 44.962L36.3645 44.0231C36.3483 43.8343 36.3398 43.6973 36.3401 43.6123C36.3398 43.5274 36.3552 43.4085 36.3861 43.2564C36.417 43.1042 36.4873 42.9687 36.5976 42.8506C36.7077 42.7329 36.8594 42.6182 37.0517 42.507C37.252 42.3916 37.4852 42.3171 37.7512 42.2838C38.0169 42.251 38.2501 42.29 38.4504 42.4008C38.5524 42.4553 38.6253 42.5113 38.6682 42.5692C38.6967 42.6076 38.7061 42.6486 38.7067 42.6908L37.6223 42.9164V43.6444L39.8191 44.6219C39.9986 44.5084 40.1592 44.403 40.3001 44.305C40.4414 44.2069 40.5885 44.0888 40.7425 43.9505C40.8958 43.8127 41.0182 43.6803 41.1101 43.554C41.202 43.4278 41.2715 43.2849 41.3189 43.1255C41.3405 43.0518 41.3511 42.9795 41.355 42.908L41.3573 42.9052V42.8941C41.3575 42.8908 41.3573 42.8875 41.3573 42.8842V42.1393L41.0776 42.1975C41.0736 42.1925 41.0717 42.188 41.0676 42.1831C40.9255 42.0117 40.731 41.8449 40.4812 41.682L41.6344 41.016V40.288Z" fill="#F9BF30"/>
<path d="M28.2905 47.383L29.5117 46.6779C28.677 46.149 28.304 45.6113 28.3917 45.0645C28.4797 44.5179 29.043 43.926 30.0823 43.2883L32.303 44.2302C31.6729 44.6036 31.2869 44.9151 31.1432 45.1657C31 45.4159 31.0741 45.6248 31.3645 45.7923C31.7447 46.0124 32.1802 45.9803 32.6713 45.697C32.9454 45.5387 33.1488 45.3645 33.2813 45.1746C33.4141 44.9847 33.4913 44.8009 33.5118 44.6237C33.5315 44.4464 33.5238 44.2198 33.487 43.9434L33.3639 42.9732C33.3354 42.7393 33.3272 42.5362 33.34 42.3636C33.3519 42.1914 33.3971 42.0034 33.4747 41.8003C33.5523 41.5973 33.6894 41.4011 33.8859 41.2127C34.082 41.0235 34.3376 40.8382 34.6526 40.6564C35.4379 40.2027 36.2846 39.9738 37.193 39.9691C38.1002 39.9645 38.9801 40.1699 39.831 40.5857L40.9904 39.9163L41.6344 40.2881L40.4812 40.954C40.731 41.117 40.9255 41.2837 41.0676 41.4552C41.2082 41.6262 41.2977 41.7864 41.3344 41.935C41.3711 42.084 41.3657 42.2381 41.3189 42.3976C41.2715 42.557 41.202 42.6999 41.1101 42.8261C41.0182 42.9524 40.8958 43.0848 40.7425 43.2226C40.5885 43.3608 40.4414 43.479 40.3001 43.577C40.1592 43.6751 39.9986 43.7805 39.8191 43.894L37.6223 42.9164C37.7899 42.8149 37.9269 42.73 38.0335 42.6612C38.1396 42.5929 38.2481 42.5172 38.3586 42.4346C38.469 42.352 38.5489 42.2798 38.5979 42.2184C38.6466 42.1571 38.6817 42.0934 38.7022 42.0273C38.7226 41.9609 38.711 41.8991 38.6682 41.8413C38.6253 41.7833 38.5524 41.7273 38.4504 41.6729C38.2501 41.5621 38.0169 41.5231 37.7512 41.5559C37.4852 41.5891 37.252 41.6636 37.0517 41.7791C36.8594 41.8903 36.7077 42.0049 36.5977 42.1227C36.4873 42.2408 36.417 42.3763 36.3861 42.5284C36.3552 42.6806 36.3398 42.7995 36.3401 42.8844C36.3398 42.9693 36.3483 43.1064 36.3645 43.2952L36.4691 44.2341C36.4934 44.4936 36.4942 44.7294 36.4718 44.9406C36.4494 45.1522 36.3919 45.3738 36.3 45.6066C36.2081 45.8394 36.0541 46.0641 35.8371 46.2814C35.6201 46.4988 35.3422 46.7054 35.0024 46.9011C34.3237 47.2934 33.5392 47.5041 32.6497 47.5335C31.7601 47.5632 30.9286 47.3972 30.1553 47.0359L28.9221 47.7477L28.2905 47.383Z" fill="#FDD762"/>
<path d="M54.2409 40.8707H53.4529C52.5688 39.1342 50.9412 37.497 48.5682 36.127C41.0047 31.7601 28.742 31.7601 21.1787 36.1267C18.8056 37.4968 17.178 39.1341 16.2941 40.8707H15.5063V44.0335C15.5065 46.8951 17.3974 49.7567 21.1791 51.94C28.7426 56.3069 41.0053 56.3071 48.5686 51.9403C52.3503 49.7569 54.2411 46.8951 54.2409 44.0335V40.8707Z" fill="#247F9B"/>
<path d="M30.6732 33.1198C27.194 33.564 23.885 34.5643 21.1787 36.1267C18.8056 37.4968 17.178 39.1341 16.2941 40.8707H15.5063V44.0335C15.5065 46.8951 17.3974 49.7567 21.1791 51.94C23.8854 53.5024 27.1942 54.5027 30.6732 54.9471V33.1198Z" fill="#5AA3B9"/>
<path d="M48.6211 51.9084C52.3668 49.7288 54.2411 46.8814 54.2409 44.0334V40.8707H53.4528C52.6992 39.3904 51.4002 37.9839 49.5648 36.752H48.6211V51.9084Z" fill="#247F9B"/>
<g opacity="0.4">
<path opacity="0.4" d="M53.2439 40.5027C53.0067 40.0901 52.7265 39.6844 52.4038 39.2869V48.7911C52.7276 48.3933 53.0058 47.9866 53.2439 47.5736V40.5027Z" fill="white"/>
<path opacity="0.4" d="M21.1788 36.1267C20.1281 36.7333 19.2322 37.3945 18.4736 38.0913V49.9793C18.7372 50.221 19.015 50.4592 19.3137 50.6912V37.8062H20.8973V51.7687C20.9918 51.8257 21.0822 51.884 21.1792 51.94C21.3618 52.0453 21.5494 52.1459 21.7373 52.2463V37.8062H23.3209V53.0075C23.597 53.1264 23.8767 53.2408 24.1609 53.3501V37.8062H25.7445V53.8962C26.0218 53.9819 26.3018 54.0632 26.5846 54.1406V37.8062H28.1681V54.5232C28.4463 54.5823 28.7264 54.6376 29.0081 54.689V37.8062H30.5917V54.9368C30.8707 54.9732 31.1507 55.0063 31.4318 55.0355V37.8062H33.0153V55.1639C33.2949 55.1793 33.575 55.1901 33.8554 55.1986V37.8062H35.4389V55.2075C35.7192 55.2029 35.9992 55.1944 36.279 55.1828V37.8062H37.8625V55.0799C38.1434 55.0546 38.4235 55.0266 38.7026 54.9942V37.8062H40.2861V54.7707C40.5679 54.7235 40.8477 54.672 41.1262 54.6172V37.8062H42.7097V54.2591C42.9923 54.1871 43.2723 54.1106 43.5498 54.0303V37.8062H45.1333V53.5165C45.4172 53.414 45.6972 53.3068 45.9735 53.1949V37.8062H47.557V52.4803C47.8425 52.337 48.123 52.189 48.397 52.0346V37.8062H49.9805V51.0296C50.277 50.8169 50.5552 50.5985 50.8207 50.3765V37.8062H50.9609C50.2716 37.2139 49.4753 36.6507 48.5683 36.127C46.8039 35.1083 44.7819 34.3304 42.6254 33.787H27.1211C24.9648 34.3304 22.943 35.1081 21.1788 36.1267Z" fill="white"/>
<path opacity="0.4" d="M16.8899 39.8901C16.6671 40.2131 16.4626 40.5393 16.294 40.8707H16.0498V46.6678C16.2653 47.1833 16.546 47.6911 16.8899 48.188V39.8901Z" fill="white"/>
</g>
<path d="M48.5691 48.7776C41.0058 53.1442 28.7431 53.1441 21.1796 48.7774C13.6161 44.4105 13.6159 37.3307 21.1792 32.964C28.7425 28.5974 41.0052 28.5975 48.5687 32.9642C56.1322 37.331 56.1324 44.4109 48.5691 48.7776Z" fill="#FDD762"/>
<path opacity="0.2" d="M39.212 42.7815C44.7798 39.5669 46.2432 34.8828 43.6132 30.8923C36.3471 28.7701 27.2496 29.4587 21.1785 32.9639C15.6106 36.1786 14.1472 40.8627 16.7773 44.8531C24.0433 46.9754 33.1408 46.2868 39.212 42.7815Z" fill="white"/>
<path opacity="0.7" d="M48.5685 48.7776C41.0052 53.1443 28.7425 53.1441 21.179 48.7773C17.5242 46.6672 15.6409 43.9236 15.5181 41.1587C15.3869 44.1158 17.2702 47.0971 21.179 49.3539C28.7425 53.7207 41.0052 53.7207 48.5685 49.3541C52.477 47.0974 54.3602 44.1164 54.229 41.1596C54.1061 43.9242 52.223 46.6676 48.5685 48.7776Z" fill="white"/>
<path d="M44.5946 46.4832C39.2259 49.5828 30.5215 49.5827 25.1526 46.483C19.7839 43.3833 19.7837 38.3579 25.1524 35.2582C30.521 32.1587 39.2255 32.1587 44.5943 35.2584C49.9631 38.3581 49.9632 43.3836 44.5946 46.4832Z" fill="#E8A200"/>
<path d="M25.1526 35.9831C30.5213 32.8835 39.2257 32.8836 44.5945 35.9833C47.1194 37.441 48.4561 39.3247 48.6062 41.2336C48.7755 39.0831 47.4387 36.9006 44.5945 35.2585C39.2257 32.1589 30.5213 32.1588 25.1526 35.2583C22.3087 36.9003 20.9721 39.0826 21.1412 41.2328C21.2915 39.3241 22.6281 37.4406 25.1526 35.9831Z" fill="#F9BF30"/>
<path d="M41.6344 37.1227L40.5688 37.4273L40.8715 37.5476L39.831 38.1484C38.9801 37.7326 38.1002 37.5272 37.193 37.5319C36.2846 37.5365 35.4379 37.7654 34.6526 38.219C34.3376 38.4009 34.082 38.5862 33.8859 38.7754C33.6894 38.9638 33.5523 39.1599 33.4747 39.363C33.3971 39.5661 33.3519 39.7541 33.34 39.9263C33.3272 40.0988 33.3354 40.3019 33.3639 40.5359L33.487 41.5061C33.5238 41.7825 33.5315 42.0092 33.5118 42.1863C33.4913 42.3635 33.4141 42.5473 33.2813 42.7373C33.1488 42.9272 32.9454 43.1013 32.6713 43.2596C32.1802 43.543 31.7447 43.5751 31.3645 43.355C31.0741 43.1874 31 42.9786 31.1432 42.7284C31.2869 42.4778 31.6729 42.1663 32.303 41.7929V41.0649L31.3923 41.4067L30.0823 40.8509C29.2799 41.3434 28.7644 41.808 28.5292 42.246L28.3795 42.0779V42.7917L28.3826 42.7919C28.3871 43.282 28.761 43.765 29.5117 44.2407L28.9938 44.5397L28.2905 44.2176V44.9456L28.9221 45.3105L30.1553 44.5985C30.9286 44.9599 31.7601 45.1259 32.6497 45.0962C33.5392 45.0668 34.3237 44.856 35.0024 44.4638C35.3422 44.2681 35.6201 44.0615 35.8371 43.8442C36.0541 43.6268 36.2081 43.4021 36.3 43.1693C36.3919 42.9365 36.4494 42.7149 36.4718 42.5033C36.4942 42.2922 36.4934 42.0562 36.4691 41.7968L36.3645 40.8579C36.3483 40.6691 36.3398 40.532 36.3401 40.4471C36.3398 40.3621 36.3552 40.2432 36.3861 40.0911C36.417 39.939 36.4873 39.8035 36.5976 39.6853C36.7077 39.5676 36.8594 39.453 37.0517 39.3417C37.252 39.2263 37.4852 39.1518 37.7512 39.1186C38.0169 39.0858 38.2501 39.1248 38.4504 39.2356C38.5524 39.29 38.6253 39.346 38.6682 39.4039C38.6967 39.4424 38.7061 39.4834 38.7067 39.5255L37.6223 39.7511V40.4792L39.8191 41.4567C39.9986 41.3432 40.1592 41.2378 40.3001 41.1397C40.4414 41.0416 40.5885 40.9235 40.7425 40.7853C40.8958 40.6475 41.0182 40.515 41.1101 40.3888C41.202 40.2625 41.2715 40.1197 41.3189 39.9602C41.3405 39.8865 41.3511 39.8142 41.355 39.7427L41.3573 39.74V39.7288C41.3575 39.7255 41.3573 39.7223 41.3573 39.719V38.974L41.0776 39.0322C41.0736 39.0273 41.0717 39.0228 41.0676 39.0178C40.9255 38.8464 40.731 38.6796 40.4812 38.5167L41.6344 37.8508V37.1227Z" fill="#F9BF30"/>
<path d="M28.2905 44.2176L29.5117 43.5127C28.677 42.9837 28.304 42.4459 28.3917 41.8993C28.4797 41.3526 29.043 40.7607 30.0823 40.1229L32.303 41.065C31.6729 41.4383 31.2869 41.7499 31.1432 42.0004C31 42.2506 31.0741 42.4595 31.3645 42.627C31.7447 42.8471 32.1802 42.815 32.6713 42.5316C32.9454 42.3734 33.1488 42.1992 33.2813 42.0093C33.4141 41.8193 33.4913 41.6356 33.5118 41.4584C33.5315 41.2812 33.5238 41.0545 33.487 40.7781L33.3639 39.8079C33.3354 39.5739 33.3272 39.3709 33.34 39.1983C33.3519 39.0261 33.3971 38.8381 33.4747 38.635C33.5523 38.4319 33.6894 38.2358 33.8859 38.0474C34.082 37.8582 34.3376 37.6729 34.6526 37.4911C35.4379 37.0375 36.2846 36.8085 37.193 36.8039C38.1002 36.7992 38.9801 37.0046 39.831 37.4204L40.9904 36.751L41.6344 37.1228L40.4812 37.7887C40.731 37.9516 40.9255 38.1184 41.0676 38.2898C41.2082 38.4609 41.2977 38.6211 41.3344 38.7698C41.3711 38.9188 41.3657 39.0728 41.3189 39.2322C41.2715 39.3917 41.202 39.5345 41.1101 39.6608C41.0182 39.787 40.8958 39.9195 40.7425 40.0573C40.5885 40.1955 40.4414 40.3136 40.3001 40.4117C40.1592 40.5098 39.9986 40.6152 39.8191 40.7287L37.6223 39.7511C37.7899 39.6496 37.9269 39.5647 38.0335 39.496C38.1396 39.4276 38.2481 39.352 38.3586 39.2693C38.469 39.1867 38.5489 39.1145 38.5979 39.0531C38.6466 38.9917 38.6817 38.928 38.7022 38.862C38.7226 38.7956 38.711 38.7339 38.6682 38.6759C38.6253 38.618 38.5524 38.5621 38.4504 38.5076C38.2501 38.3968 38.0169 38.3578 37.7512 38.3906C37.4852 38.4238 37.252 38.4984 37.0517 38.6138C36.8594 38.725 36.7077 38.8396 36.5977 38.9574C36.4873 39.0755 36.417 39.211 36.3861 39.3631C36.3552 39.5153 36.3398 39.6341 36.3401 39.7191C36.3398 39.804 36.3483 39.9411 36.3645 40.1299L36.4691 41.0688C36.4934 41.3282 36.4942 41.5641 36.4718 41.7753C36.4494 41.9869 36.3919 42.2085 36.3 42.4413C36.2081 42.6741 36.0541 42.8988 35.8371 43.1162C35.6201 43.3335 35.3422 43.5401 35.0024 43.7358C34.3237 44.1281 33.5392 44.3389 32.6497 44.3682C31.7601 44.3979 30.9286 44.2319 30.1553 43.8706L28.9221 44.5825L28.2905 44.2176Z" fill="#FDD762"/>
<path d="M54.2409 37.7055H53.4529C52.5688 35.969 50.9412 34.3317 48.5682 32.9617C41.0047 28.5948 28.742 28.5948 21.1787 32.9615C18.8056 34.3315 17.178 35.9689 16.2941 37.7055H15.5063V40.8682C15.5065 43.7299 17.3974 46.5915 21.1791 48.7747C28.7426 53.1416 41.0053 53.1418 48.5686 48.7751C52.3503 46.5916 54.2411 43.7299 54.2409 40.8682V37.7055Z" fill="#247F9B"/>
<path d="M30.6732 29.9545C27.194 30.3987 23.885 31.3989 21.1787 32.9614C18.8056 34.3314 17.178 35.9688 16.2941 37.7055H15.5063V40.8682C15.5065 43.7299 17.3974 46.5914 21.1791 48.7746C23.8854 50.3371 27.1942 51.3374 30.6732 51.7818V29.9545Z" fill="#5AA3B9"/>
<path d="M48.6211 48.7432C52.3668 46.5637 54.2411 43.7162 54.2409 40.8682V37.7055H53.4528C52.6992 36.2252 51.4002 34.8187 49.5648 33.5868H48.6211V48.7432Z" fill="#247F9B"/>
<g opacity="0.4">
<path opacity="0.4" d="M53.2439 37.3375C53.0067 36.9249 52.7265 36.5193 52.4038 36.1217V45.6259C52.7276 45.2281 53.0058 44.8214 53.2439 44.4085V37.3375Z" fill="white"/>
<path opacity="0.4" d="M21.1788 32.9615C20.1281 33.568 19.2322 34.2293 18.4736 34.9261V46.814C18.7372 47.0557 19.015 47.2939 19.3137 47.5259V34.6409H20.8973V48.6035C20.9918 48.6604 21.0822 48.7187 21.1792 48.7747C21.3618 48.8801 21.5494 48.9807 21.7373 49.081V34.6409H23.3209V49.8422C23.597 49.9611 23.8767 50.0756 24.1609 50.1848V34.6409H25.7445V50.7309C26.0218 50.8166 26.3018 50.8979 26.5846 50.9753V34.6409H28.1681V51.3579C28.4463 51.417 28.7264 51.4724 29.0081 51.5237V34.6409H30.5917V51.7716C30.8707 51.8079 31.1507 51.8411 31.4318 51.8703V34.6409H33.0153V51.9986C33.2949 52.0141 33.575 52.0249 33.8554 52.0334V34.6409H35.4389V52.0422C35.7192 52.0376 35.9992 52.0291 36.279 52.0175V34.6409H37.8625V51.9147C38.1434 51.8894 38.4235 51.8614 38.7026 51.829V34.6409H40.2861V51.6054C40.5679 51.5583 40.8477 51.5067 41.1262 51.4519V34.6409H42.7097V51.0939C42.9923 51.0219 43.2723 50.9454 43.5498 50.8651V34.6409H45.1333V50.3512C45.4172 50.2487 45.6972 50.1416 45.9735 50.0297V34.6409H47.557V49.315C47.8425 49.1718 48.123 49.0237 48.397 48.8693V34.6409H49.9805V47.8643C50.277 47.6516 50.5552 47.4333 50.8207 47.2113V34.6409H50.9609C50.2716 34.0486 49.4753 33.4854 48.5683 32.9617C46.8039 31.9431 44.7819 31.1651 42.6254 30.6217H27.1211C24.9648 31.1651 22.943 31.9429 21.1788 32.9615Z" fill="white"/>
<path opacity="0.4" d="M16.8899 36.725C16.6671 37.0479 16.4626 37.3741 16.294 37.7055H16.0498V43.5027C16.2653 44.0181 16.546 44.526 16.8899 45.0228V36.725Z" fill="white"/>
</g>
<path d="M48.5691 45.6123C41.0058 49.979 28.7431 49.9789 21.1796 45.6121C13.6161 41.2453 13.6159 34.1654 21.1792 29.7987C28.7425 25.4321 41.0052 25.4322 48.5687 29.799C56.1322 34.1658 56.1324 41.2457 48.5691 45.6123Z" fill="#FDD762"/>
<path opacity="0.2" d="M39.212 39.6163C44.7798 36.4018 46.2432 31.7177 43.6132 27.7272C36.3471 25.6049 27.2496 26.2936 21.1785 29.7988C15.6106 33.0134 14.1472 37.6976 16.7773 41.688C24.0433 43.8102 33.1408 43.1217 39.212 39.6163Z" fill="white"/>
<path opacity="0.7" d="M48.5685 45.6124C41.0052 49.9791 28.7425 49.9789 21.179 45.612C17.5242 43.5019 15.6409 40.7583 15.5181 37.9934C15.3869 40.9505 17.2702 43.9318 21.179 46.1886C28.7425 50.5555 41.0052 50.5555 48.5685 46.1888C52.477 43.9322 54.3602 40.9512 54.229 37.9943C54.1061 40.759 52.223 43.5023 48.5685 45.6124Z" fill="white"/>
<path d="M44.5946 43.318C39.2259 46.4176 30.5215 46.4175 25.1526 43.3178C19.7839 40.2182 19.7837 35.1927 25.1524 32.0931C30.521 28.9935 39.2255 28.9936 44.5943 32.0932C49.9631 35.1929 49.9632 40.2184 44.5946 43.318Z" fill="#E8A200"/>
<path d="M25.1526 32.8178C30.5213 29.7183 39.2257 29.7184 44.5945 32.818C47.1194 34.2757 48.4561 36.1594 48.6062 38.0683C48.7755 35.9179 47.4387 33.7353 44.5945 32.0933C39.2257 28.9936 30.5213 28.9935 25.1526 32.0931C22.3087 33.735 20.9721 35.9173 21.1412 38.0675C21.2915 36.1588 22.6281 34.2753 25.1526 32.8178Z" fill="#F9BF30"/>
<path d="M41.6344 33.9575L40.5688 34.2621L40.8715 34.3824L39.831 34.9832C38.9801 34.5674 38.1002 34.3621 37.193 34.3667C36.2846 34.3713 35.4379 34.6002 34.6526 35.0539C34.3376 35.2357 34.082 35.421 33.8859 35.6102C33.6894 35.7986 33.5523 35.9948 33.4747 36.1978C33.3971 36.4009 33.3519 36.5889 33.34 36.7611C33.3272 36.9337 33.3354 37.1367 33.3639 37.3707L33.487 38.3409C33.5238 38.6173 33.5315 38.8439 33.5118 39.0212C33.4913 39.1984 33.4141 39.3822 33.2813 39.5721C33.1488 39.762 32.9454 39.9362 32.6713 40.0945C32.1802 40.3778 31.7447 40.4099 31.3645 40.1898C31.0741 40.0223 31 39.8134 31.1432 39.5632C31.2869 39.3126 31.6729 39.0011 32.303 38.6277V37.8997L31.3923 38.2415L30.0823 37.6858C29.2799 38.1782 28.7644 38.6428 28.5292 39.0808L28.3795 38.9127V39.6265L28.3826 39.6267C28.3871 40.1169 28.761 40.5998 29.5117 41.0754L28.9938 41.3745L28.2905 41.0524V41.7804L28.9221 42.1453L30.1553 41.4334C30.9286 41.7947 31.7601 41.9607 32.6497 41.931C33.5392 41.9017 34.3237 41.6909 35.0024 41.2986C35.3422 41.1029 35.6201 40.8963 35.8371 40.6789C36.0541 40.4616 36.2081 40.2369 36.3 40.0041C36.3919 39.7713 36.4494 39.5497 36.4718 39.3381C36.4942 39.1269 36.4934 38.8911 36.4691 38.6316L36.3645 37.6927C36.3483 37.5039 36.3398 37.3668 36.3401 37.2819C36.3398 37.197 36.3552 37.0781 36.3861 36.9259C36.417 36.7738 36.4873 36.6383 36.5976 36.5202C36.7077 36.4024 36.8594 36.2878 37.0517 36.1766C37.252 36.0611 37.4852 35.9866 37.7512 35.9534C38.0169 35.9206 38.2501 35.9596 38.4504 36.0704C38.5524 36.1249 38.6253 36.1808 38.6682 36.2387C38.6967 36.2771 38.7061 36.3182 38.7067 36.3604L37.6223 36.5859V37.3139L39.8191 38.2915C39.9986 38.178 40.1592 38.0726 40.3001 37.9745C40.4414 37.8765 40.5885 37.7583 40.7425 37.6201C40.8958 37.4823 41.0182 37.3498 41.1101 37.2236C41.202 37.0974 41.2715 36.9545 41.3189 36.7951C41.3405 36.7213 41.3511 36.649 41.355 36.5775L41.3573 36.5748V36.5636C41.3575 36.5603 41.3573 36.557 41.3573 36.5538V35.8088L41.0776 35.867C41.0736 35.8621 41.0717 35.8576 41.0676 35.8527C40.9255 35.6812 40.731 35.5145 40.4812 35.3515L41.6344 34.6855V33.9575Z" fill="#F9BF30"/>
<path d="M28.2905 41.0524L29.5117 40.3474C28.677 39.8185 28.304 39.2807 28.3917 38.734C28.4797 38.1873 29.043 37.5955 30.0823 36.9577L32.303 37.8997C31.6729 38.273 31.2869 38.5846 31.1432 38.8351C31 39.0853 31.0741 39.2942 31.3645 39.4617C31.7447 39.6818 32.1802 39.6498 32.6713 39.3664C32.9454 39.2081 33.1488 39.034 33.2813 38.844C33.4141 38.6541 33.4913 38.4703 33.5118 38.2931C33.5315 38.1159 33.5238 37.8893 33.487 37.6128L33.3639 36.6426C33.3354 36.4087 33.3272 36.2056 33.34 36.033C33.3519 35.8609 33.3971 35.6728 33.4747 35.4697C33.5523 35.2667 33.6894 35.0706 33.8859 34.8822C34.082 34.693 34.3376 34.5077 34.6526 34.3258C35.4379 33.8722 36.2846 33.6432 37.193 33.6386C38.1002 33.634 38.9801 33.8394 39.831 34.2552L40.9904 33.5857L41.6344 33.9575L40.4812 34.6235C40.731 34.7864 40.9255 34.9532 41.0676 35.1246C41.2082 35.2957 41.2977 35.4559 41.3344 35.6045C41.3711 35.7535 41.3657 35.9075 41.3189 36.067C41.2715 36.2265 41.202 36.3693 41.1101 36.4956C41.0182 36.6218 40.8958 36.7542 40.7425 36.8921C40.5885 37.0303 40.4414 37.1484 40.3001 37.2465C40.1592 37.3445 39.9986 37.4499 39.8191 37.5634L37.6223 36.5859C37.7899 36.4843 37.9269 36.3994 38.0335 36.3307C38.1396 36.2624 38.2481 36.1867 38.3586 36.1041C38.469 36.0214 38.5489 35.9492 38.5979 35.8879C38.6466 35.8265 38.6817 35.7628 38.7022 35.6968C38.7226 35.6304 38.711 35.5686 38.6682 35.5107C38.6253 35.4527 38.5524 35.3968 38.4504 35.3424C38.2501 35.2315 38.0169 35.1926 37.7512 35.2254C37.4852 35.2586 37.252 35.3331 37.0517 35.4485C36.8594 35.5597 36.7077 35.6744 36.5977 35.7921C36.4873 35.9103 36.417 36.0458 36.3861 36.1979C36.3552 36.35 36.3398 36.4689 36.3401 36.5539C36.3398 36.6388 36.3483 36.7758 36.3645 36.9646L36.4691 37.9036C36.4934 38.163 36.4942 38.3989 36.4718 38.6101C36.4494 38.8216 36.3919 39.0433 36.3 39.276C36.2081 39.5089 36.0541 39.7336 35.8371 39.9509C35.6201 40.1683 35.3422 40.3748 35.0024 40.5705C34.3237 40.9628 33.5392 41.1736 32.6497 41.203C31.7601 41.2327 30.9286 41.0666 30.1553 40.7053L28.9221 41.4172L28.2905 41.0524Z" fill="#FDD762"/>
<path d="M54.2409 34.5402H53.4529C52.5688 32.8037 50.9412 31.1664 48.5682 29.7964C41.0047 25.4296 28.742 25.4296 21.1787 29.7961C18.8056 31.1662 17.178 32.8036 16.2941 34.5402H15.5063V37.7029C15.5065 40.5646 17.3974 43.4262 21.1791 45.6094C28.7426 49.9763 41.0053 49.9765 48.5686 45.6098C52.3503 43.4264 54.2411 40.5646 54.2409 37.7029V34.5402Z" fill="#247F9B"/>
<path d="M30.6732 26.7892C27.194 27.2335 23.885 28.2337 21.1787 29.7961C18.8056 31.1662 17.178 32.8036 16.2941 34.5402H15.5063V37.7029C15.5065 40.5646 17.3974 43.4262 21.1791 45.6094C23.8854 47.1718 27.1942 48.1722 30.6732 48.6166V26.7892Z" fill="#5AA3B9"/>
<path d="M48.6211 45.5779C52.3668 43.3983 54.2411 40.5508 54.2409 37.7028V34.5402H53.4528C52.6992 33.0598 51.4002 31.6533 49.5648 30.4214H48.6211V45.5779Z" fill="#247F9B"/>
<g opacity="0.4">
<path opacity="0.4" d="M53.2439 34.1723C53.0067 33.7596 52.7265 33.354 52.4038 32.9564V42.4607C52.7276 42.0628 53.0058 41.6561 53.2439 41.2432V34.1723Z" fill="white"/>
<path opacity="0.4" d="M21.1788 29.7961C20.1281 30.4027 19.2322 31.064 18.4736 31.7607V43.6487C18.7372 43.8904 19.015 44.1286 19.3137 44.3607V31.4756H20.8973V45.4382C20.9918 45.4951 21.0822 45.5534 21.1792 45.6094C21.3618 45.7148 21.5494 45.8154 21.7373 45.9157V31.4756H23.3209V46.6769C23.597 46.7958 23.8767 46.9103 24.1609 47.0195V31.4756H25.7445V47.5656C26.0218 47.6513 26.3018 47.7326 26.5846 47.81V31.4756H28.1681V48.1926C28.4463 48.2517 28.7264 48.3071 29.0081 48.3584V31.4756H30.5917V48.6063C30.8707 48.6426 31.1507 48.6758 31.4318 48.7049V31.4756H33.0153V48.8333C33.2949 48.8488 33.575 48.8595 33.8554 48.868V31.4756H35.4389V48.8769C35.7192 48.8723 35.9992 48.8638 36.279 48.8522V31.4756H37.8625V48.7493C38.1434 48.724 38.4235 48.6961 38.7026 48.6636V31.4756H40.2861V48.4401C40.5679 48.393 40.8477 48.3414 41.1262 48.2866V31.4756H42.7097V47.9286C42.9923 47.8565 43.2723 47.7801 43.5498 47.6998V31.4756H45.1333V47.1859C45.4172 47.0834 45.6972 46.9763 45.9735 46.8643V31.4756H47.557V46.1497C47.8425 46.0065 48.123 45.8584 48.397 45.704V31.4756H49.9805V44.6991C50.277 44.4863 50.5552 44.268 50.8207 44.046V31.4756H50.9609C50.2716 30.8833 49.4753 30.3201 48.5683 29.7964C46.8039 28.7778 44.7819 27.9998 42.6254 27.4564H27.1211C24.9648 27.9998 22.943 28.7776 21.1788 29.7961Z" fill="white"/>
<path opacity="0.4" d="M16.8899 33.5597C16.6671 33.8827 16.4626 34.2089 16.294 34.5403H16.0498V40.3374C16.2653 40.8528 16.546 41.3607 16.8899 41.8576V33.5597Z" fill="white"/>
</g>
<path d="M48.5691 42.447C41.0058 46.8137 28.7431 46.8136 21.1796 42.4468C13.6161 38.08 13.6159 31.0001 21.1792 26.6335C28.7425 22.2668 41.0052 22.2669 48.5687 26.6337C56.1322 31.0005 56.1324 38.0803 48.5691 42.447Z" fill="#FDD762"/>
<path opacity="0.2" d="M39.212 36.4509C44.7798 33.2364 46.2432 28.5522 43.6132 24.5618C36.3471 22.4395 27.2496 23.1282 21.1785 26.6333C15.6106 29.848 14.1472 34.5321 16.7773 38.5226C24.0433 40.6449 33.1408 39.9563 39.212 36.4509Z" fill="white"/>
<path opacity="0.7" d="M48.5685 42.4471C41.0052 46.8138 28.7425 46.8136 21.179 42.4467C17.5242 40.3366 15.6409 37.593 15.5181 34.8281C15.3869 37.7853 17.2702 40.7665 21.179 43.0233C28.7425 47.3902 41.0052 47.3902 48.5685 43.0235C52.477 40.7669 54.3602 37.7858 54.229 34.829C54.1061 37.5937 52.223 40.337 48.5685 42.4471Z" fill="white"/>
<path d="M44.5946 40.1527C39.2259 43.2523 30.5215 43.2523 25.1526 40.1526C19.7839 37.0529 19.7837 32.0274 25.1524 28.9278C30.521 25.8282 39.2255 25.8283 44.5943 28.928C49.9631 32.0277 49.9632 37.0532 44.5946 40.1527Z" fill="#E8A200"/>
<path d="M25.1526 29.6525C30.5213 26.5529 39.2257 26.553 44.5945 29.6528C47.1194 31.1105 48.4561 32.9941 48.6062 34.903C48.7755 32.7526 47.4387 30.57 44.5945 28.928C39.2257 25.8283 30.5213 25.8282 25.1526 28.9278C22.3087 30.5698 20.9721 32.752 21.1412 34.9023C21.2915 32.9935 22.6281 31.1101 25.1526 29.6525Z" fill="#F9BF30"/>
<path d="M41.6344 30.7922L40.5688 31.0968L40.8715 31.2171L39.831 31.8179C38.9801 31.4021 38.1002 31.1967 37.193 31.2014C36.2846 31.206 35.4379 31.435 34.6526 31.8886C34.3376 32.0704 34.082 32.2557 33.8859 32.4449C33.6894 32.6333 33.5523 32.8294 33.4747 33.0325C33.3971 33.2356 33.3519 33.4236 33.34 33.5958C33.3272 33.7684 33.3354 33.9714 33.3639 34.2054L33.487 35.1756C33.5238 35.4521 33.5315 35.6787 33.5118 35.8559C33.4913 36.0331 33.4141 36.2168 33.2813 36.4068C33.1488 36.5968 32.9454 36.7709 32.6713 36.9291C32.1802 37.2125 31.7447 37.2446 31.3645 37.0245C31.0741 36.8569 31 36.6481 31.1432 36.3979C31.2869 36.1474 31.6729 35.8358 32.303 35.4625V34.7344L31.3923 35.0762L30.0823 34.5204C29.2799 35.0129 28.7644 35.4775 28.5292 35.9155L28.3795 35.7474V36.4612L28.3826 36.4614C28.3871 36.9515 28.761 37.4345 29.5117 37.9102L28.9938 38.2092L28.2905 37.8871V38.6151L28.9221 38.98L30.1553 38.268C30.9286 38.6294 31.7601 38.7954 32.6497 38.7657C33.5392 38.7364 34.3237 38.5256 35.0024 38.1333C35.3422 37.9376 35.6201 37.731 35.8371 37.5137C36.0541 37.2963 36.2081 37.0716 36.3 36.8388C36.3919 36.606 36.4494 36.3844 36.4718 36.1728C36.4942 35.9617 36.4934 35.7257 36.4691 35.4663L36.3645 34.5274C36.3483 34.3386 36.3398 34.2015 36.3401 34.1166C36.3398 34.0317 36.3552 33.9127 36.3861 33.7607C36.417 33.6085 36.4873 33.473 36.5976 33.3549C36.7077 33.2371 36.8594 33.1225 37.0517 33.0113C37.252 32.8959 37.4852 32.8213 37.7512 32.7881C38.0169 32.7553 38.2501 32.7943 38.4504 32.9051C38.5524 32.9596 38.6253 33.0155 38.6682 33.0734C38.6967 33.1119 38.7061 33.1529 38.7067 33.195L37.6223 33.4206V34.1487L39.8191 35.1262C39.9986 35.0127 40.1592 34.9073 40.3001 34.8092C40.4414 34.7111 40.5885 34.593 40.7425 34.4548C40.8958 34.317 41.0182 34.1846 41.1101 34.0583C41.202 33.9321 41.2715 33.7892 41.3189 33.6297C41.3405 33.556 41.3511 33.4837 41.355 33.4122L41.3573 33.4095V33.3983C41.3575 33.395 41.3573 33.3918 41.3573 33.3885V32.6436L41.0776 32.7018C41.0736 32.6968 41.0717 32.6923 41.0676 32.6873C40.9255 32.5159 40.731 32.3492 40.4812 32.1862L41.6344 31.5203V30.7922Z" fill="#F9BF30"/>
<path d="M28.2905 37.887L29.5117 37.1821C28.677 36.6532 28.304 36.1154 28.3917 35.5687C28.4797 35.022 29.043 34.4302 30.0823 33.7924L32.303 34.7344C31.6729 35.1077 31.2869 35.4193 31.1432 35.6699C31 35.92 31.0741 36.1289 31.3645 36.2965C31.7447 36.5165 32.1802 36.4844 32.6713 36.2011C32.9454 36.0428 33.1488 35.8687 33.2813 35.6787C33.4141 35.4888 33.4913 35.305 33.5118 35.1278C33.5315 34.9506 33.5238 34.724 33.487 34.4476L33.3639 33.4774C33.3354 33.2434 33.3272 33.0403 33.34 32.8677C33.3519 32.6955 33.3971 32.5075 33.4747 32.3045C33.5523 32.1014 33.6894 31.9053 33.8859 31.7168C34.082 31.5277 34.3376 31.3423 34.6526 31.1605C35.4379 30.7069 36.2846 30.4779 37.193 30.4733C38.1002 30.4687 38.9801 30.6741 39.831 31.0899L40.9904 30.4204L41.6344 30.7922L40.4812 31.4582C40.731 31.6211 40.9255 31.7879 41.0676 31.9593C41.2082 32.1303 41.2977 32.2905 41.3344 32.4392C41.3711 32.5882 41.3657 32.7423 41.3189 32.9017C41.2715 33.0611 41.202 33.204 41.1101 33.3302C41.0182 33.4565 40.8958 33.5889 40.7425 33.7268C40.5885 33.865 40.4414 33.9831 40.3001 34.0812C40.1592 34.1792 39.9986 34.2846 39.8191 34.3981L37.6223 33.4206C37.7899 33.3191 37.9269 33.2341 38.0335 33.1654C38.1396 33.097 38.2481 33.0214 38.3586 32.9388C38.469 32.8562 38.5489 32.784 38.5979 32.7226C38.6466 32.6612 38.6817 32.5975 38.7022 32.5315C38.7226 32.4651 38.711 32.4033 38.6682 32.3454C38.6253 32.2875 38.5524 32.2315 38.4504 32.177C38.2501 32.0663 38.0169 32.0272 37.7512 32.0601C37.4852 32.0933 37.252 32.1678 37.0517 32.2832C36.8594 32.3944 36.7077 32.5091 36.5977 32.6268C36.4873 32.745 36.417 32.8805 36.3861 33.0326C36.3552 33.1847 36.3398 33.3036 36.3401 33.3885C36.3398 33.4735 36.3483 33.6105 36.3645 33.7993L36.4691 34.7382C36.4934 34.9977 36.4942 35.2336 36.4718 35.4448C36.4494 35.6563 36.3919 35.8779 36.3 36.1108C36.2081 36.3435 36.0541 36.5682 35.8371 36.7856C35.6201 37.0029 35.3422 37.2095 35.0024 37.4053C34.3237 37.7975 33.5392 38.0083 32.6497 38.0376C31.7601 38.0673 30.9286 37.9014 30.1553 37.54L28.9221 38.2519L28.2905 37.887Z" fill="#FDD762"/>
<path d="M54.2409 31.3751H53.4529C52.5688 29.6385 50.9412 28.0012 48.5682 26.6313C41.0047 22.2644 28.742 22.2644 21.1787 26.631C18.8056 28.0011 17.178 29.6384 16.2941 31.3751H15.5063V34.5378C15.5065 37.3995 17.3974 40.261 21.1791 42.4443C28.7426 46.8112 41.0053 46.8114 48.5686 42.4446C52.3503 40.2612 54.2411 37.3995 54.2409 34.5378V31.3751Z" fill="#247F9B"/>
<path d="M30.6732 23.6241C27.194 24.0684 23.885 25.0687 21.1787 26.6311C18.8056 28.0012 17.178 29.6385 16.2941 31.3751H15.5063V34.5379C15.5065 37.3995 17.3974 40.2611 21.1791 42.4444C23.8854 44.0068 27.1942 45.0071 30.6732 45.4515V23.6241Z" fill="#5AA3B9"/>
<path d="M48.6211 42.4128C52.3668 40.2332 54.2411 37.3858 54.2409 34.5378V31.3751H53.4528C52.6992 29.8948 51.4002 28.4883 49.5648 27.2563H48.6211V42.4128Z" fill="#247F9B"/>
<g opacity="0.4">
<path opacity="0.4" d="M53.2439 31.0072C53.0067 30.5946 52.7265 30.1889 52.4038 29.7914V39.2957C52.7276 38.8978 53.0058 38.4911 53.2439 38.0782V31.0072Z" fill="white"/>
<path opacity="0.4" d="M21.1788 26.6312C20.1281 27.2378 19.2322 27.8991 18.4736 28.5958V40.4838C18.7372 40.7255 19.015 40.9637 19.3137 41.1957V28.3107H20.8973V42.2732C20.9918 42.3302 21.0822 42.3885 21.1792 42.4445C21.3618 42.5499 21.5494 42.6504 21.7373 42.7508V28.3107H23.3209V43.512C23.597 43.6309 23.8767 43.7454 24.1609 43.8546V28.3107H25.7445V44.4007C26.0218 44.4864 26.3018 44.5677 26.5846 44.6451V28.3107H28.1681V45.0277C28.4463 45.0867 28.7264 45.1421 29.0081 45.1935V28.3107H30.5917V45.4414C30.8707 45.4777 31.1507 45.5108 31.4318 45.54V28.3107H33.0153V45.6684C33.2949 45.6838 33.575 45.6946 33.8554 45.7031V28.3107H35.4389V45.712C35.7192 45.7074 35.9992 45.6989 36.279 45.6873V28.3107H37.8625V45.5844C38.1434 45.5591 38.4235 45.5311 38.7026 45.4987V28.3107H40.2861V45.2752C40.5679 45.2281 40.8477 45.1765 41.1262 45.1217V28.3107H42.7097V44.7636C42.9923 44.6916 43.2723 44.6152 43.5498 44.5349V28.3107H45.1333V44.021C45.4172 43.9185 45.6972 43.8113 45.9735 43.6994V28.3107H47.557V42.9848C47.8425 42.8415 48.123 42.6935 48.397 42.539V28.3107H49.9805V41.5341C50.277 41.3214 50.5552 41.1031 50.8207 40.8811V28.3107H50.9609C50.2716 27.7184 49.4753 27.1552 48.5683 26.6315C46.8039 25.6128 44.7819 24.8349 42.6254 24.2915H27.1211C24.9648 24.8349 22.943 25.6127 21.1788 26.6312Z" fill="white"/>
<path opacity="0.4" d="M16.8899 30.3947C16.6671 30.7176 16.4626 31.0439 16.294 31.3752H16.0498V37.1724C16.2653 37.6878 16.546 38.1957 16.8899 38.6925V30.3947Z" fill="white"/>
</g>
<path d="M48.5691 39.2818C41.0058 43.6485 28.7431 43.6484 21.1796 39.2816C13.6161 34.9148 13.6159 27.835 21.1792 23.4683C28.7425 19.1016 41.0052 19.1017 48.5687 23.4685C56.1322 27.8353 56.1324 34.9152 48.5691 39.2818Z" fill="#FDD762"/>
<path opacity="0.2" d="M39.212 33.2859C44.7798 30.0713 46.2432 25.3872 43.6132 21.3967C36.3471 19.2745 27.2496 19.9631 21.1785 23.4683C15.6106 26.683 14.1472 31.3671 16.7773 35.3575C24.0433 37.4798 33.1408 36.7912 39.212 33.2859Z" fill="white"/>
<path opacity="0.7" d="M48.5685 39.2819C41.0052 43.6486 28.7425 43.6484 21.179 39.2815C17.5242 37.1714 15.6409 34.4278 15.5181 31.663C15.3869 34.6201 17.2702 37.6014 21.179 39.8581C28.7425 44.225 41.0052 44.225 48.5685 39.8583C52.477 37.6017 54.3602 34.6207 54.229 31.6638C54.1061 34.4285 52.223 37.1718 48.5685 39.2819Z" fill="white"/>
<path d="M44.5946 36.9876C39.2259 40.0872 30.5215 40.0871 25.1526 36.9874C19.7839 33.8877 19.7837 28.8622 25.1524 25.7626C30.521 22.663 39.2255 22.6631 44.5943 25.7628C49.9631 28.8625 49.9632 33.888 44.5946 36.9876Z" fill="#E8A200"/>
<path d="M25.1526 26.4874C30.5213 23.3878 39.2257 23.3879 44.5945 26.4876C47.1194 27.9453 48.4561 29.829 48.6062 31.7379C48.7755 29.5874 47.4387 27.4049 44.5945 25.7628C39.2257 22.6631 30.5213 22.6631 25.1526 25.7626C22.3087 27.4046 20.9721 29.5869 21.1412 31.7371C21.2915 29.8284 22.6281 27.9449 25.1526 26.4874Z" fill="#F9BF30"/>
<path d="M41.6344 27.6271L40.5688 27.9317L40.8715 28.052L39.831 28.6528C38.9801 28.237 38.1002 28.0316 37.193 28.0362C36.2846 28.0409 35.4379 28.2698 34.6526 28.7234C34.3376 28.9053 34.082 29.0906 33.8859 29.2798C33.6894 29.4682 33.5523 29.6643 33.4747 29.8674C33.3971 30.0705 33.3519 30.2585 33.34 30.4307C33.3272 30.6032 33.3354 30.8063 33.3639 31.0403L33.487 32.0105C33.5238 32.2869 33.5315 32.5135 33.5118 32.6907C33.4913 32.8679 33.4141 33.0517 33.2813 33.2417C33.1488 33.4316 32.9454 33.6057 32.6713 33.764C32.1802 34.0474 31.7447 34.0794 31.3645 33.8594C31.0741 33.6918 31 33.483 31.1432 33.2328C31.2869 32.9822 31.6729 32.6707 32.303 32.2973V31.5693L31.3923 31.9111L30.0823 31.3553C29.2799 31.8477 28.7644 32.3124 28.5292 32.7504L28.3795 32.5823V33.2961L28.3826 33.2963C28.3871 33.7864 28.761 34.2694 29.5117 34.7451L28.9938 35.0441L28.2905 34.7219V35.45L28.9221 35.8149L30.1553 35.1029C30.9286 35.4643 31.7601 35.6303 32.6497 35.6006C33.5392 35.5712 34.3237 35.3604 35.0024 34.9682C35.3422 34.7725 35.6201 34.5659 35.8371 34.3486C36.0541 34.1312 36.2081 33.9065 36.3 33.6737C36.3919 33.4409 36.4494 33.2193 36.4718 33.0077C36.4942 32.7965 36.4934 32.5606 36.4691 32.3012L36.3645 31.3622C36.3483 31.1734 36.3398 31.0364 36.3401 30.9515C36.3398 30.8665 36.3552 30.7476 36.3861 30.5955C36.417 30.4434 36.4873 30.3079 36.5976 30.1897C36.7077 30.072 36.8594 29.9573 37.0517 29.8461C37.252 29.7307 37.4852 29.6562 37.7512 29.623C38.0169 29.5902 38.2501 29.6292 38.4504 29.74C38.5524 29.7944 38.6253 29.8504 38.6682 29.9083C38.6967 29.9467 38.7061 29.9877 38.7067 30.0299L37.6223 30.2555V30.9835L39.8191 31.9611C39.9986 31.8476 40.1592 31.7422 40.3001 31.6441C40.4414 31.546 40.5885 31.4279 40.7425 31.2897C40.8958 31.1519 41.0182 31.0194 41.1101 30.8932C41.202 30.7669 41.2715 30.6241 41.3189 30.4646C41.3405 30.3909 41.3511 30.3186 41.355 30.2471L41.3573 30.2444V30.2332C41.3575 30.2299 41.3573 30.2266 41.3573 30.2234V29.4784L41.0776 29.5366C41.0736 29.5317 41.0717 29.5271 41.0676 29.5222C40.9255 29.3508 40.731 29.184 40.4812 29.0211L41.6344 28.3551V27.6271Z" fill="#F9BF30"/>
<path d="M28.2905 34.722L29.5117 34.017C28.677 33.4881 28.304 32.9503 28.3917 32.4037C28.4797 31.8569 29.043 31.2651 30.0823 30.6273L32.303 31.5694C31.6729 31.9427 31.2869 32.2542 31.1432 32.5048C31 32.755 31.0741 32.9638 31.3645 33.1314C31.7447 33.3515 32.1802 33.3194 32.6713 33.036C32.9454 32.8778 33.1488 32.7036 33.2813 32.5137C33.4141 32.3237 33.4913 32.1399 33.5118 31.9628C33.5315 31.7856 33.5238 31.5589 33.487 31.2825L33.3639 30.3123C33.3354 30.0783 33.3272 29.8753 33.34 29.7027C33.3519 29.5305 33.3971 29.3425 33.4747 29.1394C33.5523 28.9363 33.6894 28.7402 33.8859 28.5518C34.082 28.3626 34.3376 28.1773 34.6526 27.9955C35.4379 27.5418 36.2846 27.3129 37.193 27.3083C38.1002 27.3036 38.9801 27.509 39.831 27.9248L40.9904 27.2554L41.6344 27.6271L40.4812 28.2931C40.731 28.456 40.9255 28.6228 41.0676 28.7942C41.2082 28.9653 41.2977 29.1255 41.3344 29.2742C41.3711 29.4232 41.3657 29.5772 41.3189 29.7366C41.2715 29.8961 41.202 30.0389 41.1101 30.1652C41.0182 30.2914 40.8958 30.4239 40.7425 30.5617C40.5885 30.6999 40.4414 30.818 40.3001 30.9161C40.1592 31.0141 39.9986 31.1196 39.8191 31.2331L37.6223 30.2555C37.7899 30.154 37.9269 30.0691 38.0335 30.0004C38.1396 29.932 38.2481 29.8563 38.3586 29.7737C38.469 29.6911 38.5489 29.6189 38.5979 29.5575C38.6466 29.4961 38.6817 29.4324 38.7022 29.3664C38.7226 29.3 38.711 29.2382 38.6682 29.1803C38.6253 29.1224 38.5524 29.0664 38.4504 29.012C38.2501 28.9012 38.0169 28.8622 37.7512 28.895C37.4852 28.9282 37.252 29.0027 37.0517 29.1182C36.8594 29.2294 36.7077 29.344 36.5977 29.4618C36.4873 29.5799 36.417 29.7154 36.3861 29.8675C36.3552 30.0196 36.3398 30.1385 36.3401 30.2235C36.3398 30.3084 36.3483 30.4455 36.3645 30.6343L36.4691 31.5732C36.4934 31.8326 36.4942 32.0685 36.4718 32.2797C36.4494 32.4913 36.3919 32.7129 36.3 32.9457C36.2081 33.1785 36.0541 33.4032 35.8371 33.6206C35.6201 33.8379 35.3422 34.0445 35.0024 34.2402C34.3237 34.6325 33.5392 34.8433 32.6497 34.8726C31.7601 34.9023 30.9286 34.7363 30.1553 34.3749L28.9221 35.0869L28.2905 34.722Z" fill="#FDD762"/>
<path d="M54.2409 28.2098H53.4529C52.5688 26.4732 50.9412 24.836 48.5682 23.466C41.0047 19.0991 28.742 19.0991 21.1787 23.4657C18.8056 24.8358 17.178 26.4731 16.2941 28.2098H15.5063V31.3725C15.5065 34.2342 17.3974 37.0958 21.1791 39.279C28.7426 43.6458 41.0053 43.646 48.5686 39.2794C52.3503 37.0959 54.2411 34.2342 54.2409 31.3725V28.2098Z" fill="#247F9B"/>
<path d="M30.6732 20.4589C27.194 20.9031 23.885 21.9033 21.1787 23.4658C18.8056 24.8358 17.178 26.4732 16.2941 28.2099H15.5063V31.3726C15.5065 34.2343 17.3974 37.0958 21.1791 39.279C23.8854 40.8415 27.1942 41.8418 30.6732 42.2862V20.4589Z" fill="#5AA3B9"/>
<path d="M48.6211 39.2475C52.3668 37.068 54.2411 34.2205 54.2409 31.3725V28.2098H53.4528C52.6992 26.7295 51.4002 25.323 49.5648 24.0911H48.6211V39.2475Z" fill="#247F9B"/>
<g opacity="0.4">
<path opacity="0.4" d="M53.2439 27.8418C53.0067 27.4292 52.7265 27.0235 52.4038 26.626V36.1302C52.7276 35.7324 53.0058 35.3256 53.2439 34.9128V27.8418Z" fill="white"/>
<path opacity="0.4" d="M21.1788 23.4657C20.1281 24.0723 19.2322 24.7336 18.4736 25.4303V37.3183C18.7372 37.56 19.015 37.7982 19.3137 38.0302V25.1452H20.8973V39.1078C20.9918 39.1647 21.0822 39.223 21.1792 39.279C21.3618 39.3844 21.5494 39.4849 21.7373 39.5853V25.1452H23.3209V40.3464C23.597 40.4654 23.8767 40.5798 24.1609 40.6891V25.1452H25.7445V41.2352C26.0218 41.3209 26.3018 41.4022 26.5846 41.4796V25.1452H28.1681V41.8622C28.4463 41.9213 28.7264 41.9767 29.0081 42.028V25.1452H30.5917V42.2759C30.8707 42.3121 31.1507 42.3454 31.4318 42.3745V25.1452H33.0153V42.5029C33.2949 42.5183 33.575 42.5291 33.8554 42.5376V25.1452H35.4389V42.5465C35.7192 42.5419 35.9992 42.5334 36.279 42.5218V25.1452H37.8625V42.4189C38.1434 42.3936 38.4235 42.3656 38.7026 42.3332V25.1452H40.2861V42.1096C40.5679 42.0626 40.8477 42.011 41.1262 41.9562V25.1452H42.7097V41.5981C42.9923 41.5261 43.2723 41.4497 43.5498 41.3694V25.1452H45.1333V40.8555C45.4172 40.753 45.6972 40.6459 45.9735 40.5339V25.1452H47.557V39.8193C47.8425 39.6761 48.123 39.528 48.397 39.3736V25.1452H49.9805V38.3686C50.277 38.1559 50.5552 37.9376 50.8207 37.7156V25.1452H50.9609C50.2716 24.5529 49.4753 23.9897 48.5683 23.466C46.8039 22.4473 44.7819 21.6694 42.6254 21.126H27.1211C24.9648 21.6694 22.943 22.4471 21.1788 23.4657Z" fill="white"/>
<path opacity="0.4" d="M16.8899 27.2292C16.6671 27.5522 16.4626 27.8784 16.294 28.2098H16.0498V34.007C16.2653 34.5224 16.546 35.0302 16.8899 35.5271V27.2292Z" fill="white"/>
</g>
<path d="M48.5691 36.1166C41.0058 40.4833 28.7431 40.4832 21.1796 36.1163C13.6161 31.7496 13.6159 24.6697 21.1792 20.303C28.7425 15.9363 41.0052 15.9364 48.5687 20.3033C56.1322 24.67 56.1324 31.7499 48.5691 36.1166Z" fill="#91C9DB"/>
<path opacity="0.2" d="M39.212 30.1206C44.7798 26.9061 46.2432 22.2219 43.6132 18.2315C36.3471 16.1092 27.2496 16.7979 21.1785 20.303C15.6106 23.5177 14.1472 28.2018 16.7773 32.1923C24.0433 34.3145 33.1408 33.6259 39.212 30.1206Z" fill="white"/>
<path opacity="0.7" d="M48.5685 36.1167C41.0052 40.4833 28.7425 40.4831 21.179 36.1163C17.5242 34.0062 15.6409 31.2625 15.5181 28.4977C15.3869 31.4548 17.2702 34.4361 21.179 36.6929C28.7425 41.0598 41.0052 41.0598 48.5685 36.6931C52.477 34.4365 54.3602 31.4554 54.229 28.4985C54.1061 31.2632 52.223 34.0066 48.5685 36.1167Z" fill="white"/>
<path d="M44.5946 33.8223C39.2259 36.9219 30.5215 36.9218 25.1526 33.8221C19.7839 30.7225 19.7837 25.6969 25.1524 22.5974C30.521 19.4977 39.2255 19.4978 44.5943 22.5975C49.9631 25.6972 49.9632 30.7227 44.5946 33.8223Z" fill="#E8A200"/>
<path d="M25.1526 23.3221C30.5213 20.2225 39.2257 20.2226 44.5945 23.3223C47.1194 24.78 48.4561 26.6637 48.6062 28.5726C48.7755 26.4222 47.4387 24.2396 44.5945 22.5975C39.2257 19.4978 30.5213 19.4977 25.1526 22.5974C22.3087 24.2393 20.9721 26.4216 21.1412 28.5718C21.2915 26.6631 22.6281 24.7796 25.1526 23.3221Z" fill="#F9BF30"/>
<path d="M41.6344 24.4618L40.5688 24.7664L40.8715 24.8867L39.831 25.4875C38.9801 25.0717 38.1002 24.8663 37.193 24.8709C36.2846 24.8756 35.4379 25.1045 34.6526 25.5581C34.3376 25.74 34.082 25.9253 33.8859 26.1145C33.6894 26.3029 33.5523 26.499 33.4747 26.7021C33.3971 26.9051 33.3519 27.0932 33.34 27.2654C33.3272 27.4379 33.3354 27.641 33.3639 27.875L33.487 28.8452C33.5238 29.1216 33.5315 29.3482 33.5118 29.5254C33.4913 29.7027 33.4141 29.8864 33.2813 30.0763C33.1488 30.2663 32.9454 30.4404 32.6713 30.5987C32.1802 30.8821 31.7447 30.9141 31.3645 30.6941C31.0741 30.5265 31 30.3177 31.1432 30.0675C31.2869 29.8169 31.6729 29.5054 32.303 29.132V28.404L31.3923 28.7457L30.0823 28.19C29.2799 28.6824 28.7644 29.1471 28.5292 29.5851L28.3795 29.4169V30.1308L28.3826 30.131C28.3871 30.6211 28.761 31.1041 29.5117 31.5797L28.9938 31.8787L28.2905 31.5567V32.2847L28.9221 32.6495L30.1553 31.9376C30.9286 32.299 31.7601 32.465 32.6497 32.4353C33.5392 32.4059 34.3237 32.1951 35.0024 31.8029C35.3422 31.6071 35.6201 31.4006 35.8371 31.1832C36.0541 30.9659 36.2081 30.7412 36.3 30.5084C36.3919 30.2756 36.4494 30.0539 36.4718 29.8424C36.4942 29.6312 36.4934 29.3953 36.4691 29.1359L36.3645 28.197C36.3483 28.0082 36.3398 27.8711 36.3401 27.7862C36.3398 27.7013 36.3552 27.5823 36.3861 27.4302C36.417 27.2781 36.4873 27.1426 36.5976 27.0245C36.7077 26.9067 36.8594 26.792 37.0517 26.6808C37.252 26.5654 37.4852 26.4909 37.7512 26.4577C38.0169 26.4249 38.2501 26.4639 38.4504 26.5747C38.5524 26.6291 38.6253 26.6851 38.6682 26.743C38.6967 26.7814 38.7061 26.8224 38.7067 26.8646L37.6223 27.0902V27.8182L39.8191 28.7957C39.9986 28.6822 40.1592 28.5769 40.3001 28.4788C40.4414 28.3807 40.5885 28.2626 40.7425 28.1244C40.8958 27.9865 41.0182 27.8541 41.1101 27.7279C41.202 27.6016 41.2715 27.4588 41.3189 27.2994C41.3405 27.2256 41.3511 27.1533 41.355 27.0818L41.3573 27.0791V27.0679C41.3575 27.0646 41.3573 27.0613 41.3573 27.058V26.3131L41.0776 26.3713C41.0736 26.3664 41.0717 26.3619 41.0676 26.3569C40.9255 26.1855 40.731 26.0187 40.4812 25.8558L41.6344 25.1898V24.4618Z" fill="#F9BF30"/>
<path d="M28.2905 31.5567L29.5117 30.8517C28.677 30.3228 28.304 29.785 28.3917 29.2382C28.4797 28.6916 29.043 28.0997 30.0823 27.462L32.303 28.4039C31.6729 28.7773 31.2869 29.0888 31.1432 29.3394C31 29.5896 31.0741 29.7985 31.3645 29.966C31.7447 30.1861 32.1802 30.1541 32.6713 29.8707C32.9454 29.7124 33.1488 29.5382 33.2813 29.3483C33.4141 29.1584 33.4913 28.9746 33.5118 28.7974C33.5315 28.6201 33.5238 28.3935 33.487 28.1171L33.3639 27.1469C33.3354 26.913 33.3272 26.7099 33.34 26.5373C33.3519 26.3651 33.3971 26.1771 33.4747 25.974C33.5523 25.771 33.6894 25.5748 33.8859 25.3864C34.082 25.1972 34.3376 25.0119 34.6526 24.8301C35.4379 24.3764 36.2846 24.1475 37.193 24.1429C38.1002 24.1383 38.9801 24.3436 39.831 24.7594L40.9904 24.09L41.6344 24.4618L40.4812 25.1278C40.731 25.2907 40.9255 25.4575 41.0676 25.6289C41.2082 25.7999 41.2977 25.9601 41.3344 26.1087C41.3711 26.2578 41.3657 26.4118 41.3189 26.5713C41.2715 26.7307 41.202 26.8736 41.1101 26.9998C41.0182 27.1261 40.8958 27.2585 40.7425 27.3963C40.5885 27.5345 40.4414 27.6527 40.3001 27.7507C40.1592 27.8488 39.9986 27.9542 39.8191 28.0677L37.6223 27.0902C37.7899 26.9886 37.9269 26.9037 38.0335 26.835C38.1396 26.7666 38.2481 26.691 38.3586 26.6083C38.469 26.5257 38.5489 26.4535 38.5979 26.3921C38.6466 26.3308 38.6817 26.2671 38.7022 26.201C38.7226 26.1346 38.711 26.0729 38.6682 26.015C38.6253 25.957 38.5524 25.901 38.4504 25.8466C38.2501 25.7358 38.0169 25.6968 37.7512 25.7296C37.4852 25.7628 37.252 25.8373 37.0517 25.9528C36.8594 26.064 36.7077 26.1786 36.5977 26.2964C36.4873 26.4145 36.417 26.55 36.3861 26.7022C36.3552 26.8543 36.3398 26.9732 36.3401 27.0581C36.3398 27.1431 36.3483 27.2801 36.3645 27.4689L36.4691 28.4078C36.4934 28.6673 36.4942 28.9031 36.4718 29.1143C36.4494 29.3259 36.3919 29.5475 36.3 29.7803C36.2081 30.0131 36.0541 30.2378 35.8371 30.4552C35.6201 30.6726 35.3422 30.8791 35.0024 31.0748C34.3237 31.4671 33.5392 31.6779 32.6497 31.7072C31.7601 31.737 30.9286 31.5709 30.1553 31.2096L28.9221 31.9215L28.2905 31.5567Z" fill="#FDD762"/>
<path d="M55.6247 25.0445H54.8366C53.9526 23.3079 52.325 21.6707 49.952 20.3007C42.3885 15.9338 30.1258 15.9338 22.5625 20.3004C20.1894 21.6705 18.5618 23.3078 17.6779 25.0445H16.8901V28.2072C16.8902 31.0689 18.7812 33.9304 22.5629 36.1137C30.1264 40.4806 42.3891 40.4808 49.9524 36.1141C53.7341 33.9306 55.6249 31.0689 55.6247 28.2072V25.0445Z" fill="#247F9B"/>
<path d="M32.057 17.2935C28.5778 17.7377 25.2688 18.738 22.5625 20.3004C20.1894 21.6705 18.5618 23.3078 17.6779 25.0445H16.8901V28.2072C16.8902 31.0688 18.7812 33.9304 22.5629 36.1137C25.2691 37.6761 28.578 38.6765 32.057 39.1208V17.2935Z" fill="#5AA3B9"/>
<path d="M50.0049 36.0823C53.7506 33.9027 55.6249 31.0552 55.6247 28.2072V25.0445H54.8366C54.083 23.5642 52.7839 22.1577 50.9486 20.9258H50.0049V36.0823Z" fill="#247F9B"/>
<g opacity="0.4">
<path opacity="0.4" d="M54.6277 24.6766C54.3905 24.264 54.1103 23.8583 53.7876 23.4607V32.965C54.1114 32.5671 54.3896 32.1604 54.6277 31.7475V24.6766Z" fill="white"/>
<path opacity="0.4" d="M22.5621 20.3006C21.5114 20.9073 20.6155 21.5685 19.8569 22.2653V34.1532C20.1205 34.3949 20.3983 34.6331 20.697 34.8652V21.9802H22.2805V35.9427C22.3751 35.9997 22.4655 36.0579 22.5625 36.1139C22.7451 36.2193 22.9327 36.3199 23.1206 36.4203V21.9802H24.7041V37.1814C24.9803 37.3003 25.26 37.4148 25.5442 37.5241V21.9802H27.1278V38.0702C27.405 38.1559 27.6851 38.2371 27.9679 38.3145V21.9802H29.5514V38.6971C29.8296 38.7562 30.1097 38.8116 30.3914 38.863V21.9802H31.975V39.1108C32.254 39.1471 32.534 39.1803 32.8151 39.2094V21.9802H34.3986V39.3378C34.6782 39.3533 34.9583 39.3641 35.2387 39.3726V21.9802H36.8222V39.3815C37.1025 39.3768 37.3825 39.3683 37.6623 39.3567V21.9802H39.2458V39.2538C39.5267 39.2286 39.8068 39.2006 40.0859 39.1681V21.9802H41.6694V38.9446C41.9511 38.8975 42.231 38.846 42.5095 38.7912V21.9802H44.093V38.433C44.3756 38.361 44.6556 38.2846 44.9331 38.2043V21.9802H46.5166V37.6905C46.8004 37.588 47.0805 37.4808 47.3568 37.3688V21.9802H48.9403V36.6542C49.2258 36.511 49.5063 36.3629 49.7803 36.2085V21.9802H51.3638V35.2036C51.6603 34.9908 51.9385 34.7725 52.2039 34.5505V21.9802H52.3442C51.6549 21.3878 50.8586 20.8246 49.9516 20.3009C48.1872 19.2823 46.1652 18.5043 44.0087 17.9609H28.5044C26.348 18.5043 24.3263 19.2821 22.5621 20.3006Z" fill="white"/>
<path opacity="0.4" d="M18.2737 24.0641C18.0509 24.3871 17.8464 24.7133 17.6778 25.0446H17.4336V30.8418C17.6491 31.3572 17.9297 31.8651 18.2737 32.362V24.0641Z" fill="#E8A200"/>
</g>
<path d="M49.9534 32.9513C42.3901 37.3179 30.1274 37.3178 22.5639 32.9511C15.0004 28.5843 15.0002 21.5044 22.5635 17.1377C30.1267 12.7711 42.3895 12.7712 49.953 17.1379C57.5165 21.5048 57.5166 28.5846 49.9534 32.9513Z" fill="#91C9DB"/>
<path opacity="0.2" d="M40.5962 26.9553C46.1641 23.7408 47.6275 19.0566 44.9974 15.0662C37.7314 12.9439 28.6339 13.6326 22.5627 17.1377C16.9949 20.3524 15.5315 25.0365 18.1615 29.027C25.4276 31.1492 34.5251 30.4607 40.5962 26.9553Z" fill="white"/>
<path opacity="0.7" d="M49.9523 32.9514C42.389 37.318 30.1263 37.3178 22.5628 32.951C18.908 30.8409 17.0247 28.0973 16.9019 25.3324C16.7707 28.2895 18.6539 31.2708 22.5628 33.5276C30.1263 37.8944 42.389 37.8944 49.9523 33.5278C53.8608 31.2711 55.744 28.2901 55.6127 25.3333C55.4899 28.0979 53.6068 30.8413 49.9523 32.9514Z" fill="white"/>
<path d="M45.9784 30.657C40.6097 33.7566 31.9053 33.7565 26.5364 30.6569C21.1677 27.5572 21.1675 22.5317 26.5362 19.4321C31.9048 16.3325 40.6093 16.3325 45.9781 19.4322C51.3469 22.5319 51.347 27.5574 45.9784 30.657Z" fill="#E8A200"/>
<path d="M26.5364 20.1568C31.905 17.0572 40.6095 17.0573 45.9783 20.157C48.5031 21.6147 49.8399 23.4984 49.99 25.4073C50.1593 23.2569 48.8225 21.0743 45.9783 19.4322C40.6095 16.3326 31.905 16.3325 26.5364 19.432C23.6925 21.074 22.3559 23.2563 22.525 25.4065C22.6753 23.4978 24.0119 21.6143 26.5364 20.1568Z" fill="#F9BF30"/>
<path d="M43.0182 21.2965L41.9526 21.6011L42.2553 21.7214L41.2148 22.3222C40.3639 21.9064 39.484 21.701 38.5768 21.7056C37.6684 21.7102 36.8217 21.9392 36.0364 22.3929C35.7214 22.5747 35.4658 22.76 35.2697 22.9492C35.0732 23.1376 34.9361 23.3337 34.8585 23.5368C34.7809 23.7399 34.7357 23.9279 34.7238 24.1C34.711 24.2727 34.7191 24.4757 34.7477 24.7097L34.8708 25.6799C34.9075 25.9563 34.9152 26.1829 34.8956 26.3602C34.8751 26.5373 34.7979 26.7211 34.6651 26.9111C34.5326 27.101 34.3292 27.2752 34.0551 27.4334C33.564 27.7168 33.1285 27.7489 32.7482 27.5288C32.4579 27.3612 32.3838 27.1523 32.527 26.9022C32.6706 26.6516 33.0567 26.34 33.6868 25.9667V25.2387L32.7761 25.5805L31.4661 25.0247C30.6637 25.5172 30.1482 25.9818 29.913 26.4198L29.7632 26.2517V26.9655L29.7664 26.9657C29.7709 27.4558 30.1448 27.9388 30.8955 28.4144L30.3775 28.7134L29.6743 28.3914V29.1194L30.3059 29.4842L31.539 28.7723C32.3124 29.1337 33.1439 29.2997 34.0335 29.27C34.923 29.2406 35.7075 29.0298 36.3862 28.6376C36.726 28.4418 37.0039 28.2353 37.2209 28.0179C37.4378 27.8006 37.5919 27.5759 37.6838 27.3431C37.7756 27.1103 37.8332 26.8887 37.8556 26.6771C37.878 26.4659 37.8772 26.23 37.8529 25.9706L37.7482 25.0317C37.7321 24.8429 37.7236 24.7058 37.7239 24.6209C37.7236 24.5359 37.739 24.417 37.7699 24.2649C37.8008 24.1128 37.8711 23.9773 37.9814 23.8592C38.0915 23.7414 38.2432 23.6267 38.4355 23.5156C38.6358 23.4001 38.869 23.3256 39.135 23.2924C39.4007 23.2596 39.6339 23.2986 39.8342 23.4094C39.9362 23.4638 40.0091 23.5198 40.0519 23.5777C40.0805 23.6161 40.0899 23.6571 40.0905 23.6993L39.0061 23.9249V24.6529L41.2028 25.6305C41.3824 25.517 41.543 25.4115 41.6839 25.3135C41.8252 25.2154 41.9723 25.0973 42.1263 24.9591C42.2796 24.8212 42.402 24.6888 42.4939 24.5626C42.5858 24.4363 42.6552 24.2935 42.7027 24.134C42.7243 24.0603 42.7349 23.988 42.7388 23.9165L42.7411 23.9138V23.9026C42.7412 23.8993 42.7411 23.896 42.7411 23.8927V23.1478L42.4614 23.206C42.4574 23.2011 42.4555 23.1965 42.4514 23.1916C42.3093 23.0202 42.1148 22.8534 41.8649 22.6905L43.0182 22.0245V21.2965Z" fill="#F9BF30"/>
<path d="M29.6743 28.3913L30.8955 27.6864C30.0608 27.1574 29.6878 26.6196 29.7754 26.073C29.8635 25.5263 30.4268 24.9344 31.4661 24.2966L33.6868 25.2387C33.0567 25.612 32.6706 25.9236 32.527 26.1741C32.3838 26.4243 32.4579 26.6332 32.7482 26.8007C33.1285 27.0208 33.564 26.9887 34.0551 26.7054C34.3292 26.5471 34.5326 26.3729 34.6651 26.183C34.7979 25.993 34.8751 25.8093 34.8956 25.6321C34.9153 25.4549 34.9075 25.2283 34.8708 24.9518L34.7477 23.9816C34.7191 23.7476 34.711 23.5446 34.7238 23.372C34.7357 23.1998 34.7809 23.0118 34.8585 22.8087C34.9361 22.6056 35.0732 22.4095 35.2697 22.2211C35.4658 22.032 35.7214 21.8466 36.0364 21.6648C36.8217 21.2112 37.6684 20.9822 38.5768 20.9776C39.484 20.9729 40.3639 21.1783 41.2148 21.5942L42.3742 20.9247L43.0182 21.2965L41.8649 21.9624C42.1148 22.1253 42.3093 22.2921 42.4514 22.4635C42.592 22.6346 42.6815 22.7948 42.7182 22.9435C42.7549 23.0925 42.7494 23.2465 42.7027 23.406C42.6552 23.5654 42.5858 23.7082 42.4939 23.8345C42.402 23.9607 42.2796 24.0932 42.1263 24.231C41.9723 24.3692 41.8252 24.4874 41.6839 24.5854C41.543 24.6835 41.3824 24.7889 41.2028 24.9024L39.0061 23.9248C39.1736 23.8233 39.3107 23.7384 39.4172 23.6697C39.5234 23.6013 39.6319 23.5257 39.7424 23.4431C39.8527 23.3604 39.9327 23.2882 39.9817 23.2269C40.0303 23.1654 40.0655 23.1018 40.0859 23.0357C40.1064 22.9693 40.0948 22.9076 40.052 22.8496C40.0091 22.7917 39.9362 22.7358 39.8342 22.6813C39.6339 22.5705 39.4007 22.5315 39.135 22.5643C38.869 22.5975 38.6358 22.6721 38.4355 22.7875C38.2432 22.8987 38.0915 23.0133 37.9814 23.1311C37.8711 23.2492 37.8008 23.3848 37.7699 23.5368C37.739 23.689 37.7236 23.8079 37.7239 23.8928C37.7236 23.9777 37.7321 24.1148 37.7482 24.3036L37.8529 25.2425C37.8772 25.502 37.878 25.7379 37.8556 25.949C37.8332 26.1606 37.7757 26.3822 37.6838 26.615C37.5919 26.8478 37.4378 27.0725 37.2209 27.2899C37.0039 27.5072 36.726 27.7138 36.3862 27.9095C35.7075 28.3018 34.923 28.5126 34.0335 28.5419C33.1439 28.5716 32.3124 28.4056 31.539 28.0443L30.3059 28.7562L29.6743 28.3913Z" fill="#FDD762"/>
<path d="M51.7346 21.1817H50.9465C50.0625 19.4452 48.4349 17.8079 46.0618 16.4379C38.4983 12.071 26.2357 12.071 18.6723 16.4376C16.2993 17.8077 14.6717 19.4451 13.7878 21.1817H13V24.3444C13.0002 27.2061 14.8911 30.0677 18.6727 32.2509C26.2363 36.6178 38.499 36.618 46.0622 32.2513C49.844 30.0678 51.7347 27.2061 51.7346 24.3444V21.1817Z" fill="#247F9B"/>
<path d="M28.1668 13.4308C24.6877 13.8751 21.3787 14.8753 18.6723 16.4377C16.2993 17.8078 14.6717 19.4451 13.7878 21.1818H13V24.3445C13.0002 27.2062 14.8911 30.0678 18.6728 32.251C21.379 33.8134 24.6878 34.8137 28.1668 35.2581V13.4308Z" fill="#247F9B"/>
<path d="M46.1147 32.2194C49.8604 30.0399 51.7347 27.1924 51.7346 24.3444V21.1817H50.9465C50.1929 19.7014 48.8938 18.2949 47.0585 17.063H46.1147V32.2194Z" fill="#247F9B"/>
<g opacity="0.4">
<path opacity="0.4" d="M50.7375 20.8139C50.5003 20.4012 50.2201 19.9956 49.8975 19.598V29.1023C50.2213 28.7044 50.4994 28.2977 50.7375 27.8848V20.8139Z" fill="white"/>
<path opacity="0.4" d="M18.6724 16.4377C17.6218 17.0443 16.7259 17.7056 15.9673 18.4023V30.2904C16.2309 30.532 16.5086 30.7702 16.8074 31.0023V18.1172H18.3909V32.0798C18.4855 32.1367 18.5758 32.195 18.6728 32.251C18.8554 32.3564 19.0431 32.457 19.231 32.5574V18.1172H20.8145V33.3185C21.0906 33.4374 21.3704 33.5519 21.6546 33.6611V18.1172H23.2381V34.2072C23.5154 34.2929 23.7955 34.3743 24.0782 34.4517V18.1172H25.6617V34.8342C25.94 34.8933 26.22 34.9487 26.5018 35V18.1172H28.0854V35.2479C28.3644 35.2842 28.6444 35.3174 28.9255 35.3466V18.1172H30.5089V35.4749C30.7885 35.4904 31.0687 35.5012 31.349 35.5097V18.1172H32.9325V35.5185C33.2129 35.5139 33.4929 35.5054 33.7727 35.4939V18.1172H35.3562V35.391C35.637 35.3656 35.9172 35.3377 36.1963 35.3052V18.1172H37.7798V35.0817C38.0615 35.0346 38.3414 34.983 38.6199 34.9282V18.1172H40.2034V34.5702C40.486 34.4982 40.7659 34.4217 41.0435 34.3414V18.1172H42.627V33.8275C42.9108 33.7251 43.1908 33.6179 43.4671 33.506V18.1172H45.0506V32.7913C45.3361 32.6481 45.6167 32.5 45.8907 32.3456V18.1172H47.4742V31.3407C47.7706 31.128 48.0489 30.9096 48.3143 30.6876V18.1172H48.4546C47.7652 17.5249 46.969 16.9617 46.0619 16.438C44.2975 15.4194 42.2756 14.6414 40.1191 14.098H24.6147C22.4584 14.6414 20.4366 15.4192 18.6724 16.4377Z" fill="white"/>
<path opacity="0.4" d="M14.3836 20.2013C14.1608 20.5242 13.9563 20.8504 13.7877 21.1818H13.5435V26.979C13.7589 27.4944 14.0397 28.0023 14.3836 28.4992V20.2013Z" fill="white"/>
</g>
<path d="M46.0627 29.0885C38.4995 33.4552 26.2367 33.4551 18.6732 29.0883C11.1097 24.7215 11.1096 17.6416 18.6728 13.2749C26.2361 8.90826 38.4988 8.90836 46.0623 13.2752C53.6258 17.642 53.626 24.7219 46.0627 29.0885Z" fill="#91C9DB"/>
<path opacity="0.2" d="M36.7062 23.0925C42.274 19.878 43.7374 15.1938 41.1074 11.2034C33.8412 9.08112 24.7438 9.7698 18.6726 13.275C13.1048 16.4896 11.6413 21.1737 14.2714 25.1642C21.5375 27.2864 30.6349 26.5978 36.7062 23.0925Z" fill="white"/>
<path opacity="0.7" d="M46.0621 29.0887C38.4988 33.4554 26.2361 33.4552 18.6726 29.0883C15.0178 26.9783 13.1346 24.2346 13.0118 21.4697C12.8805 24.4269 14.7638 27.4081 18.6726 29.6649C26.2361 34.0318 38.4988 34.0318 46.0621 29.6651C49.9706 27.4085 51.8538 24.4275 51.7226 21.4706C51.5998 24.2353 49.7166 26.9786 46.0621 29.0887Z" fill="white"/>
<path d="M42.0882 26.7942C36.7196 29.8938 28.0151 29.8937 22.6463 26.794C17.2775 23.6944 17.2774 18.6689 22.646 15.5693C28.0147 12.4697 36.7191 12.4698 42.0879 15.5694C47.4567 18.6691 47.4569 23.6946 42.0882 26.7942Z" fill="#30A6CA"/>
<path d="M22.6463 16.294C28.015 13.1945 36.7194 13.1945 42.0882 16.2942C44.613 17.7519 45.9498 19.6356 46.0999 21.5445C46.2692 19.3941 44.9324 17.2115 42.0882 15.5694C36.7194 12.4698 28.015 12.4697 22.6463 15.5693C19.8024 17.2112 18.4658 19.3935 18.6348 21.5437C18.7851 19.635 20.1218 17.7515 22.6463 16.294Z" fill="#247F9B"/>
<path d="M39.128 17.4337L38.0625 17.7383L38.3652 17.8586L37.3247 18.4594C36.4738 18.0436 35.5939 17.8382 34.6866 17.8429C33.7782 17.8475 32.9316 18.0764 32.1463 18.5301C31.8312 18.7119 31.5757 18.8972 31.3796 19.0864C31.183 19.2748 31.046 19.4709 30.9684 19.674C30.8908 19.8771 30.8456 20.0651 30.8336 20.2373C30.8209 20.4099 30.829 20.6129 30.8576 20.8469L30.9808 21.8171C31.0174 22.0935 31.0251 22.3201 31.0054 22.4974C30.985 22.6746 30.9078 22.8583 30.775 23.0483C30.6426 23.2382 30.4391 23.4124 30.165 23.5707C29.6739 23.854 29.2384 23.8861 28.8581 23.666C28.5678 23.4985 28.4937 23.2896 28.6369 23.0394C28.7805 22.7888 29.1666 22.4773 29.7967 22.1039V21.3759L28.886 21.7177L27.5759 21.162C26.7735 21.6544 26.2581 22.119 26.0229 22.557L25.8731 22.3889V23.1027L25.8762 23.1029C25.8808 23.593 26.2546 24.076 27.0053 24.5516L26.4874 24.8507L25.7842 24.5286V25.2566L26.4158 25.6215L27.6489 24.9096C28.4222 25.2709 29.2539 25.4369 30.1434 25.4072C31.0329 25.3779 31.8174 25.1671 32.4961 24.7748C32.8358 24.579 33.1138 24.3725 33.3308 24.1551C33.5477 23.9378 33.7018 23.7131 33.7937 23.4803C33.8856 23.2475 33.9431 23.0259 33.9654 22.8143C33.9878 22.6031 33.9871 22.3673 33.9628 22.1078L33.8582 21.1689C33.8419 20.9801 33.8334 20.843 33.8338 20.7581C33.8334 20.6732 33.8489 20.5543 33.8797 20.4021C33.9106 20.25 33.9809 20.1145 34.0913 19.9964C34.2014 19.8786 34.3531 19.764 34.5454 19.6528C34.7457 19.5373 34.9789 19.4628 35.2449 19.4296C35.5105 19.3968 35.7437 19.4358 35.9441 19.5466C36.046 19.601 36.119 19.657 36.1618 19.7149C36.1903 19.7533 36.1998 19.7943 36.2003 19.8366L35.116 20.0621V20.7901L37.3127 21.7677C37.4923 21.6542 37.6528 21.5488 37.7938 21.4507C37.9351 21.3527 38.0822 21.2345 38.2362 21.0963C38.3895 20.9584 38.5119 20.826 38.6038 20.6998C38.6956 20.5735 38.7651 20.4307 38.8126 20.2713C38.8342 20.1975 38.8448 20.1252 38.8487 20.0537L38.851 20.051V20.0398C38.8511 20.0365 38.8509 20.0332 38.851 20.03V19.285L38.5713 19.3432C38.5673 19.3383 38.5653 19.3338 38.5613 19.3288C38.4192 19.1574 38.2246 18.9906 37.9749 18.8277L39.128 18.1617V17.4337Z" fill="#C7C7C7"/>
<path d="M25.7842 24.5287L27.0053 23.8237C26.1707 23.2948 25.7977 22.757 25.8854 22.2103C25.9734 21.6636 26.5366 21.0718 27.5759 20.434L29.7967 21.376C29.1666 21.7493 28.7805 22.0609 28.6369 22.3115C28.4937 22.5616 28.5678 22.7705 28.8581 22.9381C29.2384 23.1581 29.6739 23.1261 30.165 22.8427C30.4391 22.6844 30.6426 22.5103 30.775 22.3204C30.9078 22.1304 30.985 21.9466 31.0054 21.7694C31.0251 21.5922 31.0174 21.3656 30.9808 21.0892L30.8576 20.119C30.829 19.885 30.8209 19.6819 30.8336 19.5094C30.8456 19.3371 30.8908 19.1492 30.9684 18.9461C31.046 18.743 31.183 18.5469 31.3796 18.3585C31.5757 18.1693 31.8313 17.984 32.1463 17.8021C32.9316 17.3485 33.7782 17.1196 34.6866 17.1149C35.594 17.1103 36.4738 17.3157 37.3247 17.7315L38.4841 17.062L39.128 17.4338L37.9749 18.0998C38.2246 18.2627 38.4192 18.4295 38.5613 18.6009C38.7018 18.7719 38.7914 18.9321 38.8281 19.0808C38.8647 19.2299 38.8594 19.3839 38.8126 19.5433C38.7651 19.7028 38.6956 19.8456 38.6038 19.9719C38.5119 20.0981 38.3895 20.2305 38.2362 20.3684C38.0822 20.5066 37.9351 20.6247 37.7938 20.7228C37.6529 20.8208 37.4923 20.9263 37.3127 21.0397L35.116 20.0622C35.2835 19.9607 35.4206 19.8757 35.5272 19.807C35.6333 19.7387 35.7418 19.663 35.8522 19.5804C35.9626 19.4978 36.0425 19.4256 36.0916 19.3642C36.1402 19.3028 36.1753 19.2391 36.1958 19.1731C36.2163 19.1067 36.2047 19.0449 36.1618 18.987C36.119 18.9291 36.046 18.8731 35.9441 18.8186C35.7437 18.7079 35.5105 18.6689 35.2449 18.7017C34.9789 18.7349 34.7457 18.8094 34.5454 18.9248C34.3531 19.036 34.2014 19.1507 34.0913 19.2684C33.9809 19.3866 33.9106 19.5221 33.8797 19.6742C33.8489 19.8263 33.8334 19.9452 33.8338 20.0302C33.8334 20.1151 33.8419 20.2521 33.8582 20.4409L33.9628 21.3799C33.9871 21.6393 33.9878 21.8752 33.9655 22.0864C33.9431 22.298 33.8856 22.5196 33.7937 22.7524C33.7018 22.9852 33.5478 23.2099 33.3308 23.4272C33.1138 23.6446 32.8358 23.8511 32.4961 24.0469C31.8174 24.4391 31.0329 24.6499 30.1434 24.6793C29.2539 24.709 28.4222 24.543 27.6489 24.1816L26.4158 24.8936L25.7842 24.5287Z" fill="white"/>
</svg>
