<svg width="484" height="627" viewBox="0 0 484 627" fill="none" xmlns="http://www.w3.org/2000/svg">
<path d="M327.976 356.603C327.614 356.758 327.287 356.983 327.012 357.264C326.738 357.545 326.522 357.878 326.376 358.242C326.23 358.607 326.158 358.996 326.164 359.389C326.169 359.781 326.252 360.168 326.408 360.529L330.478 369.954L330.017 370.189L332.792 376.586L333.237 376.341L347.819 410.106C348.318 411.262 349.222 412.197 350.362 412.737C351.502 413.277 352.8 413.386 354.014 413.042L376.688 406.62C377.24 406.464 377.751 406.189 378.185 405.815C378.619 405.441 378.966 404.976 379.201 404.455C379.436 403.933 379.554 403.366 379.547 402.794C379.539 402.222 379.406 401.659 379.156 401.143L356.303 353.9C355.823 352.908 355.018 352.108 354.022 351.631C353.025 351.155 351.896 351.031 350.819 351.28L328.509 356.431C328.326 356.471 328.148 356.529 327.976 356.603Z" fill="#3F3D56"/>
<path d="M346.847 354.92L335.118 357.628C334.907 357.677 334.686 357.655 334.488 357.565C334.291 357.476 334.129 357.324 334.027 357.134C333.911 356.918 333.727 356.746 333.504 356.645C333.28 356.544 333.03 356.519 332.791 356.574L330.32 357.144C329.983 357.222 329.667 357.373 329.395 357.586C329.122 357.798 328.9 358.068 328.744 358.376C328.587 358.684 328.501 359.022 328.49 359.367C328.479 359.712 328.544 360.055 328.681 360.371L349.786 409.34C350.048 409.948 350.525 410.438 351.126 410.717C351.728 410.997 352.411 411.045 353.046 410.854L375.56 404.083C375.848 403.996 376.113 403.849 376.338 403.651C376.563 403.453 376.742 403.209 376.864 402.936C376.985 402.663 377.047 402.366 377.043 402.067C377.039 401.768 376.971 401.474 376.842 401.203L354.536 354.262C354.207 353.571 353.651 353.012 352.96 352.679C352.269 352.346 351.484 352.258 350.736 352.431L348.132 353.032C348.196 353.45 348.099 353.877 347.861 354.227C347.622 354.577 347.26 354.824 346.847 354.92Z" fill="#30A6CA"/>
<path d="M255.429 102.075C265.555 102.075 275.454 99.082 283.873 93.4739C292.293 87.8658 298.855 79.8948 302.73 70.5689C306.605 61.243 307.619 50.981 305.643 41.0807C303.668 31.1804 298.792 22.0863 291.632 14.9486C284.471 7.81085 275.349 2.94999 265.418 0.980695C255.486 -0.988602 245.192 0.0221171 235.837 3.88503C226.482 7.74795 218.486 14.2896 212.86 22.6826C207.235 31.0757 204.232 40.9433 204.232 51.0376C204.247 64.5689 209.646 77.5417 219.244 87.1097C228.842 96.6778 241.856 102.06 255.429 102.075ZM255.429 2.43038C265.073 2.43038 274.5 5.28114 282.519 10.6222C290.537 15.9632 296.787 23.5546 300.477 32.4364C304.168 41.3182 305.133 51.0916 303.252 60.5204C301.371 69.9493 296.727 78.6103 289.908 85.4082C283.088 92.206 274.4 96.8354 264.942 98.7109C255.484 100.586 245.68 99.6238 236.77 95.9449C227.86 92.2659 220.245 86.0358 214.887 78.0424C209.53 70.049 206.67 60.6512 206.67 51.0376C206.684 38.1507 211.826 25.7957 220.967 16.6832C230.108 7.57074 242.502 2.44494 255.429 2.43038Z" fill="#CCCCCC"/>
<path d="M57.9529 149.467C68.0788 149.467 77.9773 146.474 86.3967 140.865C94.8161 135.257 101.378 127.286 105.253 117.96C109.128 108.635 110.142 98.3726 108.167 88.4723C106.191 78.572 101.315 69.4779 94.155 62.3402C86.9949 55.2024 77.8724 50.3416 67.941 48.3723C58.0097 46.403 47.7155 47.4137 38.3604 51.2766C29.0052 55.1396 21.0093 61.6812 15.3836 70.0742C9.75799 78.4673 6.75534 88.335 6.75534 98.4293C6.77071 111.961 12.1696 124.933 21.7677 134.501C31.3658 144.069 44.3792 149.452 57.9529 149.467ZM57.9529 49.822C67.5966 49.822 77.0237 52.6727 85.0422 58.0138C93.0607 63.3548 99.3103 70.9462 103.001 79.8281C106.691 88.7099 107.657 98.4831 105.776 107.912C103.894 117.341 99.2502 126.002 92.4311 132.8C85.6119 139.598 76.9238 144.227 67.4654 146.103C58.0069 147.978 48.203 147.015 39.2934 143.336C30.3837 139.658 22.7685 133.427 17.4108 125.434C12.053 117.441 9.19332 108.043 9.19332 98.4293C9.20793 85.5423 14.3497 73.1873 23.4908 64.0748C32.6318 54.9623 45.0255 49.8365 57.9529 49.822Z" fill="#CCCCCC"/>
<path d="M149.379 311.086C159.505 311.086 169.403 308.093 177.822 302.485C186.242 296.877 192.804 288.906 196.679 279.58C200.554 270.254 201.568 259.992 199.592 250.091C197.617 240.191 192.741 231.097 185.581 223.959C178.421 216.822 169.298 211.961 159.367 209.991C149.435 208.022 139.141 209.033 129.786 212.896C120.431 216.759 112.435 223.3 106.809 231.693C101.184 240.087 98.1811 249.954 98.1811 260.048C98.1964 273.58 103.595 286.552 113.193 296.121C122.792 305.689 135.805 311.071 149.379 311.086ZM149.379 211.441C159.022 211.441 168.449 214.292 176.468 219.633C184.486 224.974 190.736 232.565 194.427 241.447C198.117 250.329 199.083 260.102 197.201 269.531C195.32 278.96 190.676 287.621 183.857 294.419C177.038 301.217 168.35 305.846 158.891 307.722C149.433 309.597 139.629 308.635 130.719 304.956C121.809 301.277 114.194 295.047 108.837 287.053C103.479 279.06 100.619 269.662 100.619 260.048C100.634 247.161 105.775 234.806 114.917 225.694C124.058 216.581 136.451 211.456 149.379 211.441Z" fill="#CCCCCC"/>
<path d="M82.8545 84.4516L88.9495 83.2364C88.9495 83.2364 83.8297 88.9477 82.8545 89.3123C82.7635 90.5258 82.7635 91.7443 82.8545 92.9578C71.1522 143.023 28 120.907 28 120.907C43.725 121.272 45.0659 114.831 45.0659 114.831C35.9234 113.494 34.0949 107.54 34.0949 107.54C34.9152 107.971 35.8663 108.086 36.766 107.862C37.6657 107.637 38.4508 107.09 38.9709 106.325C29.0971 103.773 30.438 94.173 30.438 94.173C32.1979 95.4397 34.2546 96.2347 36.4111 96.4819C35.314 95.1452 26.0496 84.087 31.657 78.3757C31.657 78.3757 38.4834 90.5275 56.4025 91.6212L57.6215 91.3781C57.4142 90.5029 57.3321 89.6028 57.3777 88.7047C57.3777 85.3207 58.7262 82.0753 61.1266 79.6824C63.5269 77.2896 66.7825 75.9453 70.1771 75.9453C78.71 75.9453 80.5385 80.806 80.5385 80.806L86.6335 77.1605C86.5116 77.1605 85.902 83.2364 82.8545 84.4516Z" fill="#3F3D56"/>
<path fill-rule="evenodd" clip-rule="evenodd" d="M288.898 51.2376C288.897 44.8617 287.064 38.6198 283.614 33.2506C280.165 27.8814 275.245 23.6098 269.436 20.9416C263.627 18.2733 257.173 17.3202 250.838 18.1949C244.503 19.0696 238.551 21.7356 233.689 25.8773C228.826 30.019 225.256 35.4628 223.4 41.5645C221.545 47.6661 221.482 54.1699 223.219 60.3061C224.956 66.4422 228.421 71.9536 233.203 76.1879C237.984 80.4221 243.883 83.2019 250.2 84.1981V60.8849H241.7V51.2376H250.2V43.8855C250.2 35.5251 255.198 30.9032 262.842 30.9032C265.352 30.9381 267.857 31.1561 270.335 31.5556V39.7671H266.113C261.958 39.7671 260.658 42.3379 260.658 44.9802V51.239H269.939L268.457 60.8863H260.658V84.2011C268.531 82.958 275.701 78.9551 280.878 72.9125C286.055 66.8698 288.899 59.184 288.898 51.2375V51.2376Z" fill="#3F3D56"/>
<path d="M402.683 611.795L388.747 611.794L382.12 558.209L402.688 558.21L402.683 611.795Z" fill="#FFB8B8"/>
<path d="M361.869 624.691L405.667 624.695L405.669 607.826L378.793 607.824C376.57 607.823 374.37 608.26 372.317 609.107C370.264 609.955 368.398 611.197 366.827 612.763C365.255 614.33 364.008 616.189 363.158 618.236C362.307 620.283 361.869 622.476 361.869 624.691L361.869 624.691Z" fill="#2F2E41"/>
<path d="M477.8 611.795L463.863 611.794L457.237 558.209L477.805 558.21L477.8 611.795Z" fill="#FFB8B8"/>
<path d="M436.986 624.691L480.784 624.695L480.786 607.826L453.91 607.824C449.422 607.823 445.118 609.6 441.944 612.763C438.77 615.927 436.987 620.217 436.986 624.691L436.986 624.691Z" fill="#2F2E41"/>
<path d="M436.986 230.866C420.451 230.866 407.047 217.503 407.047 201.02C407.047 184.536 420.451 171.174 436.986 171.174C453.521 171.174 466.926 184.536 466.926 201.02C466.926 217.503 453.521 230.866 436.986 230.866Z" fill="#FFB8B8"/>
<path d="M334.612 395.665C334.821 394.012 335.392 392.425 336.282 391.016C337.173 389.607 338.363 388.409 339.769 387.508C341.174 386.607 342.761 386.024 344.416 385.8C346.072 385.576 347.757 385.716 349.353 386.212L366.085 366.217L380.754 373.39L356.727 401.296C355.714 403.912 353.774 406.068 351.274 407.354C348.774 408.64 345.887 408.966 343.161 408.272C340.435 407.578 338.059 405.912 336.484 403.588C334.908 401.264 334.242 398.445 334.612 395.665Z" fill="#FFB8B8"/>
<path d="M478.616 415.888C477.903 414.381 477.53 412.737 477.523 411.072C477.517 409.406 477.876 407.759 478.577 406.247C479.278 404.734 480.303 403.394 481.58 402.319C482.857 401.245 484.355 400.462 485.968 400.027L489.327 374.204L505.566 372.412L500.309 408.812C500.862 411.562 500.385 414.419 498.967 416.841C497.549 419.263 495.289 421.083 492.615 421.955C489.941 422.828 487.039 422.692 484.459 421.573C481.879 420.455 479.8 418.432 478.616 415.888L478.616 415.888Z" fill="#FFB8B8"/>
<path d="M501.343 400.099C502.658 400.098 503.929 399.627 504.925 398.771C505.921 397.915 506.575 396.73 506.768 395.433L514.761 341.773C515.766 335.018 514.953 328.119 512.407 321.78L487.867 260.729C486.864 258.232 485.217 256.043 483.094 254.383C480.97 252.723 478.445 251.651 475.774 251.275C473.102 250.899 470.378 251.232 467.876 252.24C465.375 253.249 463.185 254.898 461.527 257.02H461.526C459.813 259.208 458.731 261.82 458.396 264.575C458.061 267.331 458.486 270.125 459.625 272.657L471.194 298.453C484.168 327.392 489.063 359.287 485.363 390.77C485.213 392.04 485.515 393.323 486.217 394.395C486.918 395.466 487.974 396.258 489.201 396.634L499.732 399.858C500.254 400.018 500.797 400.099 501.343 400.099Z" fill="#CCCCCC"/>
<path d="M444.275 230.864C448.781 230.961 453.256 230.107 457.407 228.357C461.558 226.606 465.291 224 468.36 220.71C471.429 217.419 473.764 213.518 475.213 209.264C476.662 205.009 477.191 200.497 476.766 196.024C476.341 191.551 474.971 187.219 472.746 183.311C470.522 179.403 467.493 176.009 463.859 173.352C460.225 170.694 456.068 168.833 451.661 167.892C447.254 166.95 442.697 166.948 438.289 167.887C431.705 163.902 424.05 161.22 416.378 161.902C408.706 162.584 401.118 167.125 398.249 174.251C395.38 181.377 398.463 190.77 405.596 193.666C410.17 195.523 415.334 194.623 420.215 193.874C425.096 193.125 430.42 192.637 434.668 195.147C438.916 197.658 440.825 204.389 437.021 207.528C435.004 209.258 433.564 211.559 432.893 214.125C432.221 216.691 432.35 219.4 433.261 221.892C435.173 226.821 440.392 230.781 444.275 230.864Z" fill="#2F2E41"/>
<path d="M481.856 600.999C482.588 601 483.314 600.854 483.989 600.57C484.664 600.286 485.276 599.871 485.787 599.347C486.298 598.824 486.699 598.204 486.966 597.524C487.233 596.844 487.361 596.117 487.342 595.387L482.016 393.89L481.435 393.877L393.392 391.964L378.19 587.895C378.107 589.087 378.417 590.274 379.073 591.275C379.729 592.276 380.695 593.036 381.824 593.439L381.991 593.473L399.271 594.525C400 594.771 400.772 594.86 401.538 594.789C402.304 594.717 403.046 594.485 403.716 594.109C404.386 593.733 404.97 593.221 405.428 592.605C405.887 591.989 406.211 591.285 406.378 590.536L434.546 464.891C434.639 464.477 434.874 464.108 435.21 463.848C435.546 463.589 435.962 463.454 436.387 463.467C436.813 463.48 437.22 463.641 437.539 463.921C437.858 464.201 438.069 464.584 438.136 465.002L458.946 595.5C459.148 596.736 459.767 597.866 460.702 598.703C461.636 599.54 462.829 600.034 464.084 600.102L481.579 600.992C481.671 600.997 481.764 600.999 481.856 600.999Z" fill="#2F2E41"/>
<path d="M455.945 410.568C466.901 410.568 476.469 408.918 481.752 404.209C485.147 401.184 486.615 397.07 486.116 391.98C484.238 372.85 487.492 330.92 490.552 299.113C491.253 291.654 490.458 284.13 488.215 276.979C485.971 269.829 482.324 263.195 477.484 257.463C472.828 251.909 467.095 247.35 460.63 244.057C454.164 240.764 447.098 238.805 439.856 238.297C429.776 237.582 406.174 235.913 398.837 254.645C387.816 282.784 393.206 295.689 398.419 308.168C402.848 318.77 407.428 329.733 401.814 350.321C398.713 361.705 394.958 372.902 390.566 383.857C387.527 391.627 386.001 395.527 387.41 398.075C388.521 400.084 391.293 400.96 396.019 401.872C397.563 402.17 399.603 402.602 402.033 403.117C414.384 405.734 437.196 410.568 455.945 410.568Z" fill="#CCCCCC"/>
<path d="M365.992 392.933C366.034 392.933 366.076 392.933 366.119 392.932C366.908 392.915 367.685 392.727 368.395 392.382C369.105 392.037 369.732 391.543 370.233 390.935L401.268 353.235C407.894 345.18 412.258 335.517 413.912 325.231L423.468 265.698C423.79 263.69 423.707 261.638 423.224 259.663C422.741 257.687 421.868 255.827 420.656 254.192C419.443 252.557 417.916 251.18 416.163 250.14C414.41 249.101 412.466 248.42 410.446 248.138C408.426 247.856 406.37 247.979 404.398 248.499C402.426 249.019 400.578 249.926 398.962 251.166C397.346 252.407 395.994 253.956 394.986 255.724C393.978 257.492 393.334 259.442 393.091 261.461L389.292 293.037C385.779 322.205 374.431 349.886 356.447 373.158L354.276 375.967C353.492 376.98 353.09 378.235 353.139 379.513C353.188 380.792 353.686 382.013 354.545 382.963L361.916 391.124C362.43 391.694 363.059 392.149 363.761 392.461C364.463 392.773 365.223 392.934 365.992 392.933Z" fill="#CCCCCC"/>
<path d="M217.179 114.022C205.906 114.022 196.767 104.811 196.767 93.4497C196.767 82.0879 205.906 72.8774 217.179 72.8774C228.453 72.8774 237.592 82.0879 237.592 93.4497C237.592 104.811 228.453 114.022 217.179 114.022Z" fill="#3F3D56"/>
<path d="M213.096 104.421H217.252V88.6348C218.786 90.0743 220.62 91.1582 222.623 91.8092V88.0081C221.337 87.5362 220.141 86.848 219.088 85.9734C217.896 85.0835 216.987 83.8697 216.47 82.4775H213.096V104.421Z" fill="#3F3D56"/>
<path d="M217.18 114.022C228.454 114.022 237.593 104.811 237.593 93.4497C237.593 82.0879 228.454 72.8774 217.18 72.8774C205.907 72.8774 196.768 82.0879 196.768 93.4497C196.768 104.811 205.907 114.022 217.18 114.022Z" fill="#FFD037"/>
<path d="M221.527 104.421H217.371V88.6348C215.837 90.0743 214.003 91.1582 212 91.8092V88.0081C213.286 87.5362 214.482 86.848 215.535 85.9734C216.727 85.0835 217.636 83.8697 218.153 82.4775H221.527V104.421Z" fill="#3F3D56"/>
<path d="M20.6367 165.479C9.23937 165.479 0 156.269 0 144.907C0 133.545 9.23937 124.335 20.6367 124.335C32.0341 124.335 41.2734 133.545 41.2734 144.907C41.2734 156.269 32.0341 165.479 20.6367 165.479Z" fill="#3F3D56"/>
<path d="M23.0883 148.269C23.1591 149.374 22.8465 150.468 22.203 151.37C21.9745 151.696 21.6725 151.965 21.3213 152.155C20.9701 152.345 20.5793 152.45 20.18 152.463C19.8265 152.466 19.4772 152.387 19.1599 152.231C18.8427 152.076 18.5663 151.849 18.3529 151.568C17.7899 150.699 17.5327 149.667 17.6217 148.636C17.5341 147.554 17.8114 146.473 18.4094 145.565C18.6361 145.266 18.9283 145.023 19.2638 144.854C19.5993 144.686 19.969 144.596 20.3448 144.591C20.7205 144.587 21.0923 144.668 21.4316 144.829C21.7708 144.991 22.0686 145.227 22.3021 145.52C22.8807 146.316 23.1591 147.289 23.0883 148.269ZM14.1368 139.284L17.9602 139.725C17.9902 139.054 18.248 138.413 18.6914 137.908C18.8932 137.712 19.1331 137.558 19.3964 137.457C19.6597 137.357 19.9408 137.31 20.2226 137.322C20.6449 137.328 21.0591 137.438 21.4282 137.642C21.7973 137.847 22.1099 138.139 22.3379 138.494C23.1002 140.007 23.4746 141.684 23.4275 143.377C23.002 142.808 22.4483 142.347 21.811 142.031C21.1737 141.714 20.4708 141.552 19.759 141.557C18.9514 141.554 18.153 141.728 17.4208 142.068C16.6886 142.408 16.0406 142.905 15.523 143.523C14.3118 144.929 13.6814 146.742 13.7593 148.594C13.6649 150.531 14.33 152.429 15.6138 153.886C16.2667 154.559 17.0572 155.085 17.9317 155.427C18.8063 155.769 19.7445 155.92 20.6826 155.869C21.6207 155.818 22.5368 155.567 23.369 155.132C24.2011 154.697 24.9298 154.089 25.5056 153.349C26.8456 151.665 27.5156 148.902 27.5156 145.061C27.5156 141.122 26.8176 138.283 25.4217 136.544C24.7864 135.712 23.9623 135.041 23.017 134.588C22.0717 134.134 21.0321 133.911 19.9833 133.935C18.5608 133.884 17.1721 134.374 16.098 135.305C14.9989 136.363 14.3052 137.77 14.1368 139.284Z" fill="#3F3D56"/>
<path d="M20.6367 165.479C9.23937 165.479 0 156.269 0 144.907C0 133.545 9.23937 124.335 20.6367 124.335C32.0341 124.335 41.2734 133.545 41.2734 144.907C41.2734 156.269 32.0341 165.479 20.6367 165.479Z" fill="#FFD037"/>
<path d="M18.1773 148.269C18.1065 149.374 18.4191 150.468 19.0626 151.37C19.2912 151.696 19.5931 151.965 19.9443 152.155C20.2955 152.345 20.6863 152.45 21.0856 152.463C21.4391 152.466 21.7884 152.387 22.1057 152.231C22.4229 152.076 22.6993 151.849 22.9127 151.568C23.4757 150.699 23.733 149.667 23.6439 148.636C23.7315 147.554 23.4543 146.473 22.8562 145.565C22.6295 145.266 22.3373 145.023 22.0018 144.854C21.6663 144.686 21.2966 144.596 20.9208 144.591C20.5451 144.587 20.1733 144.668 19.8341 144.829C19.4948 144.991 19.197 145.227 18.9635 145.52C18.3849 146.316 18.1065 147.289 18.1773 148.269ZM27.1288 139.284L23.3055 139.725C23.2754 139.054 23.0176 138.413 22.5743 137.908C22.3724 137.712 22.1325 137.558 21.8692 137.457C21.606 137.357 21.3248 137.31 21.043 137.322C20.6207 137.328 20.2065 137.438 19.8374 137.642C19.4683 137.847 19.1557 138.139 18.9277 138.494C18.1654 140.007 17.7911 141.684 17.8381 143.377C18.2636 142.808 18.8174 142.347 19.4546 142.031C20.0919 141.714 20.7948 141.552 21.5066 141.557C22.3143 141.554 23.1126 141.728 23.8448 142.068C24.577 142.408 25.225 142.905 25.7426 143.523C26.9539 144.929 27.5843 146.742 27.5064 148.594C27.6007 150.531 26.9357 152.429 25.6519 153.886C24.9989 154.559 24.2084 155.085 23.3339 155.427C22.4594 155.769 21.5212 155.92 20.5831 155.869C19.645 155.818 18.7288 155.567 17.8967 155.132C17.0645 154.697 16.3358 154.089 15.76 153.349C14.42 151.665 13.75 148.902 13.75 145.061C13.75 141.122 14.448 138.283 15.8439 136.544C16.4793 135.712 17.3034 135.041 18.2487 134.588C19.194 134.134 20.2336 133.911 21.2824 133.935C22.7048 133.884 24.0935 134.374 25.1676 135.305C26.2667 136.363 26.9605 137.77 27.1288 139.284Z" fill="#3F3D56"/>
<path d="M107.482 324.421C96.0851 324.421 86.8457 315.211 86.8457 303.849C86.8457 292.487 96.0851 283.277 107.482 283.277C118.88 283.277 128.119 292.487 128.119 303.849C128.119 315.211 118.88 324.421 107.482 324.421Z" fill="#3F3D56"/>
<path d="M110.037 298.707C110.058 299.056 110.009 299.405 109.893 299.734C109.776 300.064 109.595 300.367 109.359 300.625C109.122 300.858 108.84 301.039 108.529 301.157C108.219 301.276 107.887 301.329 107.555 301.314C107.219 301.329 106.883 301.276 106.569 301.156C106.254 301.036 105.968 300.853 105.728 300.618C105.491 300.359 105.308 300.055 105.19 299.724C105.073 299.393 105.023 299.042 105.043 298.692C105.027 298.354 105.078 298.016 105.195 297.697C105.311 297.379 105.489 297.087 105.72 296.838C105.954 296.605 106.234 296.423 106.542 296.303C106.851 296.183 107.181 296.129 107.511 296.143C107.85 296.127 108.189 296.181 108.506 296.302C108.823 296.423 109.111 296.608 109.352 296.846C109.585 297.095 109.765 297.388 109.883 297.708C110 298.027 110.053 298.367 110.037 298.707ZM110.408 307.907C110.466 308.865 110.163 309.81 109.558 310.557C109.298 310.862 108.973 311.106 108.606 311.27C108.24 311.435 107.842 311.517 107.44 311.51C107.051 311.519 106.664 311.441 106.309 311.282C105.954 311.124 105.638 310.889 105.385 310.594C104.796 309.843 104.507 308.901 104.572 307.95C104.528 307.067 104.824 306.201 105.399 305.527C105.659 305.23 105.983 304.994 106.345 304.836C106.708 304.677 107.101 304.6 107.497 304.61C107.921 304.582 108.345 304.663 108.729 304.845C109.112 305.027 109.443 305.305 109.688 305.651C110.157 306.31 110.409 307.099 110.408 307.907ZM110.864 302.852C111.797 302.49 112.589 301.841 113.126 300.999C113.596 300.219 113.84 299.325 113.832 298.415C113.854 297.676 113.721 296.94 113.439 296.256C113.158 295.572 112.735 294.955 112.199 294.444C110.868 293.428 109.238 292.877 107.561 292.877C105.884 292.877 104.254 293.428 102.922 294.444C102.382 294.953 101.956 295.569 101.672 296.254C101.388 296.938 101.252 297.675 101.274 298.415C101.254 299.357 101.518 300.284 102.032 301.075C102.547 301.866 103.287 302.485 104.158 302.852C103.086 303.25 102.167 303.973 101.529 304.918C100.892 305.864 100.568 306.986 100.603 308.125C100.554 309.021 100.695 309.918 101.018 310.756C101.341 311.594 101.839 312.354 102.478 312.987C103.117 313.619 103.883 314.11 104.726 314.426C105.569 314.742 106.469 314.876 107.368 314.821C109.084 314.882 110.767 314.337 112.121 313.283C112.858 312.684 113.445 311.922 113.834 311.057C114.223 310.192 114.403 309.248 114.361 308.301C114.372 307.179 114.081 306.074 113.519 305.102C112.904 304.083 111.972 303.293 110.864 302.852Z" fill="#3F3D56"/>
<path d="M107.482 324.421C96.0851 324.421 86.8457 315.211 86.8457 303.849C86.8457 292.487 96.0851 283.277 107.482 283.277C118.88 283.277 128.119 292.487 128.119 303.849C128.119 315.211 118.88 324.421 107.482 324.421Z" fill="#FFD037"/>
<path d="M110.037 298.707C110.058 299.056 110.009 299.405 109.893 299.734C109.776 300.064 109.595 300.367 109.359 300.625C109.122 300.858 108.84 301.039 108.529 301.157C108.219 301.276 107.887 301.329 107.555 301.314C107.219 301.329 106.883 301.276 106.569 301.156C106.254 301.036 105.968 300.853 105.728 300.618C105.491 300.359 105.308 300.055 105.19 299.724C105.073 299.393 105.023 299.042 105.043 298.692C105.027 298.354 105.078 298.016 105.195 297.697C105.311 297.379 105.489 297.087 105.72 296.838C105.954 296.605 106.234 296.423 106.542 296.303C106.851 296.183 107.181 296.129 107.511 296.143C107.85 296.127 108.189 296.181 108.506 296.302C108.823 296.423 109.111 296.608 109.352 296.846C109.585 297.095 109.765 297.388 109.883 297.708C110 298.027 110.053 298.367 110.037 298.707ZM110.408 307.907C110.466 308.865 110.163 309.81 109.558 310.557C109.298 310.862 108.973 311.106 108.606 311.27C108.24 311.435 107.842 311.517 107.44 311.51C107.051 311.519 106.664 311.441 106.309 311.282C105.954 311.124 105.638 310.889 105.385 310.594C104.796 309.843 104.507 308.901 104.572 307.95C104.528 307.067 104.824 306.201 105.399 305.527C105.659 305.23 105.983 304.994 106.345 304.836C106.708 304.677 107.101 304.6 107.497 304.61C107.921 304.582 108.345 304.663 108.729 304.845C109.112 305.027 109.443 305.305 109.688 305.651C110.157 306.31 110.409 307.099 110.408 307.907ZM110.864 302.852C111.797 302.49 112.589 301.841 113.126 300.999C113.596 300.219 113.84 299.325 113.832 298.415C113.854 297.676 113.721 296.94 113.439 296.256C113.158 295.572 112.735 294.955 112.199 294.444C110.868 293.428 109.238 292.877 107.561 292.877C105.884 292.877 104.254 293.428 102.922 294.444C102.382 294.953 101.956 295.569 101.672 296.254C101.388 296.938 101.252 297.675 101.274 298.415C101.254 299.357 101.518 300.284 102.032 301.075C102.547 301.866 103.287 302.485 104.158 302.852C103.086 303.25 102.167 303.973 101.529 304.918C100.892 305.864 100.568 306.986 100.603 308.125C100.554 309.021 100.695 309.918 101.018 310.756C101.341 311.594 101.839 312.354 102.478 312.987C103.117 313.619 103.883 314.11 104.726 314.426C105.569 314.742 106.469 314.876 107.368 314.821C109.084 314.882 110.767 314.337 112.121 313.283C112.858 312.684 113.445 311.922 113.834 311.057C114.223 310.192 114.403 309.248 114.361 308.301C114.372 307.179 114.081 306.074 113.519 305.102C112.904 304.083 111.972 303.293 110.864 302.852Z" fill="#3F3D56"/>
<path d="M281.195 627H562.781C563.104 627 563.414 626.872 563.643 626.644C563.872 626.416 564 626.107 564 625.785C564 625.462 563.872 625.153 563.643 624.925C563.414 624.697 563.104 624.569 562.781 624.569H281.195C280.871 624.569 280.561 624.697 280.333 624.925C280.104 625.153 279.976 625.462 279.976 625.785C279.976 626.107 280.104 626.416 280.333 626.644C280.561 626.872 280.871 627 281.195 627Z" fill="#CCCCCC"/>
<path fill-rule="evenodd" clip-rule="evenodd" d="M161.768 279.558C162.412 280.014 163.242 280.128 163.982 279.848C164.722 279.566 165.266 278.934 165.43 278.168C167.168 270 171.384 249.326 172.966 241.896C173.086 241.336 172.886 240.754 172.446 240.38C172.006 240.006 171.396 239.898 170.852 240.1C162.466 243.204 136.641 252.894 126.085 256.8C125.415 257.048 124.979 257.692 125.001 258.398C125.025 259.106 125.501 259.72 126.187 259.926C130.921 261.342 137.135 263.312 137.135 263.312C137.135 263.312 140.038 272.082 141.552 276.542C141.742 277.102 142.18 277.542 142.758 277.694C143.334 277.844 143.95 277.686 144.38 277.28C146.812 274.984 150.572 271.434 150.572 271.434C150.572 271.434 157.716 276.672 161.768 279.558ZM139.748 262.204L143.106 273.28L143.852 266.266C143.852 266.266 156.826 254.564 164.222 247.894C164.438 247.698 164.468 247.37 164.288 247.14C164.11 246.91 163.782 246.856 163.536 247.012C154.964 252.486 139.748 262.204 139.748 262.204Z" fill="#3F3D56"/>
</svg>
