<svg width="83" height="68" viewBox="0 0 83 68" fill="none" xmlns="http://www.w3.org/2000/svg">
<path d="M20.3879 59.1435V55.7735C20.3879 54.4817 19.6016 53.6392 18.2536 53.6392C17.5796 53.6392 16.8494 53.8638 16.3439 54.594C15.9508 53.9762 15.3891 53.6392 14.5466 53.6392C13.9849 53.6392 13.4233 53.8077 12.9739 54.4255V53.7515H11.7944V59.1435H12.9739V56.1667C12.9739 55.2118 13.4794 54.7625 14.2658 54.7625C15.0521 54.7625 15.4453 55.268 15.4453 56.1667V59.1435H16.6248V56.1667C16.6248 55.2118 17.1864 54.7625 17.9166 54.7625C18.7029 54.7625 19.0961 55.268 19.0961 56.1667V59.1435H20.3879ZM37.8557 53.7515H35.946V52.1227H34.7665V53.7515H33.6994V54.8187H34.7665V57.29C34.7665 58.5257 35.272 59.2558 36.62 59.2558C37.1255 59.2558 37.6872 59.0873 38.0804 58.8627L37.7434 57.8517C37.4064 58.0763 37.0132 58.1325 36.7324 58.1325C36.1707 58.1325 35.946 57.7955 35.946 57.2338V54.8187H37.8557V53.7515ZM47.8533 53.6392C47.1793 53.6392 46.73 53.9762 46.4492 54.4255V53.7515H45.2697V59.1435H46.4492V56.1105C46.4492 55.2118 46.8423 54.7063 47.5725 54.7063C47.7972 54.7063 48.078 54.7625 48.3027 54.8187L48.6397 53.6953C48.415 53.6392 48.078 53.6392 47.8533 53.6392ZM32.7445 54.2008C32.1829 53.8077 31.3965 53.6392 30.554 53.6392C29.2061 53.6392 28.3074 54.3132 28.3074 55.3803C28.3074 56.279 28.9814 56.7845 30.1609 56.953L30.7225 57.0092C31.3404 57.1215 31.6774 57.29 31.6774 57.5708C31.6774 57.964 31.228 58.2448 30.4417 58.2448C29.6554 58.2448 29.0376 57.964 28.6444 57.6832L28.0827 58.5818C28.7006 59.0312 29.5431 59.2558 30.3856 59.2558C31.9582 59.2558 32.8569 58.5257 32.8569 57.5147C32.8569 56.5598 32.1267 56.0543 31.0034 55.8858L30.4417 55.8297C29.9362 55.7735 29.5431 55.6612 29.5431 55.3242C29.5431 54.931 29.9362 54.7063 30.554 54.7063C31.228 54.7063 31.902 54.9872 32.239 55.1557L32.7445 54.2008ZM64.0855 53.6392C63.4115 53.6392 62.9621 53.9762 62.6813 54.4255V53.7515H61.5018V59.1435H62.6813V56.1105C62.6813 55.2118 63.0745 54.7063 63.8046 54.7063C64.0293 54.7063 64.3101 54.7625 64.5348 54.8187L64.8718 53.6953C64.6471 53.6392 64.3101 53.6392 64.0855 53.6392ZM49.0328 56.4475C49.0328 58.0763 50.1562 59.2558 51.8973 59.2558C52.6837 59.2558 53.2453 59.0873 53.807 58.638L53.2453 57.6832C52.796 58.0202 52.3467 58.1887 51.8412 58.1887C50.8863 58.1887 50.2123 57.5147 50.2123 56.4475C50.2123 55.4365 50.8863 54.7625 51.8412 54.7063C52.3467 54.7063 52.796 54.8748 53.2453 55.2118L53.807 54.257C53.2453 53.8077 52.6837 53.6392 51.8973 53.6392C50.1562 53.6392 49.0328 54.8187 49.0328 56.4475ZM59.9291 56.4475V53.7515H58.7496V54.4255C58.3565 53.92 57.7948 53.6392 57.0647 53.6392C55.5482 53.6392 54.3687 54.8187 54.3687 56.4475C54.3687 58.0763 55.5482 59.2558 57.0647 59.2558C57.851 59.2558 58.4127 58.975 58.7496 58.4695V59.1435H59.9291V56.4475ZM55.6043 56.4475C55.6043 55.4927 56.2221 54.7063 57.2331 54.7063C58.188 54.7063 58.862 55.4365 58.862 56.4475C58.862 57.4023 58.188 58.1887 57.2331 58.1887C56.2221 58.1325 55.6043 57.4023 55.6043 56.4475ZM41.5065 53.6392C39.9339 53.6392 38.8105 54.7625 38.8105 56.4475C38.8105 58.1325 39.9339 59.2558 41.5627 59.2558C42.349 59.2558 43.1354 59.0312 43.7532 58.5257L43.1915 57.6832C42.7422 58.0202 42.1805 58.2448 41.6189 58.2448C40.8887 58.2448 40.1585 57.9078 39.99 56.953H43.9778V56.5037C44.034 54.7625 43.023 53.6392 41.5065 53.6392ZM41.5065 54.6502C42.2367 54.6502 42.7422 55.0995 42.8545 55.942H40.0462C40.1585 55.2118 40.664 54.6502 41.5065 54.6502ZM70.7693 56.4475V51.6172H69.5898V54.4255C69.1966 53.92 68.635 53.6392 67.9048 53.6392C66.3883 53.6392 65.2088 54.8187 65.2088 56.4475C65.2088 58.0763 66.3883 59.2558 67.9048 59.2558C68.6911 59.2558 69.2528 58.975 69.5898 58.4695V59.1435H70.7693V56.4475ZM66.4445 56.4475C66.4445 55.4927 67.0623 54.7063 68.0733 54.7063C69.0281 54.7063 69.7021 55.4365 69.7021 56.4475C69.7021 57.4023 69.0281 58.1887 68.0733 58.1887C67.0623 58.1325 66.4445 57.4023 66.4445 56.4475ZM27.0156 56.4475V53.7515H25.8361V54.4255C25.4429 53.92 24.8812 53.6392 24.1511 53.6392C22.6346 53.6392 21.4551 54.8187 21.4551 56.4475C21.4551 58.0763 22.6346 59.2558 24.1511 59.2558C24.9374 59.2558 25.4991 58.975 25.8361 58.4695V59.1435H27.0156V56.4475ZM22.6346 56.4475C22.6346 55.4927 23.2524 54.7063 24.2634 54.7063C25.2182 54.7063 25.8922 55.4365 25.8922 56.4475C25.8922 57.4023 25.2182 58.1887 24.2634 58.1887C23.2524 58.1325 22.6346 57.4023 22.6346 56.4475Z" fill="black"/>
<path d="M50.043 12.8062H32.3506V44.5964H50.043V12.8062Z" fill="#FF5F00"/>
<path d="M33.4741 28.7013C33.4741 22.2421 36.5071 16.5131 41.1689 12.8062C37.7427 10.1102 33.4179 8.48132 28.6999 8.48132C17.5228 8.48132 8.47998 17.5241 8.47998 28.7013C8.47998 39.8784 17.5228 48.9212 28.6999 48.9212C33.4179 48.9212 37.7427 47.2924 41.1689 44.5964C36.5071 40.9456 33.4741 35.1604 33.4741 28.7013Z" fill="#EB001B"/>
<path d="M73.915 28.7013C73.915 39.8784 64.8722 48.9212 53.695 48.9212C48.9771 48.9212 44.6522 47.2924 41.2261 44.5964C45.9441 40.8894 48.9209 35.1604 48.9209 28.7013C48.9209 22.2421 45.8879 16.5131 41.2261 12.8062C44.6522 10.1102 48.9771 8.48132 53.695 8.48132C64.8722 8.48132 73.915 17.5803 73.915 28.7013Z" fill="#F79E1B"/>
</svg>
