<svg width="543" height="496" viewBox="0 0 543 496" fill="none" xmlns="http://www.w3.org/2000/svg">
<g clip-path="url(#clip0)">
<path d="M506.906 294.464C517.766 267.105 522.197 237.621 519.859 208.282C517.52 178.943 508.474 150.531 493.418 125.235L185.94 167.779L480.602 106.413C462.675 83.0902 439.617 64.2028 413.213 51.2129C386.81 38.223 357.769 31.4791 328.339 31.5033C222.231 31.5033 136.213 117.461 136.213 223.494C136.215 232.258 136.812 241.011 138.001 249.693L506.906 294.464Z" fill="#F2F2F2"/>
<path d="M149.055 292.619C176.825 364.494 246.618 415.485 328.339 415.485C405.023 415.485 471.204 370.586 502.018 305.665L149.055 292.619Z" fill="#F2F2F2"/>
<path d="M497.269 359.393C497.269 434.841 385.948 496 248.634 496C174.865 496 108.601 478.352 63.0703 450.314C33.3623 432.026 12.477 409.31 4.09871 384.209C1.39472 376.214 0.0104022 367.832 0 359.393C0 283.952 206.043 -56.3538 248.634 222.793C291.226 501.94 497.269 283.952 497.269 359.393Z" fill="#30A6CA"/>
<path opacity="0.1" d="M372.198 408.934C372.198 436.792 284.159 459.379 175.551 459.379C133.72 459.379 94.9406 456.028 63.0702 450.314C33.3622 432.026 12.4769 409.311 4.09863 384.209C37.815 368.857 101.963 358.489 175.551 358.489C284.159 358.489 372.198 381.077 372.198 408.934Z" fill="#0B4456"/>
<path d="M230.253 121.602C214.669 95.2871 183.836 94.0608 183.836 94.0608C183.836 94.0608 153.791 90.2214 134.517 130.299C116.553 167.654 91.7597 203.721 130.526 212.466L137.528 190.687L141.865 214.087C147.384 214.484 152.921 214.578 158.451 214.37C199.967 213.031 239.504 214.762 238.231 199.875C236.539 180.085 245.249 146.921 230.253 121.602Z" fill="#2F2E41"/>
<path d="M128.312 352.05C127.734 354.922 127.306 357.841 126.324 360.602C125.349 363.342 123.843 365.876 122.952 368.645C120.109 377.47 124.05 387.31 130.343 394.121C135.8 400.005 142.845 404.185 150.626 406.157C156.304 407.584 162.207 407.79 168.057 407.988C184.258 408.537 200.876 409.028 216.227 403.825C221.077 402.141 225.762 400.014 230.222 397.472C231.63 396.801 232.871 395.825 233.854 394.615C235.024 392.949 235.174 390.789 235.164 388.753C235.13 381.89 233.737 375.062 234.068 368.206C234.251 364.409 234.962 360.615 234.612 356.83C233.818 348.245 226.996 340.561 218.561 338.751C214.206 337.816 209.689 338.325 205.255 338.751C193.747 339.857 182.189 340.373 170.628 340.299C158.815 340.223 147.075 338.421 135.321 338.233C131.845 338.178 131.915 339.248 130.809 342.61C129.789 345.704 128.956 348.856 128.312 352.05Z" fill="#2F2E41"/>
<path d="M161.836 182.582C161.269 185.552 160.655 188.631 158.869 191.072C156.814 193.88 153.463 195.485 151.252 198.173C147.924 202.218 147.733 207.911 147.72 213.148C147.707 217.972 147.805 223.118 150.497 227.122C152.244 229.721 154.903 231.543 157.501 233.293C167.598 240.092 178.508 247.013 190.681 247.238C195.724 247.331 201.132 246.029 204.451 242.232C205.884 240.449 207.01 238.441 207.785 236.288C210.897 228.621 212.784 220.513 213.376 212.26C213.653 208.377 213.627 204.381 212.312 200.717C210.833 196.597 207.843 193.207 205.867 189.3C203.531 184.655 202.676 179.406 203.419 174.261C203.517 173.898 203.487 173.513 203.333 173.171C203.17 172.988 202.967 172.844 202.74 172.752C202.513 172.66 202.268 172.622 202.023 172.641L177.886 170.904C175.638 170.793 173.4 170.537 171.185 170.138C169.884 169.874 166.447 168.027 165.206 168.518C162.91 169.427 162.307 180.119 161.836 182.582Z" fill="#A0616A"/>
<path opacity="0.1" d="M161.836 183.335C161.269 186.305 160.655 189.384 158.869 191.825C156.814 194.633 153.463 196.238 151.252 198.925C147.924 202.971 147.733 208.664 147.72 213.901C147.707 218.725 147.805 223.87 150.497 227.875C152.244 230.474 154.903 232.296 157.501 234.046C167.598 240.845 178.508 247.766 190.681 247.991C195.724 248.083 201.132 246.782 204.451 242.985C205.884 241.202 207.01 239.193 207.785 237.041C210.897 229.374 212.784 221.266 213.376 213.013C213.653 209.13 213.627 205.134 212.312 201.47C210.833 197.35 207.843 193.96 205.867 190.053C203.531 185.408 202.676 180.159 203.419 175.014C203.517 174.651 203.487 174.266 203.333 173.924C203.17 173.74 202.967 173.597 202.74 173.505C202.513 173.413 202.268 173.375 202.023 173.394L177.886 171.657C175.638 171.546 173.4 171.29 171.185 170.891C169.884 170.627 166.447 168.78 165.206 169.271C162.91 170.18 162.307 180.871 161.836 183.335Z" fill="black"/>
<path d="M184.918 185.816C204.476 185.816 220.33 169.973 220.33 150.429C220.33 130.886 204.476 115.043 184.918 115.043C165.361 115.043 149.507 130.886 149.507 150.429C149.507 169.973 165.361 185.816 184.918 185.816Z" fill="#A0616A"/>
<path d="M166.802 229.687C168.648 231.615 170.604 233.523 173.022 234.653C175.428 235.777 178.138 236.057 180.793 236.132C187.176 236.311 194.096 235.142 198.536 230.557C204.26 224.645 204.072 215.11 208.559 208.214C208.92 207.589 209.413 207.05 210.004 206.634C210.757 206.224 211.607 206.029 212.463 206.069C218.13 206.016 223.066 209.689 227.521 213.188C229.516 214.756 231.562 216.381 232.821 218.584C233.702 220.301 234.305 222.147 234.608 224.053C236.819 234.837 237.535 245.863 238.245 256.848C238.638 262.916 239.03 268.989 239.001 275.069C238.905 295.1 234.246 314.797 229.613 334.286C229.016 336.797 228.199 339.604 225.913 340.807C224.895 341.265 223.8 341.531 222.685 341.594C209.415 343.152 196.117 344.711 182.756 344.917C177.543 344.997 172.331 344.871 167.122 344.538C166.225 344.526 165.336 344.371 164.488 344.079C163.337 343.527 162.348 342.688 161.617 341.643C154.39 332.543 153.964 319.961 154.01 308.344C154.123 279.941 155.138 251.56 157.056 223.202C157.215 220.861 157.249 218.019 155.561 216.177C158.6 221.039 162.827 225.535 166.802 229.687Z" fill="#D0CDE1"/>
<path d="M159.302 188.828C158.106 190.991 149.288 196.363 147.586 198.156C138.075 208.175 120.715 207.799 112.017 218.529C108.956 222.304 107.366 227.048 106.197 231.764C104.543 238.434 103.66 245.708 106.43 251.997C109.096 258.049 114.709 262.233 118.519 267.638C122.703 273.574 124.584 280.78 126.387 287.813C127.718 293.006 129.06 298.328 128.542 303.663C127.952 309.729 125.015 315.284 123.28 321.127C121.546 326.97 121.246 333.929 125.257 338.521C128.203 341.895 132.824 343.232 137.241 343.985C142.879 344.945 148.609 345.218 154.323 345.471C159.372 345.694 164.938 345.737 168.82 342.502C171.883 339.95 173.214 335.808 173.386 331.827C173.558 327.845 172.729 323.899 172.21 319.947C171.672 315.851 171.465 311.719 171.292 307.592C170.515 289.071 170.409 270.539 170.974 251.995C171.092 248.136 171.234 244.23 170.411 240.458C169.328 235.497 166.645 231.064 164.407 226.506C159.963 217.459 157.862 208.671 158.549 198.615C159.227 188.69 163.558 181.129 159.302 188.828Z" fill="#575A89"/>
<path d="M209.028 189.58C210.85 191.451 217.04 192.068 219.357 193.273C221.486 194.38 223.842 194.959 226.148 195.623C234.601 198.059 242.641 201.747 250.001 206.563C251.531 207.457 252.883 208.624 253.99 210.006C255.287 211.808 255.757 214.057 256.197 216.233C257.332 221.849 258.472 227.534 258.217 233.258C257.946 239.335 256.115 245.22 254.298 251.025L247.508 272.715C242.44 288.906 237.34 305.256 235.914 322.16C235.125 331.529 235.476 340.959 236.959 350.243C237.108 351.176 237.233 352.246 236.616 352.963C236.169 353.405 235.58 353.675 234.954 353.727C231.677 354.239 228.506 352.57 225.537 351.092C216.462 346.58 206.778 343.413 196.789 341.693C200.692 336.056 203.704 329.852 205.718 323.299C206.862 319.138 207.763 314.915 208.416 310.649L211.574 292.395C212.732 285.701 213.892 278.99 214.283 272.209C214.522 269.666 214.374 267.103 213.844 264.605C213.239 262.195 212.036 259.986 210.959 257.747C205.754 246.927 203.312 234.58 205.36 222.751C206.256 217.574 207.998 212.39 207.271 207.187C206.573 202.184 207.299 198.296 206.014 193.345C200.74 173.017 205.601 186.061 209.028 189.58Z" fill="#575A89"/>
<path d="M111.927 235.636C109.554 240.557 105.586 244.749 104.236 250.042C103.711 252.516 103.486 255.044 103.566 257.571C103.534 261.381 103.513 265.267 104.683 268.893C105.437 271.227 106.663 273.38 107.546 275.668C108.778 278.865 109.326 282.284 109.157 285.705C108.918 290.445 107.307 295.046 107.181 299.791C106.983 307.251 110.436 314.265 113.806 320.926C114.654 318.827 115.951 316.939 117.605 315.393C119.26 313.847 121.233 312.682 123.385 311.977C125.538 311.273 127.818 311.047 130.067 311.316C132.317 311.584 134.48 312.341 136.406 313.532C137.295 312.712 137.389 311.365 137.424 310.156C137.673 301.5 137.914 292.844 138.145 284.188C138.51 270.801 138.857 257.235 135.775 244.202C134.384 238.317 132.219 232.455 128.25 227.891C126.16 225.488 119.066 219.157 115.635 221.85C114.092 223.06 114.453 226.356 114.208 228.025C113.839 230.663 113.07 233.23 111.927 235.636Z" fill="#575A89"/>
<path d="M258.911 221.455C260.033 224.948 260.101 228.68 260.123 232.348C260.168 239.83 260.069 247.312 259.825 254.792C259.7 258.622 259.528 262.504 258.366 266.156C257.6 268.564 256.417 270.822 255.626 273.222C253.254 280.414 254.55 288.215 254.753 295.786C254.897 298.236 254.688 300.694 254.132 303.085C252.88 307.778 249.516 311.57 247.169 315.822C244.939 319.861 243.593 324.388 240.93 328.156C238.267 331.923 233.657 334.908 229.189 333.752C225.803 332.875 223.397 329.881 221.733 326.807C218.102 320.048 216.86 312.262 218.209 304.71C219.879 295.522 225.28 287.371 227.228 278.238C229.903 265.695 225.838 252.753 225.959 239.929C225.903 237.919 226.176 235.914 226.766 233.991C227.788 231.062 229.982 228.723 232.009 226.374C234.543 223.438 236.896 220.352 239.056 217.133C240.507 214.97 242.478 209.407 245.051 208.945C250.796 207.912 257.486 217.021 258.911 221.455Z" fill="#575A89"/>
<path d="M82.1201 346.472C78.9436 345.674 75.6706 345.326 72.3972 345.439C68.9579 345.629 65.5985 346.548 62.5423 348.136C59.4862 349.724 56.8033 351.944 54.6721 354.648C52.5409 357.352 51.0103 360.479 50.1819 363.82C49.3535 367.161 49.2464 370.64 49.8678 374.026C50.544 377.711 52.0633 381.185 53.7205 384.546C56.299 389.775 59.3916 394.992 64.1651 398.343C66.9575 400.304 70.1894 401.526 73.3828 402.728L98.5241 412.192C102.223 413.585 105.922 414.977 109.657 416.268C128.422 422.75 147.986 426.636 167.805 427.82C173.842 428.179 179.97 428.279 185.86 426.906C187.257 426.58 188.748 426.094 189.557 424.91C190.036 424.075 190.319 423.143 190.383 422.183L191.93 411.36C192.148 409.836 192.358 408.232 191.799 406.798C191.09 404.979 189.314 403.835 187.62 402.862C171.091 393.376 151.792 388.142 137.88 375.122C134.605 372.057 131.864 367.199 127.885 365.117C123.372 362.756 118.058 361.408 113.393 359.232C103.197 354.476 93.1714 349.01 82.1201 346.472Z" fill="#2F2E41"/>
<path opacity="0.1" d="M107.22 361.062C116.106 363.845 153.624 383.123 160.055 389.853C159.193 390.164 129.947 373.785 129.07 373.522C121.092 371.13 113.071 368.722 105.496 365.22C103.972 364.516 95.5951 361.205 95.9744 359.284C96.4025 357.116 105.642 360.568 107.22 361.062Z" fill="black"/>
<path d="M218.083 433.433C218.588 433.47 219.088 433.323 219.492 433.019C219.669 432.791 219.799 432.531 219.875 432.253C219.95 431.975 219.97 431.685 219.932 431.399C219.918 426.484 219.905 421.569 219.891 416.654C215.648 414.634 210.902 413.987 206.244 413.365L184.508 410.461C185.007 410.528 181.109 419.816 181.707 421.056C182.76 423.242 190.811 425.179 193.083 426.211C200.981 429.798 209.188 433.742 218.083 433.433Z" fill="#A0616A"/>
<path d="M149.887 416.603C145.783 417.257 141.203 417.834 138.545 421.026C135.175 425.075 136.61 431.11 138.217 436.125C138.456 437.139 138.936 438.082 139.615 438.872C140.713 439.954 142.394 440.112 143.932 440.21C147.675 440.446 151.658 440.632 154.928 438.797C156.477 437.929 157.757 436.659 159.2 435.625C161.611 434.021 164.262 432.81 167.053 432.037C172.184 430.424 177.466 429.336 182.817 428.79C184.915 428.577 187.054 428.439 189.027 427.696C191 426.954 192.828 425.481 193.401 423.453C194.158 420.774 192.6 418.042 191.105 415.692C189.243 412.765 187.271 409.683 184.495 407.528C180.445 404.384 178.441 406.797 174.362 408.809C166.64 412.617 158.39 415.245 149.887 416.603Z" fill="#A0616A"/>
<path d="M139.163 420.297L113.105 412.601C109.936 411.665 106.712 410.721 103.408 410.723C100.103 410.726 96.6453 411.808 94.502 414.322C92.4814 416.692 91.903 419.931 91.3993 423.003L90.3217 429.576C89.7741 432.916 89.2255 436.32 89.7184 439.668C90.2113 443.017 91.9219 446.362 94.8951 447.983C98.501 449.949 102.921 448.989 106.945 448.167C115.074 446.506 123.342 445.62 131.639 445.521C134.758 445.483 138.03 445.522 140.786 444.063C144.062 442.328 146.022 438.659 146.359 434.969C146.872 429.355 144.999 422.021 139.163 420.297Z" fill="#2F2E41"/>
<path d="M228.326 413.59C231.704 412.999 234.685 411.08 237.922 409.948C242.478 408.354 247.416 408.354 252.243 408.371C254.015 408.378 255.902 408.418 257.377 409.399C259.503 410.814 260.048 413.644 260.41 416.171C261.137 421.253 261.864 426.335 262.591 431.417C263.002 434.285 263.409 437.229 262.77 440.055C262.13 442.88 260.202 445.604 257.397 446.333C253.989 447.218 250.649 445.043 247.432 443.614C239.39 440.042 230.043 440.955 221.658 438.286C220.102 437.791 218.436 437.033 217.801 435.53C217.514 434.683 217.412 433.785 217.501 432.895C217.644 427.995 216.61 421.303 218.086 416.619C219.414 412.407 224.555 413.59 228.326 413.59Z" fill="#2F2E41"/>
<path d="M283.47 340.335C288.677 339.031 294.075 338.662 299.411 339.247C303.672 339.716 308.063 340.901 311.174 343.849C314.961 347.436 316.178 352.984 316.279 358.198C316.446 368.582 312.999 378.702 306.529 386.829C304.948 388.884 303.069 390.692 300.954 392.191C298.672 393.618 296.239 394.789 293.701 395.684L237.398 417.876C222.586 423.714 207.722 429.569 192.272 433.418C191.849 433.622 191.391 433.739 190.922 433.763C190.454 433.787 189.985 433.717 189.544 433.557C189.103 433.397 188.699 433.151 188.354 432.833C188.01 432.514 187.733 432.131 187.539 431.704C182.606 424.662 178.468 417.097 175.199 409.147C175.045 408.958 174.938 408.734 174.888 408.495C174.838 408.256 174.846 408.009 174.912 407.774C174.978 407.538 175.1 407.323 175.267 407.144C175.434 406.966 175.641 406.831 175.872 406.75L215.695 383.885C218.548 382.247 221.432 380.586 223.801 378.304C225.522 376.637 226.931 374.677 227.962 372.514C228.788 370.792 228.865 366.726 229.919 365.452C230.951 364.205 234.483 364.106 236.114 363.615C238.414 362.911 240.667 362.06 242.858 361.068C251.766 357.085 259.699 351.299 268.238 346.636C273.028 343.9 278.146 341.782 283.47 340.335Z" fill="#2F2E41"/>
<path opacity="0.1" d="M260.894 357.411C254.053 362.546 245.194 367.266 238.413 372.536C236.098 374.335 197.519 396.01 196.974 398.888C203.3 399.953 243.599 371.781 249.364 368.97C255.13 366.159 260.241 362.195 265.306 358.26C266.597 357.257 272.067 354.242 268.361 353.122C266.274 352.491 262.435 356.384 260.894 357.411Z" fill="black"/>
<path d="M213.817 190.078H153.759C151.319 190.078 148.979 191.046 147.254 192.771C145.528 194.495 144.559 196.833 144.559 199.271V202.638H143.906V210.167H144.559V215.437H143.906V219.955H144.559V275.509C144.559 277.947 145.528 280.285 147.254 282.009C148.979 283.734 151.319 284.702 153.759 284.702H213.817C216.257 284.702 218.597 283.734 220.323 282.009C222.048 280.285 223.017 277.947 223.017 275.509V199.271C223.017 196.833 222.048 194.495 220.323 192.771C218.597 191.046 216.257 190.078 213.817 190.078Z" fill="#3F3D56"/>
<path d="M223.363 119.065L192.901 103.12L150.836 109.643L142.133 148.055L163.798 147.222L169.85 133.11V146.99L179.847 146.606L185.649 124.138L189.275 148.055L224.813 147.33L223.363 119.065Z" fill="#2F2E41"/>
<path d="M119.896 335.36C121.401 337.605 123.164 339.801 125.581 341.013C128.602 342.526 132.331 342.256 135.356 340.751C138.355 339.144 140.809 336.685 142.41 333.684C145.72 327.842 146.406 320.851 145.993 314.151C145.579 307.45 144.148 300.852 143.514 294.168C143.053 289.31 143.016 284.422 142.979 279.542C142.971 278.517 142.988 277.412 143.594 276.584C144.327 275.584 145.67 275.308 146.859 274.955C153.541 272.971 157.976 266.713 161.155 260.515C163.278 256.376 165.125 251.852 164.715 247.219C164.306 242.586 160.973 237.919 156.343 237.446C152.526 237.057 149.002 239.479 146.248 242.15C139.302 248.928 134.838 257.843 133.573 267.463C132.969 272.173 133.142 277.012 131.86 281.585C129.122 291.349 120.557 297.336 116.288 306.122C111.585 315.803 114.181 326.794 119.896 335.36Z" fill="#A0616A"/>
<path d="M245.941 298.057C244.967 300.321 243.549 302.368 241.771 304.075C239.992 305.783 237.889 307.118 235.586 308C232.723 309.149 229.565 309.342 226.584 308.551C225.105 308.141 223.741 307.396 222.597 306.374C221.453 305.351 220.561 304.079 219.989 302.656C219.533 301.223 219.282 299.732 219.246 298.229C218.818 291.644 218.983 284.859 221.377 278.709C222.3 276.337 223.544 274.088 224.273 271.649C225.104 268.868 225.237 265.933 225.364 263.033L226.15 245.067C226.281 243.762 226.19 242.445 225.883 241.171C225.099 238.571 222.667 236.882 220.436 235.332C215.049 231.588 209.725 227.219 207.114 221.203C206.315 219.362 205.788 217.315 206.194 215.35C206.93 211.782 210.533 209.473 214.094 208.695C216.424 208.186 218.833 208.153 221.176 208.599C223.518 209.045 225.747 209.961 227.726 211.29C229.706 212.62 231.395 214.336 232.693 216.335C233.991 218.335 234.871 220.576 235.279 222.925C235.631 224.952 235.626 227.023 235.833 229.071C236.27 233.414 237.65 237.6 238.513 241.88C240.639 252.42 239.537 263.316 241.64 273.854C243.398 282.666 250.027 288.415 245.941 298.057Z" fill="#A0616A"/>
<path d="M184.592 230.496C188.753 230.496 192.126 227.125 192.126 222.966C192.126 218.808 188.753 215.437 184.592 215.437C180.431 215.437 177.058 218.808 177.058 222.966C177.058 227.125 180.431 230.496 184.592 230.496Z" fill="#D0CDE1"/>
<path d="M502.636 231.027C494.652 231.027 486.848 233.393 480.21 237.825C473.573 242.257 468.399 248.557 465.344 255.927C462.289 263.297 461.49 271.408 463.047 279.232C464.605 287.056 468.449 294.243 474.094 299.884C479.739 305.525 486.931 309.367 494.761 310.923C502.591 312.48 510.707 311.681 518.082 308.628C525.458 305.575 531.762 300.405 536.197 293.772C540.632 287.139 543 279.34 543 271.363C543 266.066 541.955 260.821 539.927 255.927C537.899 251.033 534.925 246.587 531.177 242.841C527.429 239.096 522.979 236.125 518.082 234.098C513.185 232.071 507.936 231.027 502.636 231.027ZM522.584 261.133C522.605 261.568 522.616 262.014 522.616 262.461C522.616 276.069 512.262 291.759 493.307 291.759C487.715 291.771 482.24 290.155 477.553 287.106C478.368 287.204 479.188 287.254 480.008 287.255C484.646 287.263 489.151 285.71 492.797 282.846C490.647 282.806 488.565 282.095 486.839 280.813C485.114 279.531 483.834 277.742 483.176 275.697C483.813 275.825 484.461 275.889 485.111 275.888C486.027 275.888 486.938 275.767 487.822 275.527C485.491 275.056 483.395 273.794 481.889 271.954C480.384 270.115 479.561 267.812 479.562 265.435V265.308C480.993 266.111 482.598 266.553 484.239 266.593C482.056 265.139 480.509 262.907 479.915 260.353C479.32 257.799 479.723 255.115 481.039 252.847C483.621 256.03 486.845 258.634 490.501 260.488C494.157 262.342 498.163 263.405 502.258 263.608C502.078 262.839 501.988 262.051 501.992 261.26C501.99 259.196 502.609 257.179 503.77 255.471C504.931 253.764 506.579 252.445 508.5 251.686C510.421 250.927 512.526 250.764 514.541 251.217C516.556 251.671 518.388 252.72 519.799 254.228C522.105 253.777 524.317 252.933 526.337 251.731C525.568 254.116 523.959 256.139 521.808 257.425C523.848 257.178 525.839 256.63 527.718 255.8C526.337 257.868 524.599 259.674 522.584 261.133Z" fill="#3F3D56"/>
<path d="M489.657 126.002C493.618 126.002 496.829 122.793 496.829 118.835C496.829 114.876 493.618 111.667 489.657 111.667C485.696 111.667 482.484 114.876 482.484 118.835C482.484 122.793 485.696 126.002 489.657 126.002Z" fill="#3F3D56"/>
<path d="M498.622 100.916H480.691C478.315 100.923 476.039 101.869 474.359 103.548C472.679 105.227 471.733 107.502 471.726 109.876V127.794C471.733 130.168 472.679 132.443 474.359 134.121C476.039 135.8 478.315 136.746 480.691 136.753H498.622C500.998 136.746 503.274 135.8 504.954 134.121C506.634 132.443 507.581 130.168 507.588 127.794V109.876C507.581 107.502 506.634 105.227 504.954 103.548C503.274 101.869 500.998 100.923 498.622 100.916H498.622ZM489.657 129.586C487.529 129.586 485.449 128.955 483.679 127.774C481.91 126.593 480.531 124.913 479.717 122.949C478.903 120.984 478.69 118.823 479.105 116.737C479.52 114.652 480.545 112.736 482.049 111.233C483.554 109.729 485.471 108.705 487.558 108.29C489.645 107.875 491.808 108.088 493.774 108.902C495.74 109.716 497.42 111.094 498.602 112.862C499.784 114.63 500.415 116.708 500.415 118.835C500.415 121.686 499.281 124.42 497.263 126.436C495.246 128.452 492.51 129.585 489.657 129.586ZM501.312 109.876C500.78 109.876 500.26 109.718 499.818 109.423C499.375 109.127 499.031 108.707 498.827 108.216C498.623 107.725 498.57 107.185 498.674 106.663C498.778 106.142 499.034 105.663 499.41 105.287C499.786 104.911 500.265 104.655 500.787 104.552C501.309 104.448 501.85 104.501 502.341 104.705C502.833 104.908 503.253 105.253 503.548 105.695C503.844 106.137 504.002 106.656 504.002 107.188C504.002 107.541 503.933 107.891 503.799 108.217C503.664 108.544 503.466 108.841 503.216 109.09C502.966 109.34 502.669 109.538 502.342 109.673C502.015 109.807 501.665 109.876 501.312 109.876V109.876Z" fill="#3F3D56"/>
<path d="M489.197 76.689C480.781 76.689 472.554 79.1829 465.556 83.8553C458.558 88.5277 453.104 95.1688 449.884 102.939C446.663 110.709 445.82 119.258 447.462 127.507C449.104 135.755 453.157 143.332 459.108 149.279C465.059 155.226 472.641 159.276 480.895 160.916C489.15 162.557 497.705 161.715 505.481 158.497C513.256 155.278 519.902 149.828 524.578 142.835C529.253 135.843 531.749 127.621 531.749 119.211C531.749 113.627 530.648 108.098 528.51 102.939C526.372 97.7796 523.237 93.092 519.286 89.1435C515.334 85.1949 510.644 82.0628 505.481 79.9258C500.318 77.7889 494.785 76.689 489.197 76.689ZM511.174 127.794C511.165 131.118 509.839 134.302 507.487 136.652C505.136 139.002 501.949 140.327 498.623 140.337H480.692C477.366 140.327 474.179 139.003 471.827 136.652C469.475 134.302 468.15 131.118 468.14 127.794V109.876C468.15 106.552 469.475 103.367 471.827 101.017C474.179 98.667 477.366 97.3424 480.692 97.3326H498.623C501.949 97.3424 505.136 98.667 507.487 101.017C509.839 103.367 511.165 106.552 511.175 109.876L511.174 127.794Z" fill="#3F3D56"/>
<path d="M316.59 0C308.309 0 300.214 2.45384 293.329 7.05123C286.443 11.6486 281.077 18.183 277.908 25.8282C274.739 33.4734 273.91 41.8859 275.525 50.002C277.141 58.118 281.128 65.5731 286.984 71.4245C292.839 77.2758 300.3 81.2607 308.422 82.8751C316.543 84.4894 324.962 83.6609 332.612 80.4942C340.263 77.3274 346.802 71.9648 351.403 65.0843C356.003 58.2038 358.459 50.1146 358.459 41.8395C358.459 36.3451 357.376 30.9044 355.272 25.8282C353.168 20.752 350.084 16.1397 346.196 12.2545C342.308 8.36935 337.692 5.28747 332.612 3.18484C327.533 1.08221 322.088 0 316.59 0ZM329.792 25.3167H324.432C320.773 25.3167 320.074 27.0463 320.074 29.5953V35.0119H328.79L327.651 43.5085H320.074V66.5706H310.357V43.5085H303.388V35.0119H310.357V28.7305C310.357 21.2049 315.58 17.1084 322.306 17.1084C325.525 17.1084 328.987 17.3511 329.792 17.4573L329.792 25.3167Z" fill="#3F3D56"/>
</g>
<defs>
<clipPath id="clip0">
<rect width="543" height="496" fill="white"/>
</clipPath>
</defs>
</svg>
