<svg width="424" height="372" viewBox="0 0 424 372" fill="none" xmlns="http://www.w3.org/2000/svg">
<g clip-path="url(#clip0)">
<path d="M214.117 375.785C214.013 375.616 211.576 371.555 210.731 363.12C209.956 355.382 210.454 342.339 217.232 324.145C230.073 289.678 214.273 261.868 214.111 261.591L214.891 261.14C214.932 261.21 219.009 268.301 221.417 279.591C224.6 294.56 223.441 310.124 218.077 324.459C205.258 358.867 214.788 375.156 214.886 375.316L214.117 375.785Z" fill="#3F3D56"/>
<path d="M209.095 259.567C212.329 259.567 214.951 256.951 214.951 253.723C214.951 250.496 212.329 247.879 209.095 247.879C205.861 247.879 203.239 250.496 203.239 253.723C203.239 256.951 205.861 259.567 209.095 259.567Z" fill="#30A6CA"/>
<path d="M227.564 281.146C230.798 281.146 233.42 278.529 233.42 275.302C233.42 272.074 230.798 269.458 227.564 269.458C224.33 269.458 221.708 272.074 221.708 275.302C221.708 278.529 224.33 281.146 227.564 281.146Z" fill="#3F3D56"/>
<path d="M214.952 295.531C218.186 295.531 220.808 292.915 220.808 289.687C220.808 286.46 218.186 283.843 214.952 283.843C211.718 283.843 209.096 286.46 209.096 289.687C209.096 292.915 211.718 295.531 214.952 295.531Z" fill="#30A6CA"/>
<path d="M230.267 307.669C233.501 307.669 236.123 305.052 236.123 301.825C236.123 298.597 233.501 295.981 230.267 295.981C227.033 295.981 224.411 298.597 224.411 301.825C224.411 305.052 227.033 307.669 230.267 307.669Z" fill="#30A6CA"/>
<path d="M210.447 326.55C213.681 326.55 216.303 323.933 216.303 320.706C216.303 317.478 213.681 314.862 210.447 314.862C207.213 314.862 204.591 317.478 204.591 320.706C204.591 323.933 207.213 326.55 210.447 326.55Z" fill="#3F3D56"/>
<path d="M217.654 376C217.654 376 211.798 361.615 229.366 350.825L217.654 376Z" fill="#3F3D56"/>
<path d="M210.452 375.739C210.452 375.739 207.787 360.441 187.159 360.572L210.452 375.739Z" fill="#3F3D56"/>
<path d="M76.2086 209.686H75.3076V322.486H76.2086V209.686Z" fill="#3F3D56"/>
<path d="M103.687 192.329H102.786V339.843H103.687V192.329Z" fill="#3F3D56"/>
<path d="M131.166 187.415H130.265V344.756H131.166V187.415Z" fill="#3F3D56"/>
<path d="M158.644 192.329H157.743V339.843H158.644V192.329Z" fill="#3F3D56"/>
<path d="M186.122 209.686H185.221V322.486H186.122V209.686Z" fill="#3F3D56"/>
<path d="M200.13 228.324H61.2979V229.223H200.13V228.324Z" fill="#3F3D56"/>
<path d="M209.546 265.636H51.8838V266.535H209.546V265.636Z" fill="#3F3D56"/>
<path d="M200.13 302.949H61.2979V303.848H200.13V302.949Z" fill="#3F3D56"/>
<path d="M346.036 229.223C389.573 229.223 424.867 194.001 424.867 150.552C424.867 107.104 389.573 71.8816 346.036 71.8816C302.499 71.8816 267.205 107.104 267.205 150.552C267.205 194.001 302.499 229.223 346.036 229.223Z" fill="#30A6CA"/>
<path d="M212.699 135.061H211.798V247.861H212.699V135.061Z" fill="#3F3D56"/>
<path d="M240.177 117.704H239.276V265.218H240.177V117.704Z" fill="#3F3D56"/>
<path d="M267.656 112.79H266.755V270.132H267.656V112.79Z" fill="#3F3D56"/>
<path d="M295.134 117.704H294.233V265.218H295.134V117.704Z" fill="#3F3D56"/>
<path d="M322.612 135.061H321.711V247.861H322.612V135.061Z" fill="#3F3D56"/>
<path d="M336.622 153.699H197.789V154.598H336.622V153.699Z" fill="#3F3D56"/>
<path d="M346.036 191.011H188.374V191.911H346.036V191.011Z" fill="#3F3D56"/>
<path d="M336.622 228.324H197.789V229.223H336.622V228.324Z" fill="#3F3D56"/>
<path d="M328.137 18.8701H328.137C306.452 18.8701 288.873 38.3395 288.873 62.3562V92.8696H298.277L303.721 81.5641L302.36 92.8696H362.803L367.752 82.5919L366.515 92.8696H373.32V68.9111C373.32 41.2743 353.091 18.8701 328.137 18.8701Z" fill="#2F2E41"/>
<path d="M309.185 73.7127C309.185 73.7127 321.44 102.25 305.1 107.958L321.44 161.771L349.218 160.14L356.572 142.202L354.938 115.296L352.486 97.3579C352.486 97.3579 335.329 101.435 336.963 71.2666L309.185 73.7127Z" fill="#FFB8B8"/>
<path d="M302.648 107.142C302.648 107.142 275.687 104.696 278.138 124.265C280.589 143.833 283.04 147.91 283.04 147.91L285.491 177.263L270.785 186.232H256.895C256.895 186.232 214.411 196.016 235.653 206.615C256.895 217.215 264.249 198.462 264.249 198.462C264.249 198.462 303.465 198.462 305.916 191.939C308.367 185.416 302.648 107.142 302.648 107.142Z" fill="#FFB8B8"/>
<path d="M354.938 98.9887C354.938 98.9887 380.265 90.0198 381.899 109.588C383.533 129.157 383.533 130.788 383.533 130.788L388.435 158.51C388.435 158.51 398.239 182.97 398.239 190.308C398.239 197.647 405.592 220.476 405.592 220.476C405.592 220.476 415.397 252.275 404.775 251.46C394.154 250.645 392.52 217.215 392.52 217.215L370.461 173.186L363.925 146.279L354.938 98.9887Z" fill="#FFB8B8"/>
<path d="M306.733 103.881H300.197L299.38 138.126C299.38 138.126 288.759 152.802 301.831 165.848L305.099 187.047L364.741 184.601L368.826 162.587C368.826 162.587 376.996 144.649 365.558 128.342L354.937 94.9121H349.218C349.218 94.9121 362.464 143.652 334.512 144.649C311.635 145.464 306.733 103.881 306.733 103.881Z" fill="white"/>
<path d="M401.61 306.356C383.188 327.039 360.757 343.78 335.671 355.568C335.662 314.767 336.144 281.627 336.144 281.627C336.144 281.627 332.675 316.646 328.27 358.863C303.102 369.467 276.055 374.912 248.736 374.876C248.249 374.876 247.763 374.876 247.276 374.867C269.754 294.263 302.544 201.882 303.449 199.333C303.456 199.315 303.462 199.297 303.467 199.279L305.445 192.697L306.287 189.897L307.17 186.961L308.368 182.969L361.473 181.342L362.96 184.673L368.009 196.015C368.45 196.142 368.868 196.338 369.248 196.595C378.807 202.857 390.857 250.653 401.61 306.356Z" fill="#2F2E41"/>
<path d="M367.192 174.817L302.648 177.263C302.648 177.263 299.702 199.277 302.648 199.277C303.465 199.277 370.46 204.985 369.643 195.201C368.826 185.416 367.192 174.817 367.192 174.817Z" fill="#3F3D56"/>
<path d="M321.812 83.0514C334.49 83.0514 344.768 72.7944 344.768 60.1418C344.768 47.4892 334.49 37.2322 321.812 37.2322C309.133 37.2322 298.855 47.4892 298.855 60.1418C298.855 72.7944 309.133 83.0514 321.812 83.0514Z" fill="#FFB8B8"/>
<path d="M339.3 30.849C335.357 25.7831 329.543 22.5745 323.052 22.5745H322.281C307.418 22.5745 295.369 35.9964 295.369 52.5532V52.5533H300.349L301.154 46.4438L302.333 52.5533H331.87L334.345 47.3845L333.726 52.5533H339.537C342.248 65.992 338.352 79.4308 327.849 92.8696H337.747L342.697 82.5321L341.459 92.8696H360.328L364.04 69.0932C364.04 51.2869 353.673 36.1876 339.3 30.849Z" fill="#2F2E41"/>
<path d="M344.725 33.3527C352.847 33.3527 359.431 26.7819 359.431 18.6764C359.431 10.5708 352.847 4 344.725 4C336.603 4 330.019 10.5708 330.019 18.6764C330.019 26.7819 336.603 33.3527 344.725 33.3527Z" fill="#2F2E41"/>
<path d="M237.288 198.786C241.372 198.786 244.682 195.482 244.682 191.407C244.682 187.332 241.372 184.028 237.288 184.028C233.205 184.028 229.895 187.332 229.895 191.407C229.895 195.482 233.205 198.786 237.288 198.786Z" fill="#30A6CA"/>
<path d="M237.288 191.407H76.1045V126.475H210.178L237.288 191.407Z" fill="#EFEFEF"/>
<path d="M238.025 191.899H56.3887V112.209H205.086L205.212 112.513L238.025 191.899ZM57.3745 190.915H236.552L204.426 113.193H57.3745V190.915Z" fill="#3F3D56"/>
<path d="M183.068 136.805H102.723V144.183H183.068V136.805Z" fill="#3F3D56"/>
<path d="M183.068 152.054H102.723V159.433H183.068V152.054Z" fill="#3F3D56"/>
<path d="M183.068 167.303H102.723V174.682H183.068V167.303Z" fill="#3F3D56"/>
<path d="M7.27275 267.59C6.20363 267.59 5.15852 267.274 4.26958 266.681C3.38064 266.088 2.6878 265.246 2.27867 264.26C1.86953 263.274 1.76248 262.19 1.97106 261.143C2.17963 260.097 2.69446 259.135 3.45044 258.381C4.20642 257.627 5.1696 257.113 6.21818 256.905C7.26675 256.697 8.35363 256.803 9.34137 257.212C10.3291 257.62 11.1733 258.311 11.7673 259.199C12.3613 260.086 12.6783 261.129 12.6783 262.196C12.6767 263.626 12.1066 264.997 11.0932 266.008C10.0799 267.02 8.70589 267.589 7.27275 267.59ZM7.27275 257.7C6.38182 257.7 5.51089 257.964 4.77011 258.458C4.02933 258.952 3.45196 259.654 3.11102 260.475C2.77007 261.297 2.68086 262.201 2.85467 263.073C3.02849 263.945 3.45751 264.746 4.0875 265.374C4.71748 266.003 5.52013 266.431 6.39394 266.605C7.26775 266.778 8.17349 266.689 8.9966 266.349C9.81971 266.009 10.5232 265.432 11.0182 264.693C11.5132 263.954 11.7774 263.085 11.7774 262.196C11.7761 261.004 11.301 259.861 10.4565 259.018C9.61204 258.175 8.46704 257.701 7.27275 257.7Z" fill="#2F2E41"/>
<path d="M197.29 64.5252H188.397V55.6506H197.29V64.5252ZM189.082 63.8425H196.606V56.3333H189.082V63.8425Z" fill="#3F3D56"/>
<path d="M29.1075 66.3593L23.042 59.8696L29.545 53.8164L35.6105 60.3061L29.1075 66.3593ZM24.0088 59.9032L29.1412 65.3945L34.6437 60.2726L29.5113 54.7812L24.0088 59.9032Z" fill="#2F2E41"/>
</g>
<defs>
<clipPath id="clip0">
<rect width="423" height="372" fill="white" transform="translate(0.867188)"/>
</clipPath>
</defs>
</svg>
