<svg width="1414" height="478" viewBox="0 0 1414 478" fill="none" xmlns="http://www.w3.org/2000/svg">
<path d="M1397.82 179.602C1399.92 204.088 1382.8 229.193 1349.68 253.635C1316.59 278.057 1267.68 301.712 1206.53 323.309C1084.24 366.502 913.15 401.429 722.241 417.84C531.332 434.252 356.788 429.038 228.923 407.349C164.986 396.505 112.75 381.545 75.9793 363.129C39.1787 344.698 18.0199 322.883 15.915 298.398C13.8101 273.912 30.9354 248.807 64.0504 224.365C97.1385 199.943 146.056 176.288 207.203 154.691C329.491 111.498 500.584 76.5712 691.493 60.1596C882.402 43.7481 1056.95 48.9623 1184.81 70.6507C1248.75 81.4955 1300.98 96.4547 1337.75 114.871C1374.55 133.302 1395.71 155.117 1397.82 179.602Z" stroke="url(#paint0_linear)" stroke-opacity="0.7"/>
<path d="M1256.8 162.116C1258.5 181.858 1244.86 202.109 1218.4 221.835C1191.97 241.541 1152.87 260.621 1103.99 278.031C1006.23 312.848 869.426 340.951 716.76 354.075C564.094 367.199 424.503 362.856 322.235 345.234C271.097 336.422 229.32 324.295 199.911 309.389C170.474 294.469 153.575 276.843 151.878 257.101C150.181 237.358 163.823 217.107 190.282 197.382C216.716 177.675 255.81 158.596 304.694 141.186C402.454 106.368 539.255 78.265 691.921 65.1411C844.587 52.0171 984.178 56.3602 1086.45 73.9825C1137.58 82.7942 1179.36 94.9215 1208.77 109.827C1238.21 124.748 1255.11 142.374 1256.8 162.116Z" stroke="url(#paint1_linear)" stroke-opacity="0.7"/>
<path d="M1103.29 162.766C1104.4 175.676 1094.5 189.073 1075.23 202.246C1056.01 215.394 1027.61 228.203 992.138 239.966C921.192 263.49 822.022 282.798 711.448 292.303C600.874 301.809 499.864 299.71 425.944 288.639C388.981 283.103 358.819 275.328 337.629 265.655C316.397 255.963 304.354 244.452 303.244 231.542C302.134 218.632 312.036 205.236 331.303 192.062C350.531 178.914 378.923 166.106 414.399 154.342C485.345 130.818 584.515 111.511 695.089 102.005C805.663 92.4996 906.673 94.5989 980.593 105.67C1017.56 111.205 1047.72 118.981 1068.91 128.654C1090.14 138.346 1102.18 149.856 1103.29 162.766Z" stroke="url(#paint2_linear)" stroke-opacity="0.7"/>
<g filter="url(#filter0_d)">
<rect x="912.867" y="292" width="72" height="72" rx="5" fill="white"/>
</g>
<path d="M972.867 333.207C972.867 339.168 970.798 344 964.752 344H933.631C927.581 344 924.867 339.168 924.867 333.207V321.792C924.867 315.831 927.324 311 933.372 311H965.007C971.057 311 972.867 315.831 972.867 321.792V333.207Z" fill="url(#paint3_radial)"/>
<path d="M943.867 320L956.867 327.001L943.867 334V320Z" fill="white"/>
<g filter="url(#filter1_d)">
<rect x="697.867" y="379" width="72" height="72" rx="5" fill="white"/>
</g>
<path d="M725.02 435C742.004 435 751.29 420.764 751.29 408.422C751.29 408.018 751.284 407.615 751.263 407.216C753.068 405.898 754.633 404.249 755.867 402.379C754.214 403.121 752.432 403.622 750.567 403.849C752.473 402.692 753.934 400.862 754.628 398.683C752.845 399.75 750.866 400.532 748.764 400.952C747.075 399.134 744.683 398 742.024 398C736.925 398 732.794 402.184 732.794 407.337C732.794 408.071 732.875 408.781 733.031 409.471C725.358 409.075 718.55 405.361 713.999 399.71C713.208 401.089 712.749 402.692 712.749 404.402C712.749 407.642 714.377 410.502 716.859 412.178C715.345 412.13 713.919 411.71 712.676 411.009C712.674 411.051 712.674 411.088 712.674 411.128C712.674 415.654 715.858 419.43 720.078 420.285C719.308 420.497 718.49 420.615 717.648 420.615C717.053 420.615 716.475 420.552 715.912 420.442C717.09 424.158 720.498 426.857 724.536 426.933C721.377 429.44 717.395 430.932 713.069 430.932C712.325 430.932 711.592 430.888 710.867 430.801C714.952 433.453 719.805 435 725.02 435Z" fill="#1DA1F2"/>
<g filter="url(#filter2_d)">
<rect x="134.867" y="241" width="72" height="72" rx="5" fill="white"/>
<path d="M177.946 276.048H182.764V268.658H176.781H175.544C175.544 268.658 171.004 268.548 168.11 272.218C168.11 272.218 166.139 274.032 166.109 279.342H166.107V284.884H158.971V292.73H166.107V313H174.339V292.73H181.42L182.406 284.884H174.339V279.342H174.336C174.357 278.723 174.639 275.992 177.946 276.048Z" fill="#4161A2"/>
</g>
<g filter="url(#filter3_d)">
<rect x="219.867" y="379" width="72" height="72" rx="5" fill="white"/>
</g>
<path d="M275.867 390H235.867C233.106 390 230.867 392.239 230.867 395V435C230.867 437.761 233.106 440 235.867 440H275.867C278.629 440 280.867 437.761 280.867 435V395C280.867 392.239 278.629 390 275.867 390Z" fill="#00AEF7"/>
<path fill-rule="evenodd" clip-rule="evenodd" d="M261.928 425.443C262.249 425.67 262.663 425.727 263.032 425.587C263.401 425.447 263.672 425.131 263.754 424.75C264.62 420.677 266.722 410.368 267.511 406.663C267.571 406.384 267.471 406.094 267.252 405.907C267.033 405.721 266.728 405.667 266.457 405.768C262.276 407.316 249.398 412.147 244.135 414.095C243.801 414.219 243.583 414.54 243.594 414.892C243.606 415.245 243.843 415.551 244.186 415.654C246.546 416.36 249.644 417.342 249.644 417.342C249.644 417.342 251.093 421.715 251.847 423.939C251.942 424.218 252.161 424.437 252.449 424.513C252.736 424.588 253.043 424.509 253.258 424.307C254.47 423.162 256.345 421.392 256.345 421.392C256.345 421.392 259.907 424.004 261.928 425.443ZM250.948 416.789L252.622 422.312L252.994 418.815C252.994 418.815 259.463 412.98 263.151 409.654C263.259 409.556 263.274 409.393 263.184 409.278C263.095 409.163 262.932 409.137 262.809 409.214C258.535 411.944 250.948 416.789 250.948 416.789Z" fill="white"/>
<g filter="url(#filter4_d)">
<rect x="513.867" y="256" width="72" height="72" rx="5" fill="white"/>
</g>
<path d="M564.795 281.908C560.954 281.908 557.829 278.833 557.829 275.055C557.829 274.472 557.349 274 556.757 274H551.015C550.424 274 549.943 274.472 549.943 275.055V298.213C549.943 300.435 548.106 302.242 545.848 302.242C543.59 302.242 541.753 300.435 541.753 298.213C541.753 295.992 543.59 294.184 545.848 294.184C546.44 294.184 546.92 293.712 546.92 293.13V287.481C546.92 286.899 546.44 286.426 545.848 286.426C539.242 286.426 533.867 291.714 533.867 298.213C533.867 304.713 539.242 310 545.848 310C552.454 310 557.829 304.713 557.829 298.213V287.962C559.963 289.081 562.337 289.666 564.795 289.666C565.387 289.666 565.867 289.194 565.867 288.611V282.962C565.867 282.38 565.387 281.908 564.795 281.908Z" fill="#454545"/>
<g filter="url(#filter5_d)">
<rect x="1132.87" y="292" width="72" height="72" rx="5" fill="white"/>
</g>
<path d="M1194.81 343.079C1194.81 349.075 1189.94 353.939 1183.95 353.939H1152.79C1146.79 353.939 1141.93 349.075 1141.93 343.079V311.924C1141.93 305.926 1146.79 301.061 1152.79 301.061H1183.95C1189.94 301.061 1194.81 305.926 1194.81 311.924V343.079Z" fill="url(#paint4_radial)"/>
<path d="M1176.57 311.072C1178.75 311.077 1180.83 311.945 1182.37 313.484C1183.91 315.023 1184.78 317.109 1184.78 319.286V335.692C1184.78 337.869 1183.91 339.955 1182.37 341.494C1180.83 343.033 1178.75 343.9 1176.57 343.906H1160.16C1157.99 343.902 1155.9 343.037 1154.36 341.5C1153.59 340.74 1152.98 339.836 1152.56 338.839C1152.15 337.841 1151.94 336.772 1151.94 335.692V319.286C1151.95 317.107 1152.81 315.02 1154.36 313.48C1155.9 311.941 1157.99 311.075 1160.16 311.072H1176.57ZM1176.57 307.79H1160.16C1157.12 307.799 1154.19 309.014 1152.04 311.17C1149.88 313.326 1148.67 316.248 1148.66 319.297V335.703C1148.67 338.752 1149.88 341.673 1152.04 343.829C1154.19 345.985 1157.12 347.2 1160.16 347.209H1176.57C1179.61 347.201 1182.53 345.992 1184.68 343.845C1186.84 341.698 1188.06 338.788 1188.08 335.747V319.34C1188.08 316.285 1186.87 313.354 1184.71 311.189C1182.55 309.024 1179.63 307.802 1176.57 307.79Z" fill="white"/>
<path d="M1178.87 319.489C1178.38 319.491 1177.9 319.347 1177.49 319.075C1177.08 318.803 1176.76 318.415 1176.57 317.961C1176.38 317.506 1176.33 317.006 1176.42 316.523C1176.52 316.04 1176.75 315.596 1177.1 315.248C1177.45 314.9 1177.89 314.663 1178.38 314.568C1178.86 314.472 1179.36 314.522 1179.82 314.712C1180.27 314.901 1180.66 315.221 1180.93 315.631C1181.2 316.042 1181.35 316.524 1181.35 317.016C1181.35 317.341 1181.28 317.663 1181.16 317.964C1181.04 318.265 1180.85 318.538 1180.62 318.768C1180.39 318.998 1180.12 319.18 1179.82 319.304C1179.52 319.428 1179.2 319.491 1178.87 319.489ZM1168.17 321.105C1169.48 321.105 1170.75 321.492 1171.84 322.217C1172.92 322.942 1173.77 323.972 1174.27 325.177C1174.77 326.382 1174.9 327.708 1174.64 328.988C1174.39 330.267 1173.76 331.443 1172.84 332.365C1171.91 333.287 1170.74 333.916 1169.46 334.17C1168.18 334.425 1166.85 334.294 1165.64 333.795C1164.44 333.296 1163.41 332.45 1162.68 331.366C1161.96 330.281 1161.57 329.006 1161.57 327.701C1161.57 325.952 1162.27 324.274 1163.5 323.037C1164.74 321.8 1166.42 321.105 1168.17 321.105ZM1168.17 317.807C1166.21 317.807 1164.3 318.388 1162.67 319.475C1161.04 320.562 1159.77 322.107 1159.02 323.915C1158.28 325.723 1158.08 327.712 1158.46 329.631C1158.84 331.55 1159.79 333.313 1161.17 334.697C1162.56 336.081 1164.32 337.023 1166.24 337.405C1168.16 337.786 1170.15 337.59 1171.96 336.842C1173.77 336.093 1175.31 334.825 1176.4 333.198C1177.49 331.571 1178.07 329.658 1178.07 327.701C1178.07 325.077 1177.03 322.561 1175.17 320.705C1173.31 318.85 1170.8 317.807 1168.17 317.807Z" fill="white"/>
<defs>
<filter id="filter0_d" x="897.867" y="281" width="102" height="102" filterUnits="userSpaceOnUse" color-interpolation-filters="sRGB">
<feFlood flood-opacity="0" result="BackgroundImageFix"/>
<feColorMatrix in="SourceAlpha" type="matrix" values="0 0 0 0 0 0 0 0 0 0 0 0 0 0 0 0 0 0 127 0"/>
<feOffset dy="4"/>
<feGaussianBlur stdDeviation="7.5"/>
<feColorMatrix type="matrix" values="0 0 0 0 0.783594 0 0 0 0 0.783594 0 0 0 0 0.783594 0 0 0 0.25 0"/>
<feBlend mode="normal" in2="BackgroundImageFix" result="effect1_dropShadow"/>
<feBlend mode="normal" in="SourceGraphic" in2="effect1_dropShadow" result="shape"/>
</filter>
<filter id="filter1_d" x="682.867" y="368" width="102" height="102" filterUnits="userSpaceOnUse" color-interpolation-filters="sRGB">
<feFlood flood-opacity="0" result="BackgroundImageFix"/>
<feColorMatrix in="SourceAlpha" type="matrix" values="0 0 0 0 0 0 0 0 0 0 0 0 0 0 0 0 0 0 127 0"/>
<feOffset dy="4"/>
<feGaussianBlur stdDeviation="7.5"/>
<feColorMatrix type="matrix" values="0 0 0 0 0.783594 0 0 0 0 0.783594 0 0 0 0 0.783594 0 0 0 0.25 0"/>
<feBlend mode="normal" in2="BackgroundImageFix" result="effect1_dropShadow"/>
<feBlend mode="normal" in="SourceGraphic" in2="effect1_dropShadow" result="shape"/>
</filter>
<filter id="filter2_d" x="119.867" y="230" width="102" height="102" filterUnits="userSpaceOnUse" color-interpolation-filters="sRGB">
<feFlood flood-opacity="0" result="BackgroundImageFix"/>
<feColorMatrix in="SourceAlpha" type="matrix" values="0 0 0 0 0 0 0 0 0 0 0 0 0 0 0 0 0 0 127 0"/>
<feOffset dy="4"/>
<feGaussianBlur stdDeviation="7.5"/>
<feColorMatrix type="matrix" values="0 0 0 0 0.783594 0 0 0 0 0.783594 0 0 0 0 0.783594 0 0 0 0.25 0"/>
<feBlend mode="normal" in2="BackgroundImageFix" result="effect1_dropShadow"/>
<feBlend mode="normal" in="SourceGraphic" in2="effect1_dropShadow" result="shape"/>
</filter>
<filter id="filter3_d" x="204.867" y="368" width="102" height="102" filterUnits="userSpaceOnUse" color-interpolation-filters="sRGB">
<feFlood flood-opacity="0" result="BackgroundImageFix"/>
<feColorMatrix in="SourceAlpha" type="matrix" values="0 0 0 0 0 0 0 0 0 0 0 0 0 0 0 0 0 0 127 0"/>
<feOffset dy="4"/>
<feGaussianBlur stdDeviation="7.5"/>
<feColorMatrix type="matrix" values="0 0 0 0 0.783594 0 0 0 0 0.783594 0 0 0 0 0.783594 0 0 0 0.25 0"/>
<feBlend mode="normal" in2="BackgroundImageFix" result="effect1_dropShadow"/>
<feBlend mode="normal" in="SourceGraphic" in2="effect1_dropShadow" result="shape"/>
</filter>
<filter id="filter4_d" x="498.867" y="245" width="102" height="102" filterUnits="userSpaceOnUse" color-interpolation-filters="sRGB">
<feFlood flood-opacity="0" result="BackgroundImageFix"/>
<feColorMatrix in="SourceAlpha" type="matrix" values="0 0 0 0 0 0 0 0 0 0 0 0 0 0 0 0 0 0 127 0"/>
<feOffset dy="4"/>
<feGaussianBlur stdDeviation="7.5"/>
<feColorMatrix type="matrix" values="0 0 0 0 0.783594 0 0 0 0 0.783594 0 0 0 0 0.783594 0 0 0 0.25 0"/>
<feBlend mode="normal" in2="BackgroundImageFix" result="effect1_dropShadow"/>
<feBlend mode="normal" in="SourceGraphic" in2="effect1_dropShadow" result="shape"/>
</filter>
<filter id="filter5_d" x="1117.87" y="281" width="102" height="102" filterUnits="userSpaceOnUse" color-interpolation-filters="sRGB">
<feFlood flood-opacity="0" result="BackgroundImageFix"/>
<feColorMatrix in="SourceAlpha" type="matrix" values="0 0 0 0 0 0 0 0 0 0 0 0 0 0 0 0 0 0 127 0"/>
<feOffset dy="4"/>
<feGaussianBlur stdDeviation="7.5"/>
<feColorMatrix type="matrix" values="0 0 0 0 0.783594 0 0 0 0 0.783594 0 0 0 0 0.783594 0 0 0 0.25 0"/>
<feBlend mode="normal" in2="BackgroundImageFix" result="effect1_dropShadow"/>
<feBlend mode="normal" in="SourceGraphic" in2="effect1_dropShadow" result="shape"/>
</filter>
<linearGradient id="paint0_linear" x1="691.45" y1="59.6615" x2="722.284" y2="418.339" gradientUnits="userSpaceOnUse">
<stop stop-color="#FFD037" stop-opacity="0"/>
<stop offset="1" stop-color="#FFD037"/>
</linearGradient>
<linearGradient id="paint1_linear" x1="691.879" y1="64.6429" x2="716.802" y2="354.574" gradientUnits="userSpaceOnUse">
<stop stop-color="#FFD037" stop-opacity="0"/>
<stop offset="1" stop-color="#FFD037"/>
</linearGradient>
<linearGradient id="paint2_linear" x1="695.046" y1="101.507" x2="711.491" y2="292.801" gradientUnits="userSpaceOnUse">
<stop stop-color="#FFD037" stop-opacity="0"/>
<stop offset="1" stop-color="#FFD037"/>
</linearGradient>
<radialGradient id="paint3_radial" cx="0" cy="0" r="1" gradientUnits="userSpaceOnUse" gradientTransform="translate(948.086 350.146) scale(46.1767 45.5032)">
<stop offset="0.168367" stop-color="#C2181E"/>
<stop offset="0.765306" stop-color="#DE2925"/>
</radialGradient>
<radialGradient id="paint4_radial" cx="0" cy="0" r="1" gradientUnits="userSpaceOnUse" gradientTransform="translate(1157.42 358.034) scale(70.0724 70.0704)">
<stop offset="0.0969388" stop-color="#FFD879"/>
<stop offset="0.153868" stop-color="#FCCB76"/>
<stop offset="0.258281" stop-color="#F5AA6C"/>
<stop offset="0.397556" stop-color="#E9755E"/>
<stop offset="0.44898" stop-color="#E45F58"/>
<stop offset="0.678571" stop-color="#D22A9C"/>
<stop offset="1" stop-color="#6968DF"/>
</radialGradient>
</defs>
</svg>
