<svg width="620" height="522" viewBox="0 0 620 522" fill="none" xmlns="http://www.w3.org/2000/svg">
<g clip-path="url(#clip0)">
<path d="M68.5083 497.38C68.5083 513.817 58.7202 519.557 46.6448 519.557C46.3651 519.557 46.0858 519.554 45.8069 519.547C45.2474 519.535 44.6933 519.509 44.1458 519.472C33.248 518.702 24.7812 512.667 24.7812 497.38C24.7812 481.56 45.033 461.597 46.5542 460.119L46.5569 460.117C46.6155 460.06 46.6448 460.032 46.6448 460.032C46.6448 460.032 68.5083 480.943 68.5083 497.38Z" fill="#30A6CA"/>
<path d="M45.8493 517.042L53.8458 505.888L45.8293 518.267L45.808 519.547C45.2485 519.535 44.6944 519.509 44.1469 519.471L45.0088 503.026L45.0021 502.898L45.0168 502.874L45.098 501.321L37.0615 488.912L45.1233 500.156L45.142 500.486L45.7934 488.061L38.9131 475.238L45.8773 485.88L46.5553 460.119L46.558 460.031V460.117L46.4448 480.43L53.2943 472.377L46.4168 482.18L46.2356 493.305L52.631 482.628L46.209 494.942L46.1077 501.127L55.3924 486.267L46.0731 503.285L45.8493 517.042Z" fill="#3F3D56"/>
<path d="M537.24 288.524C537.24 417.412 478.619 519.09 406.428 521.897C312.285 525.557 189.245 431.85 275.615 288.524C342.17 178.081 334.182 55.1521 406.428 55.1521C478.673 55.1521 537.24 159.636 537.24 288.524Z" fill="#F2F2F2"/>
<path d="M461.296 357.044H274.777V518.74H461.296V357.044Z" fill="#30A6CA"/>
<path d="M0 518.74H620" stroke="#3F3D56" stroke-width="2" stroke-miterlimit="10"/>
<path d="M409.451 5.58147e-06C405.351 0.000359638 401.376 1.40925 398.193 3.99003C395.011 6.57081 392.815 10.1663 391.974 14.1725C391.133 18.1788 391.699 22.3518 393.577 25.9906C395.455 29.6295 398.529 32.5125 402.285 34.1555C402.21 32.7843 402.314 31.4092 402.596 30.0651C402.939 28.6167 404.892 20.3484 404.892 20.3484C404.501 19.4609 404.306 18.5005 404.318 17.5313C404.318 14.8893 405.848 12.9157 407.761 12.9157C409.388 12.9157 410.169 14.1333 410.169 15.5896C410.169 17.221 409.125 19.6561 408.59 21.9162C408.484 22.3348 408.478 22.7726 408.572 23.1942C408.666 23.6158 408.858 24.0094 409.133 24.3431C409.408 24.6769 409.757 24.9416 410.153 25.1158C410.549 25.29 410.98 25.3689 411.412 25.346C414.792 25.346 417.072 21.009 417.072 15.8681C417.072 11.9608 414.434 9.04022 409.643 9.04022C408.496 8.99525 407.352 9.18356 406.281 9.59368C405.21 10.0038 404.233 10.6272 403.411 11.4259C402.588 12.2246 401.937 13.182 401.497 14.2398C401.057 15.2976 400.837 16.4337 400.85 17.5791C400.797 18.8492 401.217 20.0939 402.03 21.0726C402.172 21.1901 402.274 21.3497 402.32 21.5285C402.366 21.7073 402.353 21.896 402.285 22.0674C402.197 22.3936 402.006 23.1815 401.918 23.4998C401.903 23.596 401.865 23.6873 401.807 23.7659C401.75 23.8445 401.674 23.9083 401.587 23.9518C401.499 23.9954 401.403 24.0176 401.305 24.0165C401.208 24.0153 401.112 23.991 401.025 23.9454C398.53 22.9268 397.366 20.2052 397.366 17.1334C397.366 12.0722 401.647 6.00028 410.129 6.00028C416.945 6.00028 421.433 10.9263 421.433 16.2103C421.433 23.2053 417.535 28.4258 411.795 28.4258C409.866 28.4258 408.056 27.3833 407.435 26.2055C407.435 26.2055 406.398 30.3118 406.175 31.1076C405.763 32.4597 405.159 33.746 404.381 34.9274C406.837 35.6515 409.421 35.84 411.956 35.4799C414.491 35.1198 416.92 34.2196 419.076 32.8404C421.232 31.4611 423.066 29.6351 424.453 27.4862C425.84 25.3373 426.748 22.9157 427.116 20.3856C427.483 17.8556 427.301 15.2763 426.582 12.8227C425.863 10.3691 424.623 8.09851 422.948 6.16502C421.273 4.23154 419.2 2.68033 416.872 1.61662C414.543 0.552911 412.012 0.00157524 409.451 0L409.451 5.58147e-06Z" fill="#3F3D56"/>
<path d="M585.745 128.92C584.335 129.542 582.842 129.953 581.312 130.138C582.925 129.174 584.132 127.658 584.708 125.872C583.194 126.772 581.535 127.405 579.806 127.742C578.748 126.613 577.374 125.827 575.863 125.487C574.352 125.148 572.773 125.27 571.333 125.838C569.892 126.407 568.656 127.395 567.786 128.674C566.916 129.953 566.451 131.464 566.453 133.011C566.45 133.603 566.517 134.193 566.652 134.769C563.582 134.617 560.577 133.821 557.836 132.432C555.094 131.043 552.676 129.092 550.741 126.708C549.753 128.407 549.452 130.418 549.898 132.331C550.343 134.244 551.503 135.916 553.14 137.005C551.91 136.975 550.706 136.645 549.633 136.043V136.138C549.632 137.918 550.249 139.644 551.378 141.022C552.507 142.4 554.079 143.345 555.827 143.698C555.164 143.878 554.48 143.969 553.794 143.969C553.307 143.969 552.821 143.921 552.343 143.825C552.836 145.358 553.796 146.698 555.09 147.658C556.384 148.618 557.946 149.151 559.557 149.181C556.823 151.326 553.445 152.49 549.967 152.484C549.352 152.483 548.737 152.445 548.126 152.372C551.641 154.656 555.746 155.867 559.94 155.858C574.154 155.858 581.918 144.104 581.918 133.91C581.918 133.576 581.91 133.241 581.894 132.915C583.405 131.822 584.709 130.469 585.745 128.92Z" fill="#3F3D56"/>
<path d="M288.683 22.6909H261.452C261.004 22.6911 260.574 22.869 260.257 23.1853C259.94 23.5016 259.762 23.9306 259.762 24.378V51.5623C259.762 52.0097 259.94 52.4387 260.257 52.755C260.574 53.0714 261.004 53.2492 261.452 53.2494H275.068V41.1533H271.408V36.6969H275.068V33.4023C275.068 29.4552 277.81 27.3065 281.341 27.3065C283.031 27.3065 284.849 27.4338 285.271 27.4896V31.6118H282.457C280.536 31.6118 280.169 32.519 280.169 33.8559V36.6969H284.745L284.147 41.1533H280.169V53.2494H288.683C289.131 53.2492 289.561 53.0714 289.878 52.755C290.195 52.4387 290.373 52.0097 290.373 51.5623V24.378C290.373 23.9306 290.195 23.5016 289.878 23.1853C289.561 22.8689 289.131 22.6911 288.683 22.6909Z" fill="#3F3D56"/>
<path d="M292.117 135.848C293.807 135.853 295.426 136.525 296.621 137.718C297.816 138.911 298.489 140.527 298.494 142.214V154.947C298.489 156.634 297.816 158.25 296.621 159.443C295.426 160.636 293.807 161.308 292.117 161.313H279.362C277.672 161.308 276.053 160.636 274.858 159.443C273.663 158.25 272.989 156.634 272.985 154.947V142.214C272.989 140.527 273.663 138.911 274.858 137.718C276.053 136.525 277.672 135.853 279.362 135.848H292.117ZM292.117 133.301H279.362C276.996 133.308 274.729 134.249 273.056 135.919C271.383 137.589 270.441 139.852 270.434 142.214V154.947C270.441 157.309 271.383 159.572 273.056 161.242C274.729 162.912 276.996 163.853 279.362 163.86H292.117C294.483 163.853 296.749 162.912 298.422 161.242C300.095 159.572 301.038 157.309 301.045 154.947V142.214C301.038 139.852 300.095 137.589 298.422 135.919C296.749 134.249 294.483 133.308 292.117 133.301Z" fill="#3F3D56"/>
<path d="M294.03 142.214C293.652 142.214 293.282 142.102 292.968 141.892C292.653 141.682 292.408 141.384 292.263 141.035C292.118 140.686 292.08 140.302 292.154 139.932C292.228 139.561 292.41 139.221 292.678 138.954C292.945 138.687 293.286 138.505 293.657 138.431C294.028 138.357 294.413 138.395 294.763 138.54C295.112 138.684 295.411 138.929 295.621 139.243C295.831 139.557 295.944 139.926 295.944 140.304C295.944 140.555 295.895 140.804 295.799 141.036C295.703 141.268 295.562 141.479 295.385 141.656C295.207 141.834 294.996 141.974 294.763 142.07C294.531 142.166 294.282 142.215 294.03 142.214ZM285.74 143.487C286.749 143.487 287.735 143.786 288.574 144.346C289.413 144.905 290.067 145.701 290.453 146.631C290.84 147.562 290.941 148.586 290.744 149.574C290.547 150.562 290.061 151.47 289.347 152.182C288.634 152.894 287.725 153.379 286.735 153.576C285.746 153.772 284.72 153.671 283.787 153.286C282.855 152.9 282.058 152.248 281.498 151.41C280.937 150.572 280.638 149.588 280.638 148.58C280.639 147.23 281.177 145.935 282.134 144.98C283.09 144.026 284.387 143.489 285.74 143.487ZM285.74 140.941C284.226 140.941 282.747 141.389 281.488 142.228C280.23 143.068 279.249 144.261 278.669 145.657C278.09 147.053 277.939 148.589 278.234 150.071C278.529 151.553 279.258 152.914 280.328 153.982C281.399 155.051 282.762 155.778 284.247 156.073C285.731 156.368 287.27 156.217 288.668 155.639C290.067 155.06 291.262 154.081 292.103 152.825C292.944 151.568 293.393 150.091 293.393 148.58C293.392 146.554 292.586 144.612 291.151 143.179C289.716 141.746 287.769 140.941 285.74 140.941Z" fill="#3F3D56"/>
<path d="M514.884 7.69065H489.342C489.014 7.67481 488.686 7.72385 488.376 7.83497C488.067 7.94609 487.783 8.1171 487.54 8.33818C487.297 8.55926 487.1 8.82606 486.961 9.12326C486.821 9.42047 486.742 9.74223 486.728 10.0701V35.623C486.745 36.3105 487.026 36.965 487.512 37.452C487.999 37.9391 488.654 38.2215 489.342 38.2412H514.876C515.548 38.2149 516.182 37.9254 516.642 37.4353C517.101 36.9452 517.349 36.2941 517.331 35.623V10.0701C517.336 9.75071 517.276 9.43363 517.154 9.13832C517.032 8.84301 516.851 8.57572 516.622 8.35286C516.393 8.13001 516.12 7.9563 515.821 7.84242C515.523 7.72854 515.203 7.67689 514.884 7.69065ZM496.214 33.156H491.829V19.548H496.214V33.156ZM494.173 17.4789H494.141C493.51 17.4747 492.907 17.221 492.463 16.7735C492.019 16.326 491.771 15.7211 491.773 15.0913C491.776 14.4616 492.028 13.8584 492.474 13.4138C492.921 12.9693 493.526 12.7197 494.157 12.7197C494.788 12.7197 495.393 12.9693 495.84 13.4138C496.287 13.8584 496.539 14.4616 496.541 15.0913C496.543 15.7211 496.295 16.326 495.851 16.7735C495.407 17.221 494.804 17.4747 494.173 17.4789ZM512.237 33.156H507.853V25.7154C507.853 23.9328 507.215 22.7152 505.629 22.7152C505.133 22.7194 504.65 22.877 504.247 23.1663C503.845 23.4556 503.542 23.8624 503.381 24.3307C503.264 24.6763 503.213 25.0406 503.229 25.405V33.156H498.845V19.548H503.229V21.442C503.628 20.7525 504.206 20.1832 504.902 19.7939C505.598 19.4046 506.386 19.2097 507.183 19.2297C510.061 19.2297 512.237 21.1237 512.237 25.2061V33.156Z" fill="#3F3D56"/>
<path d="M393.864 196.148C393.864 196.148 424.897 196.991 430.022 198.852C435.148 200.714 437.439 214.025 437.439 214.025L413.344 221.585L395.322 220.566L381.759 221.523L389.332 201.722L393.864 196.148Z" fill="#2F2E41"/>
<path d="M395.203 185.983C395.203 185.983 397.244 193.856 392.713 199.43C388.181 205.004 412.193 224.866 412.193 224.866L424.861 222.693C424.861 222.693 422.069 198.504 425.819 192.379C429.569 186.254 395.203 185.983 395.203 185.983Z" fill="#9F616A"/>
<path opacity="0.1" d="M395.203 185.983C395.203 185.983 397.244 193.856 392.713 199.43C388.181 205.004 412.193 224.866 412.193 224.866L424.861 222.693C424.861 222.693 422.069 198.504 425.819 192.379C429.569 186.254 395.203 185.983 395.203 185.983Z" fill="black"/>
<path d="M479.448 416.151L451.499 453.152L470.573 464.269L496.825 421.392L479.448 416.151Z" fill="#9F616A"/>
<path d="M459.842 453.776C459.842 453.776 449.55 441.837 450.008 444.499C450.467 447.162 442.685 469.739 449.925 471.922C457.165 474.106 519.253 479.899 520.107 472.9C520.961 465.901 501.585 461.003 501.585 461.003C501.585 461.003 490.074 449.959 487.521 451.082C484.969 452.205 459.842 453.776 459.842 453.776Z" fill="#2F2E41"/>
<path d="M473.177 451.487L495.501 489.455L512.357 479.712L489.845 448.628L473.177 451.487Z" fill="#9F616A"/>
<path d="M508.418 361.159L501.793 370.519C501.793 370.519 470.208 414.31 473.562 417.846C476.916 421.382 490.886 434.745 497.991 432.155C505.095 429.566 530.336 384.807 530.336 384.807L523.752 358.528L508.418 361.159Z" fill="#2F2E41"/>
<path d="M372.357 352.299C372.357 352.299 379.431 365.475 397.359 369.937C415.287 374.398 434.018 383.518 434.684 383.404C435.351 383.289 437.237 382.28 437.695 384.943C438.153 387.605 443.07 392.243 443.07 392.243C443.07 392.243 462.874 459.422 470.437 459.495C478 459.568 493.543 454.16 493.865 452.049C494.188 449.938 470.707 381.334 470.478 380.003L467.728 364.03C467.728 364.03 498.782 368.98 501.678 369.853C504.574 370.727 530.336 384.807 530.336 384.807C530.336 384.807 556.598 365.912 532.034 346.829C507.47 327.746 465.249 313.749 465.249 313.749L450.102 309.496L436.901 308.709L434.957 301.268L403.693 303.069L371.065 316.89L372.357 352.299Z" fill="#2F2E41"/>
<path d="M413.62 201.653C427.07 201.653 437.974 190.768 437.974 177.341C437.974 163.915 427.07 153.03 413.62 153.03C400.17 153.03 389.267 163.915 389.267 177.341C389.267 190.768 400.17 201.653 413.62 201.653Z" fill="#9F616A"/>
<path d="M391.587 196.882L394.516 196.379C394.516 196.379 399.807 216.713 416.172 220.072C416.172 220.072 424.248 210.415 423.903 208.786C423.558 207.156 430.298 198.462 433.882 203.329C437.465 208.196 433.007 293.928 436.017 295.467C439.028 297.006 445.487 298.639 440.289 304.327C435.09 310.016 414.443 317.67 409.87 315.028C405.297 312.387 395.952 290.007 391.91 282.478C387.868 274.949 381.399 249.336 381.399 249.336C381.399 249.336 373.138 221.289 378.222 214.935C383.305 208.581 391.587 196.882 391.587 196.882Z" fill="#D0CDE1"/>
<path d="M414.895 302.427C414.35 308.398 413.419 314.329 412.105 320.18C410.911 324.941 409.52 327.816 407.933 327.694C403.884 327.391 402.043 333.32 401.094 340.156C400.08 347.407 400.08 355.68 399.523 358.604C398.787 362.466 394.075 365.415 384.659 364.549C379.051 363.912 373.548 362.565 368.281 360.539C355.569 355.925 355.945 318.506 358.072 290.74C359.373 273.721 361.328 260.32 361.328 260.32C361.328 260.32 357.467 248.822 356.231 240.941C355.986 239.503 355.862 238.047 355.863 236.588C356.051 229.704 368.641 211.101 376.249 199.513C383.866 187.924 394.255 196.426 394.255 196.426L390.639 207.32C390.639 207.32 396.243 215.952 396.284 224.167C396.325 232.383 409.7 238.312 414.502 242.289C417.521 244.788 417.447 278.148 414.895 302.427Z" fill="#2F2E41"/>
<path d="M425.47 200.319C425.47 200.319 426.348 201.354 430.366 200.849C435.185 200.243 441.812 201.908 443.351 206.501C446.174 214.925 454.133 249.19 454.133 249.19C454.133 249.19 457.446 288.364 458.936 297.017C460.426 305.669 459.686 313.333 461.155 317.878C462.624 322.422 446.654 309.402 440.768 311.097C434.882 312.792 431.101 290.829 431.84 283.165C432.58 275.501 433.205 267.171 431.163 259.298C429.121 251.426 432.741 230.591 432.606 225.818C432.47 221.045 419.628 209.014 425.47 200.319Z" fill="#2F2E41"/>
<path d="M442.702 322.072C442.702 322.072 468.487 336.115 470.955 356.103C473.423 376.091 436.466 336.749 436.466 336.749L442.702 322.072Z" fill="#9F616A"/>
<path d="M457.421 307.897C457.421 307.897 465.322 347.655 477.631 345.543C489.939 343.431 470.755 305.609 470.755 305.609L457.421 307.897Z" fill="#9F616A"/>
<path d="M499.575 481.219C499.575 481.219 493.273 488.468 491.71 487.365C490.147 486.263 486.553 501.269 489.793 504.139C493.033 507.01 505.513 511.72 505.648 516.494C505.784 521.267 539.255 520.321 540.453 515.318C541.651 510.316 536.254 498.908 532.463 496.818C528.671 494.728 514.65 475.489 514.65 475.489C514.65 475.489 503.669 477.091 499.575 481.219Z" fill="#2F2E41"/>
<path opacity="0.1" d="M438.594 346.387C432.614 342.173 415.917 341.127 401.094 340.155C394.59 339.739 388.447 339.331 383.727 338.669C379.178 338.04 375.088 333.892 371.456 327.71C365.95 318.343 361.5 304.296 358.072 290.74C359.373 273.721 361.328 260.32 361.328 260.32C361.328 260.32 357.467 248.822 356.231 240.941C357.102 239.731 358.224 238.723 359.52 237.985C375.243 231.247 390.255 297.551 392.161 307.955C392.194 308.127 392.218 308.29 392.243 308.429C393.167 313.786 403.156 318.367 412.105 320.18C417.619 321.299 422.748 321.373 425.112 319.919C431.321 316.113 450.415 331.344 451.863 331.777C453.311 332.218 447.184 352.454 438.594 346.387Z" fill="black"/>
<path d="M359.523 233.903C359.523 233.903 348.095 239.29 353.116 264.467C358.137 289.644 368.253 332.447 383.722 334.589C399.192 336.732 429.996 336.243 438.59 342.305C447.185 348.368 453.31 328.131 451.862 327.694C450.414 327.258 431.319 312.033 425.11 315.839C418.902 319.645 393.733 313 392.244 304.348C390.754 295.696 375.503 227.05 359.523 233.903Z" fill="#2F2E41"/>
<path d="M441.872 221.83L454.432 250.922C454.432 250.922 455.696 250.292 457.165 254.837C458.634 259.381 459.321 263.375 461.894 266.359C464.467 269.344 475.916 311.919 476.26 313.915C476.604 315.912 460.447 322.795 456.837 317.248C453.227 311.7 441.872 221.83 441.872 221.83Z" fill="#2F2E41"/>
<path d="M399.765 177.003C400.698 176.754 400.835 175.517 400.866 174.553C401.034 169.392 404.147 164.095 409.097 162.593C410.996 162.073 412.984 161.964 414.929 162.272C417.705 162.642 420.386 163.534 422.828 164.903C424.117 165.626 425.382 166.498 426.844 166.719C427.809 166.865 431.99 168.078 432.952 168.249C435.066 168.625 437.031 170.513 439.059 169.81C441 169.138 441.43 166.629 441.477 164.579C441.584 159.908 438.032 153.444 434.903 149.969C432.529 147.332 428.954 146.115 425.46 145.482C421.378 144.827 417.241 144.576 413.109 144.732C407.517 144.832 401.77 145.263 396.727 147.678C391.684 150.094 387.448 154.901 387.206 160.48C387.156 161.642 387.276 162.809 387.178 163.968C386.939 166.795 385.435 169.349 384.73 172.098C384.226 174.114 384.15 176.214 384.509 178.262C384.867 180.309 385.651 182.259 386.811 183.986C388.683 186.735 391.624 189.222 391.516 192.544L395.574 188.348C396.18 187.886 396.609 187.23 396.789 186.49C396.97 185.751 396.891 184.972 396.565 184.283L395.129 178.69C394.759 177.692 394.716 176.602 395.004 175.578C396.544 171.779 398.209 177.418 399.765 177.003Z" fill="#2F2E41"/>
<path d="M214.417 343.06C214.417 420.57 168.259 447.633 111.32 447.633C54.3817 447.633 8.22363 420.57 8.22363 343.06C8.22363 265.551 111.32 166.947 111.32 166.947C111.32 166.947 214.417 265.551 214.417 343.06Z" fill="#F2F2F2"/>
<path d="M107.564 435.776L108.62 370.908L152.562 290.657L108.786 360.732L109.26 331.564L139.546 273.503L109.386 323.846L110.24 271.387L142.67 225.163L110.374 263.138L110.908 166.947L107.556 294.286L107.83 289.033L74.859 238.652L107.302 299.117L104.23 357.706L104.138 356.15L66.1279 303.132L104.023 361.644L103.639 368.971L103.57 369.081L103.602 369.682L95.8073 518.325H106.221L107.471 441.548L145.273 383.179L107.564 435.776Z" fill="#3F3D56"/>
</g>
<defs>
<clipPath id="clip0">
<rect width="620" height="522" fill="white"/>
</clipPath>
</defs>
</svg>
