<svg width="46" height="46" viewBox="0 0 46 46" fill="none" xmlns="http://www.w3.org/2000/svg">
<circle cx="23" cy="23" r="20" fill="#D6EDF4"/>
<path d="M31.6553 17.8616V42.2188L35.3291 40.1951V15.6491L31.6553 17.8616Z" fill="#247F9B"/>
<path d="M31.6826 17.8616V42.2188L10 29.6917V5.14572L31.6826 17.8616Z" fill="#30A6CA"/>
<path d="M10 5.14562L31.6826 17.8616L35.3293 15.6491L13.5995 3L10 5.14562Z" fill="#91C9DB"/>
<path opacity="0.7" d="M10 5.1456L31.6826 17.8615L35.3293 15.6491L31.4989 16.6882L10 5.1456Z" fill="white"/>
<path d="M24.1102 23.3519L24.1171 21.2507C24.122 19.7625 22.9033 17.9452 21.4021 17.1974L19.6441 16.3218C18.1429 15.5741 16.9163 16.1735 16.9114 17.6617L16.9045 19.763L16.0146 19.3198L16 23.7769C15.9919 26.2368 17.9966 29.2323 20.4781 30.4683C22.9595 31.7042 24.9773 30.7123 24.9854 28.2523L25 23.7952L24.1102 23.3519ZM17.7181 18.0635C17.7215 17.0164 18.5816 16.59 19.6415 17.1179L21.3995 17.9935C22.4594 18.5214 23.3139 19.8018 23.3104 20.8489L23.3035 22.9502L17.7112 20.1648L17.7181 18.0635ZM20.9537 25.7594L20.9492 27.1471C20.9483 27.3981 20.7414 27.4962 20.4882 27.3701C20.235 27.244 20.0295 26.9405 20.0303 26.6895L20.0349 25.3017C19.6159 24.9135 19.3242 24.3551 19.3258 23.8747C19.3279 23.2328 19.8541 22.9741 20.5016 23.2966C21.1492 23.6191 21.6719 24.4003 21.6698 25.0422C21.6682 25.5227 21.3739 25.7891 20.9537 25.7594Z" fill="white"/>
</svg>
