<svg width="46" height="46" viewBox="0 0 46 46" fill="none" xmlns="http://www.w3.org/2000/svg">
<circle cx="23" cy="23" r="20" fill="#D6EDF4"/>
<path d="M31.6553 17.8616V42.2188L35.3291 40.1951V15.6491L31.6553 17.8616Z" fill="#247F9B"/>
<path d="M31.6826 17.8616V42.2188L10 29.6917V5.14572L31.6826 17.8616Z" fill="#30A6CA"/>
<path d="M10 5.14562L31.6826 17.8616L35.3293 15.6491L13.5995 3L10 5.14562Z" fill="#91C9DB"/>
<path opacity="0.7" d="M10 5.1456L31.6826 17.8615L35.3293 15.6491L31.4989 16.6882L10 5.1456Z" fill="white"/>
<path d="M15.9868 19.9366C15.5806 19.8653 15.2676 20.2886 15.4547 20.656L19.4012 28.4041C19.5528 28.7017 19.9479 28.7699 20.1904 28.5404L27.588 21.5401C27.8067 21.3332 27.7943 20.9815 27.5616 20.7905L24.5914 18.3525C24.3619 18.1641 24.0197 18.2161 23.8565 18.4642L20.199 24.0224C19.9835 24.3499 19.492 24.3132 19.3275 23.9573L17.7097 20.4574C17.641 20.3087 17.5038 20.2031 17.3424 20.1748L15.9868 19.9366Z" fill="white"/>
</svg>
