<svg width="46" height="46" viewBox="0 0 46 46" fill="none" xmlns="http://www.w3.org/2000/svg">
<circle cx="23" cy="23" r="20" fill="#D6EDF4"/>
<path d="M31.6553 17.8616V42.2188L35.3291 40.1951V15.6491L31.6553 17.8616Z" fill="#247F9B"/>
<path d="M31.6826 17.8616V42.2188L10 29.6917V5.14572L31.6826 17.8616Z" fill="#30A6CA"/>
<path d="M10 5.14562L31.6826 17.8616L35.3293 15.6491L13.5995 3L10 5.14562Z" fill="#91C9DB"/>
<path opacity="0.7" d="M10 5.1456L31.6826 17.8615L35.3293 15.6491L31.4989 16.6882L10 5.1456Z" fill="white"/>
<path d="M16.8687 20.9146L14.1566 19.3488L15.4885 18.5673C15.9935 18.4046 16.3659 18.1923 16.6055 17.9313C16.8445 17.6697 16.9647 17.2936 16.9647 16.8029C16.9647 16.3559 16.8749 15.9045 16.696 15.4493C16.5171 14.994 16.2491 14.5626 15.8912 14.1538C15.5334 13.746 15.0989 13.3945 14.5877 13.0992C14.0959 12.8153 13.6682 12.6833 13.3042 12.7047C12.9395 12.7248 12.6604 12.8679 12.4655 13.1328C12.2701 13.3981 12.1665 13.7433 12.154 14.1681C12.154 14.234 12.1734 14.3006 12.2114 14.3661C12.25 14.4329 12.2978 14.4817 12.3551 14.5149L13.2178 15.0131C13.2815 15.0497 13.3408 15.0642 13.3947 15.0549C13.4492 15.046 13.4859 15.0029 13.5053 14.9261C13.5495 14.6076 13.6634 14.3928 13.8451 14.2813C14.0274 14.1702 14.2782 14.2071 14.5974 14.3913C14.9234 14.5796 15.1659 14.8187 15.3261 15.1086C15.4858 15.399 15.5652 15.7158 15.5652 16.0607C15.5652 16.2732 15.5044 16.4544 15.3835 16.6042C15.2619 16.7544 15.0782 16.8885 14.8322 17.0066C14.5863 17.1253 14.2368 17.2588 13.7829 17.4066L12.288 18.2486C12.1285 18.2952 12.0483 18.4217 12.0483 18.627V19.1985C12.0483 19.2723 12.0711 19.3472 12.1153 19.4243C12.1602 19.5017 12.2148 19.5586 12.2784 19.5954L16.8687 22.2455C16.9391 22.2863 16.9965 22.2956 17.0414 22.274C17.0857 22.2519 17.1084 22.2008 17.1084 22.12V21.3281C17.1084 21.2481 17.0857 21.1683 17.0414 21.0921C16.9965 21.0146 16.9391 20.9553 16.8687 20.9146ZM21.5256 24.8574C21.567 24.8297 21.5878 24.7799 21.5878 24.7061V23.2984L22.4506 23.7965C22.5204 23.8368 22.5763 23.8438 22.6185 23.8165C22.6599 23.7897 22.6806 23.7391 22.6806 23.6653V22.8854C22.6806 22.8045 22.6599 22.7283 22.6185 22.6568C22.5763 22.585 22.5204 22.5288 22.4506 22.4886L21.5878 21.9904V17.5363C21.5878 17.4563 21.567 17.38 21.5256 17.3078C21.4842 17.2363 21.4282 17.1803 21.3578 17.1396L20.3036 16.5309C20.2269 16.4866 20.1572 16.463 20.0929 16.4593C20.0294 16.455 19.981 16.4731 19.9492 16.5134L17.1225 19.368C17.052 19.4303 17.0168 19.5194 17.0168 19.6367V20.3953C17.0168 20.4691 17.0389 20.5444 17.0838 20.6211C17.1287 20.6985 17.1832 20.7554 17.2469 20.7921L20.285 22.5462V23.954C20.285 24.0277 20.307 24.1022 20.3519 24.1797C20.3961 24.2567 20.4507 24.3137 20.515 24.3508L21.3578 24.8373C21.4282 24.878 21.4842 24.885 21.5256 24.8574ZM20.3132 21.2982L18.368 20.1751L20.3132 18.1425V21.2982ZM25.1737 23.2281C25.1737 23.1616 25.1544 23.0957 25.1164 23.0302C25.0777 22.9635 25.0301 22.9137 24.9727 22.8807L24.3496 22.521C24.2729 22.4766 24.2094 22.4637 24.1582 22.4818C24.1071 22.5006 24.0684 22.5314 24.0429 22.5753L20.7851 29.6779C20.772 29.7076 20.7657 29.7437 20.7657 29.788C20.7657 29.8539 20.7851 29.9205 20.8231 29.986C20.8618 30.0528 20.906 30.0996 20.9571 30.1292L21.5802 30.4889C21.6631 30.5368 21.7287 30.5509 21.7764 30.5308C21.8247 30.5112 21.8579 30.4773 21.8772 30.4298L25.1544 23.3375C25.1675 23.3086 25.1737 23.2718 25.1737 23.2281ZM29.5384 28.3656C29.4935 28.2889 29.4362 28.2296 29.3657 28.189L25.1491 25.7545C25.0786 25.7139 25.0234 25.7081 24.9812 25.7344C24.9397 25.7621 24.9191 25.8159 24.9191 25.8967V26.6776C24.9191 26.7513 24.9418 26.8263 24.986 26.9034C25.0309 26.9808 25.0855 27.0377 25.1491 27.0743L28.1485 28.8061L25.8489 33.5155C25.8357 33.5515 25.8295 33.5812 25.8295 33.6034C25.8295 33.6692 25.8489 33.7374 25.8868 33.8069C25.9255 33.8768 25.9732 33.9281 26.0313 33.9616L26.9224 34.4761C26.999 34.5203 27.0592 34.5313 27.1041 34.5096C27.149 34.4881 27.1904 34.4478 27.229 34.3892L29.5095 29.713C29.5737 29.5885 29.6055 29.4491 29.6055 29.2952V28.6024C29.6055 28.5216 29.5826 28.4426 29.5384 28.3656Z" fill="white"/>
</svg>
