<svg width="46" height="46" viewBox="0 0 46 46" fill="none" xmlns="http://www.w3.org/2000/svg">
<circle cx="23" cy="23" r="20" fill="#D6EDF4"/>
<path d="M31.656 19.1305V43.9288L35.3299 41.8685V16.8779L31.656 19.1305Z" fill="#247F9B"/>
<path d="M31.6829 19.1308V43.9292L10 31.1752V6.1846L31.6829 19.1308Z" fill="#30A6CA"/>
<path d="M10 6.18447L31.6829 19.1307L35.3296 16.8782L13.5995 4L10 6.18447Z" fill="#91C9DB"/>
<path opacity="0.7" d="M10 6.1846L31.6829 19.1308L35.3296 16.8783L31.4991 17.9362L10 6.1846Z" fill="white"/>
<path d="M14.2332 21.9246L20.2762 25.4766V24.2215L14.2332 20.6694V21.9246Z" fill="white"/>
<path d="M27.7828 22.8813L13.8168 14.6721C12.9268 14.149 12.2053 14.5678 12.2053 15.6075V24.4027C12.2053 25.4426 12.9268 26.7094 13.8168 27.2325L27.7828 35.4418C28.6729 35.965 29.3944 35.5462 29.3944 34.5064V25.7111C29.3944 24.6715 28.6729 23.4046 27.7828 22.8813ZM27.7828 34.4377L13.8168 26.2284C13.4021 25.9846 13.0648 25.3923 13.0648 24.9079V18.0992L28.5349 27.1925V34.0013C28.5349 34.4857 28.1975 34.6814 27.7828 34.4377Z" fill="white"/>
</svg>
